<svg viewBox="0 0 80 48" fill="none" xmlns="http://www.w3.org/2000/svg">
<path d="M22.2489 19.6366H15.397V21.8185L19.8629 21.8185C19.9955 21.8185 20.1227 21.8712 20.2165 21.965C20.3103 22.0588 20.363 22.186 20.363 22.3186V26.1822H19.4086C19.2759 26.1822 19.1487 26.1295 19.0549 26.0357C18.9611 25.9419 18.9084 25.8147 18.9084 25.6821V22.9094H17.0225C16.5582 22.9094 16.113 23.0939 15.7847 23.4222C15.4564 23.7504 15.272 24.1957 15.272 24.66V26.6136C15.272 27.0778 15.4564 27.5231 15.7847 27.8514C16.113 28.1797 16.5582 28.3641 17.0225 28.3641H23.9995V21.3871C23.9995 20.9229 23.8151 20.4776 23.4868 20.1493C23.1585 19.821 22.7132 19.6366 22.2489 19.6366Z" fill="#0ABF53"/>
<path d="M30.545 26.1822H29.5906C29.458 26.1822 29.3307 26.1295 29.2369 26.0357C29.1432 25.9419 29.0905 25.8147 29.0905 25.6821V19.6366H27.2046C26.7404 19.6366 26.2951 19.821 25.9668 20.1493C25.6385 20.4776 25.4541 20.9228 25.4541 21.3871V26.6136C25.4541 27.0778 25.6385 27.5231 25.9668 27.8514C26.2951 28.1797 26.7404 28.3641 27.2046 28.3641H34.1816V16.0001H30.5451L30.545 26.1822Z" fill="#0ABF53"/>
<path d="M40.7272 26.182H39.7728C39.6401 26.182 39.5129 26.1294 39.4191 26.0356C39.3253 25.9418 39.2726 25.8145 39.2726 25.6819V19.6364H35.6362V26.6134C35.6362 27.0777 35.8207 27.5229 36.149 27.8512C36.4772 28.1795 36.9225 28.3639 37.3868 28.3639H40.7273V29.4549H35.7613V31.9999H42.6132C43.0775 31.9999 43.5227 31.8155 43.851 31.4872C44.1793 31.1589 44.3637 30.7137 44.3637 30.2494V19.6364H40.7272V26.182Z" fill="#0ABF53"/>
<path d="M52.7953 19.6366H45.8184V26.6136C45.8184 27.0778 46.0028 27.5231 46.3311 27.8514C46.6594 28.1797 47.1046 28.3641 47.5689 28.3641H54.4208V26.1822H49.955C49.8223 26.1822 49.6951 26.1295 49.6013 26.0357C49.5075 25.9419 49.4548 25.8147 49.4548 25.6821V21.8185H50.4092C50.5419 21.8185 50.6691 21.8712 50.7629 21.965C50.8567 22.0588 50.9094 22.186 50.9094 22.3187V25.0913H52.7953C53.2596 25.0913 53.7049 24.9069 54.0332 24.5786C54.3614 24.2503 54.5459 23.805 54.5459 23.3407V21.3871C54.5459 21.1573 54.5006 20.9296 54.4126 20.7172C54.3246 20.5048 54.1957 20.3119 54.0332 20.1493C53.8706 19.9868 53.6776 19.8578 53.4652 19.7698C53.2528 19.6819 53.0252 19.6366 52.7953 19.6366Z" fill="#0ABF53"/>
<path d="M62.9772 19.6366H56.0002V28.3641H59.6367V21.8185H60.5911C60.7237 21.8188 60.8507 21.8717 60.9444 21.9654C61.0381 22.0591 61.0909 22.1861 61.0913 22.3186V28.3641H64.7277V21.3871C64.7277 20.9229 64.5433 20.4776 64.215 20.1493C63.8867 19.821 63.4415 19.6366 62.9772 19.6366Z" fill="#0ABF53"/>
</svg>
