<svg viewBox="0 0 80 48" fill="none" xmlns="http://www.w3.org/2000/svg">
<path d="M37.6931 16.1309C40.5722 16.1309 42.577 18.1154 42.577 21.0048C42.577 23.9045 40.531 25.8994 37.6209 25.8994H34.4332V30.9688H32.1301V16.1309L37.6931 16.1309ZM34.4332 23.9662H37.0759C39.0811 23.9662 40.2223 22.8867 40.2223 21.0151C40.2223 19.1438 39.0811 18.0744 37.0862 18.0744H34.4332V23.9662Z" fill="black"/>
<path d="M43.1787 27.8949C43.1787 26.0027 44.6286 24.8408 47.1994 24.6968L50.1606 24.5221V23.6893C50.1606 22.4862 49.3482 21.7664 47.9912 21.7664C46.7056 21.7664 45.9035 22.3832 45.7083 23.3499H43.6107C43.7341 21.3961 45.3997 19.9565 48.0733 19.9565C50.6953 19.9565 52.3713 21.3447 52.3713 23.5143V30.9693H50.2427V29.1904H50.1916C49.5644 30.3935 48.1967 31.1543 46.7778 31.1543C44.6595 31.1543 43.1787 29.8382 43.1787 27.8949ZM50.1606 26.918V26.0646L47.4973 26.229C46.1708 26.3216 45.4203 26.9077 45.4203 27.8332C45.4203 28.779 46.2018 29.3961 47.3946 29.3961C48.9472 29.3961 50.1606 28.3266 50.1606 26.918Z" fill="black"/>
<path d="M54.381 34.9487V33.1492C54.5452 33.1902 54.9153 33.1902 55.1005 33.1902C56.1287 33.1902 56.6841 32.7585 57.0232 31.648C57.0232 31.6273 57.2188 30.9899 57.2188 30.9796L53.3115 20.1519H55.7174L58.4529 28.9539H58.4937L61.2292 20.1519H63.5736L59.5219 31.5347C58.5969 34.1569 57.5274 35.0001 55.2858 35.0001C55.1005 35.0001 54.5452 34.9795 54.381 34.9487Z" fill="black"/>
<path d="M25.337 17.5791C25.8921 16.8848 26.2688 15.9526 26.1694 15C25.3569 15.0404 24.3653 15.5361 23.7912 16.2309C23.2758 16.8259 22.8196 17.7972 22.9385 18.7098C23.8506 18.789 24.7619 18.2539 25.337 17.5791Z" fill="black"/>
<path d="M26.1591 18.8881C24.8345 18.8092 23.7082 19.6399 23.0757 19.6399C22.4427 19.6399 21.474 18.9279 20.4263 18.9471C19.0626 18.9671 17.7973 19.7381 17.1053 20.9644C15.682 23.4176 16.7297 27.0566 18.1138 29.0546C18.786 30.0431 19.596 31.1314 20.6634 31.0923C21.6719 31.0528 22.0672 30.4393 23.2931 30.4393C24.5181 30.4393 24.8741 31.0923 25.9417 31.0726C27.0488 31.0528 27.7409 30.0836 28.4131 29.0942C29.1842 27.9673 29.4998 26.8793 29.5197 26.8196C29.4998 26.7998 27.3849 25.9885 27.3653 23.5557C27.3453 21.5186 29.0257 20.5497 29.1048 20.4896C28.1559 19.0861 26.6732 18.9279 26.1591 18.8881Z" fill="black"/>
</svg>
