<svg viewBox="0 0 80 48" fill="none" xmlns="http://www.w3.org/2000/svg">
<path fill-rule="evenodd" clip-rule="evenodd" d="M50.5337 14.9333L39.8671 9.59999C39.4671 9.46666 39.0671 9.33333 38.6671 9.33333C38.2671 9.33333 37.8671 9.46666 37.4671 9.59999L26.8004 14.9333C25.8671 15.4667 25.3337 16.4 25.3337 17.3333V23.3333V26.2667V26.6667V30.6667C25.3337 31.7333 25.8671 32.5333 26.8004 33.0667L37.4671 38.4L37.4671 38.4C37.8671 38.5333 38.2671 38.6667 38.6671 38.6667C39.0671 38.6667 39.4671 38.5333 39.8671 38.4L39.8671 38.4L41.0671 37.8667C40.4004 36.9333 40.0004 36 40.0004 35.3333V23.6L49.3337 18.9333V20.9333C49.431 20.9139 49.5254 20.8944 49.6178 20.8754C50.1589 20.7639 50.631 20.6667 51.2004 20.6667H52.0004V17.3333C52.0004 16.4 51.4671 15.4667 50.5337 14.9333ZM38.6671 12L42.1337 13.7333L32.9337 18.4L29.3337 16.6667L38.6671 12ZM37.3337 35.3333L28.0004 30.6667V27.7333V19.0667L31.6004 20.8667V26.5333L33.7337 27.7333V21.9333L37.3337 23.7333V35.3333ZM38.6671 21.3333L35.2004 19.6L44.5337 14.9333L48.0004 16.6667L38.6671 21.3333ZM51.2004 36.2667C52.4004 36.2667 53.4671 35.7333 54.2671 34.8L56.0004 36.5333C54.6671 37.8667 53.0671 38.6667 51.2004 38.6667C48.3488 38.6667 45.9323 36.7812 44.8601 34.1333H42.6671V32.2667H44.3543C44.2969 31.8749 44.2671 31.474 44.2671 31.0667L42.6671 31.0667V29.2H44.4885C45.2737 25.9404 48.0468 23.4667 51.2004 23.4667C53.0671 23.4667 54.8004 24.2667 56.0004 25.6L54.2671 27.3333C53.4671 26.4 52.4004 25.8667 51.2004 25.8667C49.3423 25.8667 47.724 27.2253 47.0879 29.2H52.0004V31.0667L46.8004 31.0667C46.8004 31.4815 46.8404 31.883 46.9159 32.2667H52.0004V34.1333H47.6388C48.4437 35.4376 49.7489 36.2667 51.2004 36.2667Z" fill="#23282A"/>
</svg>
