<svg viewBox="0 0 80 48" fill="none" xmlns="http://www.w3.org/2000/svg">
<path fill-rule="evenodd" clip-rule="evenodd" d="M49.3337 13.3333H50.667C52.1337 13.3333 53.3337 14.5333 53.3337 16V29.3333V32C53.3337 33.4667 52.1337 34.6667 50.667 34.6667H29.3337C27.867 34.6667 26.667 33.4667 26.667 32V16C26.667 14.5333 27.867 13.3333 29.3337 13.3333H46.667H49.3337ZM29.3337 32H50.667V29.3333V16H49.3337H49.2003H29.3337V18.6667V32ZM41.467 22.1333L40.5337 19.0667C40.267 18.5333 39.7337 18.5333 39.2003 19.0667L38.267 22.1333H35.067C34.667 22.1333 34.4003 22.8 34.8003 23.0667L37.467 24.9333L36.5337 28C36.4003 28.4 36.9337 28.8 37.3337 28.5333L40.0003 26.6667L42.4003 28.5333C42.8003 28.8 43.3337 28.5333 43.2003 28L42.267 24.9333L44.9337 23.0667C45.3337 22.8 45.2003 22.1333 44.667 22.1333H41.467Z" fill="#23282A"/>
</svg>
