<svg width="80" height="48" viewBox="0 0 80 48" fill="none" xmlns="http://www.w3.org/2000/svg">
<path fill-rule="evenodd" clip-rule="evenodd" d="M26.6666 16.4667H53.3333V21.7384L52.5377 22.0232C51.732 22.3115 51.16 23.0839 51.16 23.9733C51.16 24.8628 51.732 25.6352 52.5377 25.9235L53.3333 26.2083V31.48H26.6666V26.2083L27.4623 25.9235C28.268 25.6352 28.84 24.8628 28.84 23.9733C28.84 23.0839 28.268 22.3115 27.4623 22.0232L26.6666 21.7384V16.4667ZM29.0666 18.8667H34.6V29.08H29.0666V27.8058C30.3671 27.0232 31.24 25.5977 31.24 23.9733C31.24 22.3489 30.3671 20.9234 29.0666 20.1409V18.8667ZM37 18.8667H50.9333V20.1409C49.6328 20.9234 48.76 22.3489 48.76 23.9733C48.76 25.5977 49.6328 27.0233 50.9333 27.8058V29.08H37V18.8667Z" fill="#3F4447"/>
</svg>
