<svg viewBox="0 0 80 48" fill="none" xmlns="http://www.w3.org/2000/svg">
<path d="M20.512 19.4488H18.2514C16.967 19.4488 15.9908 19.7166 15.3005 20.2535C14.2657 21.0581 13.6716 22.4959 13.6716 24.182C13.6716 25.6965 14.1318 26.96 14.956 27.7465C15.7607 28.5136 16.6421 28.7813 18.4244 28.7813H22.6778V16H20.512V19.4488ZM20.512 27.0757H18.423C16.7174 27.0757 15.8932 26.0981 15.8932 24.0481C15.8932 22.1124 16.7941 21.1544 18.5764 21.1544H20.512V27.0757Z" fill="#A01813"/>
<path d="M33.939 19.4488H32.2334V21.1544H33.939V25.6575C33.939 26.999 34.13 27.6503 34.6474 28.1677C35.1453 28.6279 35.6822 28.7813 36.8508 28.7813H38.6903V27.0757H37.636C36.3335 27.0757 36.1034 26.8261 36.1034 25.3702V21.1544H38.6903V19.4488H36.1034V16H33.9376V19.4488H33.939Z" fill="#A01813"/>
<path d="M39.2551 19.4462V32.0002H41.4209V28.7774H43.4138C45.196 28.7774 46.0202 28.5277 46.8054 27.7816C47.6296 26.977 48.1274 25.6354 48.1274 24.1599C48.1274 22.531 47.6672 21.2466 46.7663 20.4238C45.9421 19.6763 45.1765 19.4462 43.3747 19.4462H39.2551ZM41.4209 21.1518H43.2032C45.0231 21.1518 45.8863 22.0708 45.8863 24.0065C45.8863 25.0985 45.6367 25.9617 45.1779 26.44C44.7944 26.8612 44.0859 27.0718 43.1083 27.0718H41.4223V21.1504L41.4209 21.1518Z" fill="#1D1D1B"/>
<path d="M52.0561 23.0902C50.9837 23.0902 50.2934 23.1865 49.8527 23.397C48.9518 23.8001 48.3967 24.7958 48.3967 25.984C48.3967 26.9225 48.7607 27.7272 49.412 28.2265C50.0256 28.6867 50.543 28.7815 52.4396 28.7815H57.4601V23.1669C57.4601 21.6915 57.2872 21.0207 56.7516 20.3889C56.138 19.661 55.4296 19.4504 53.4744 19.4504H48.8946V21.1559H53.2638C54.3376 21.1559 54.7393 21.2898 55.0266 21.6929C55.2567 22.0192 55.2943 22.287 55.2943 23.0916H52.0561V23.0902ZM55.2943 24.7958V27.0759H52.2472C51.0785 27.0759 50.6183 26.7691 50.6183 25.9645C50.6183 25.4471 50.8484 25.0636 51.2319 24.9102C51.462 24.8139 51.6726 24.7958 52.2472 24.7958H55.2943Z" fill="#1D1D1B"/>
<path d="M64.1639 27.0757H61.9214C60.5798 27.0757 60.1963 26.5778 60.1963 24.7761V19.4488H58.0305V24.6226C58.0305 26.4621 58.1463 27.0185 58.6818 27.6879C59.3331 28.4731 60.1768 28.7799 61.7094 28.7799H64.1625C64.1248 29.5497 64.0663 29.7603 63.779 29.9527C63.5293 30.1633 63.2421 30.2024 62.3035 30.2024H58.0305V31.9079H62.3607C64.0663 31.9079 64.8137 31.6973 65.4274 31.0837C66.041 30.4506 66.3283 29.3977 66.3283 27.8609V19.4488H64.1625V27.0757H64.1639Z" fill="#1D1D1B"/>
<path d="M28.6856 22.0876H27.0456C26.9996 22.0876 26.9578 22.1057 26.9187 22.1461C26.8811 22.1852 26.856 22.2424 26.856 22.3079V23.6969H28.8739V22.3079C28.8739 22.2424 28.8488 22.1852 28.8112 22.1461C28.7735 22.1071 28.7303 22.0889 28.6842 22.0876H28.6856Z" fill="#A01813"/>
<path d="M27.8698 19.5115C25.3163 19.5115 23.2454 21.5824 23.2454 24.1359C23.2454 26.6894 25.3163 28.7603 27.8698 28.7603C30.4233 28.7603 32.4942 26.6894 32.4942 24.1359C32.4942 21.5824 30.4233 19.5115 27.8698 19.5115ZM29.9519 26.2849C29.9519 26.6378 29.6632 26.9251 29.3118 26.9251H26.3525C25.9997 26.9251 25.7124 26.6364 25.7124 26.2849V24.3632C25.7124 24.0996 25.8741 23.8723 26.1029 23.7733V22.3327C26.1029 21.8307 26.4919 21.4011 27.0079 21.3969H28.648C29.164 21.4011 29.5516 21.8307 29.553 22.3327V23.7691C29.7859 23.8653 29.9519 24.0955 29.9519 24.3618V26.2835V26.2849Z" fill="#A01813"/>
</svg>
