<svg viewBox="0 0 80 48" fill="none" xmlns="http://www.w3.org/2000/svg">
<path d="M53.6484 24.0051H49.8242C49.3988 24.0051 49.0528 23.6662 49.0528 23.242C49.0528 22.8177 49.3989 22.4443 49.8242 22.4443H55.6463V19.5723H49.8242C47.7921 19.5723 46.1388 21.2289 46.1388 23.2559C46.1388 25.2829 47.7921 26.9395 49.8242 26.9395H53.5965C54.0219 26.9395 54.3679 27.2771 54.3679 27.7013C54.3679 28.1255 54.0218 28.438 53.5965 28.438H45.5073C44.8205 29.7491 44.1528 30.8729 42.7971 31.4348H53.6484C55.6463 31.406 57.2806 29.7153 57.2806 27.7062C57.2806 25.6972 55.6463 24.0339 53.6484 24.0051Z" fill="#71706F"/>
<path d="M38.9886 19.5723C35.7473 19.5723 33.1074 22.2279 33.1074 25.4911V25.6159V37.8032H36.0418V31.4348H38.9825C42.2237 31.4348 44.8544 28.7438 44.8544 25.4807C44.8543 22.2176 42.2299 19.5723 38.9886 19.5723ZM38.9886 28.438H36.0418V25.4807C36.0418 23.8282 37.3575 22.4837 38.9886 22.4837C40.6197 22.4837 41.9465 23.8282 41.9465 25.4807C41.9465 27.1333 40.6197 28.438 38.9886 28.438Z" fill="#71706F"/>
<path d="M23.8172 31.4348C21.0426 31.4348 18.71 29.4577 18.0788 26.8748C18.0788 26.8748 17.8964 26.0208 17.8964 25.4585C17.8964 24.8961 18.069 24.0333 18.069 24.0333C18.7048 21.4568 21.0346 19.5382 23.8046 19.5382C27.0625 19.5382 29.7358 22.1865 29.7358 25.4443V26.8771H21.0802C21.5914 27.876 22.6251 28.438 23.8172 28.438H31.5982L31.6089 19.9894C31.6089 18.7298 30.5784 17.6992 29.3188 17.6992H18.2905C17.0309 17.6992 16.0002 18.6985 16.0002 19.9582V30.9865C16.0002 32.2461 17.0309 33.3079 18.2905 33.3079H29.3188C30.4492 33.3079 31.3921 32.4962 31.5743 31.4348H23.8172Z" fill="#C8036F"/>
<path d="M23.8045 22.3416C22.617 22.3416 21.5843 23.0686 21.071 24.0051H26.5381C26.0249 23.0686 24.9922 22.3416 23.8045 22.3416Z" fill="#C8036F"/>
<path d="M28.7995 14.1129C28.7995 11.4213 26.5625 9.23935 23.8033 9.23935C21.0897 9.23935 18.8827 11.3499 18.8102 13.9799C18.809 13.991 18.8099 14.0018 18.8099 14.0132V15.4778C18.8099 15.653 18.9526 15.8262 19.1321 15.8262H20.9703C21.1498 15.8262 21.3073 15.653 21.3073 15.4778V14.1129C21.3073 12.7688 22.4268 11.6753 23.8047 11.6753C25.1826 11.6753 26.3021 12.7688 26.3021 14.1129V15.4778C26.3021 15.653 26.4477 15.8262 26.6273 15.8262H28.4655C28.6451 15.8262 28.7995 15.653 28.7995 15.4778V14.1129Z" fill="#C8036F"/>
<path d="M42.28 35.2432L42.0144 36.7474C41.8815 37.5077 41.3834 37.8558 40.7081 37.8558C40.1363 37.8558 39.6935 37.4831 39.8226 36.7486L40.0882 35.2433H40.4978L40.2321 36.7475C40.1509 37.2163 40.3612 37.4832 40.7598 37.4832C41.1693 37.4832 41.5199 37.2396 41.6047 36.7486L41.8704 35.2433H42.28V35.2432ZM40.6712 34.7722C40.6712 34.8977 40.7672 34.9566 40.8705 34.9566C40.9996 34.9566 41.1399 34.8644 41.1399 34.691C41.1399 34.5693 41.0586 34.5066 40.9516 34.5066C40.8189 34.5066 40.6712 34.5914 40.6712 34.7722ZM41.5568 34.7685C41.5568 34.8976 41.6565 34.9566 41.7635 34.9566C41.8779 34.9566 42.0292 34.8644 42.0292 34.6948C42.0292 34.5731 41.9405 34.5066 41.841 34.5066C41.7081 34.5066 41.5568 34.5914 41.5568 34.7685Z" fill="#71706F"/>
<path d="M43.2704 35.2433L43.0859 36.2827C43.2445 36.0688 43.5619 35.9557 43.7833 35.9557C44.2408 35.9557 44.5581 36.2238 44.5581 36.7218C44.5581 37.4266 44.0674 37.8504 43.4402 37.8504C43.1967 37.8504 42.9899 37.7599 42.8645 37.5312L42.7944 37.8025H42.4365L42.8904 35.2433H43.2704ZM42.9827 36.9974C42.968 37.3 43.1635 37.4955 43.4475 37.4955C43.8054 37.4955 44.1522 37.2187 44.1744 36.7982C44.1892 36.4919 43.99 36.311 43.7131 36.311C43.3589 36.311 43.0047 36.5952 42.9827 36.9974Z" fill="#71706F"/>
<path d="M45.3052 37.0537C45.2904 37.3033 45.4859 37.5072 45.8181 37.5072C46.0026 37.5072 46.246 37.4351 46.3788 37.3096L46.5855 37.5485C46.3605 37.755 46.0283 37.8577 45.748 37.8577C45.2241 37.8577 44.9177 37.544 44.9177 37.0643C44.9177 36.4259 45.4195 35.9502 46.0615 35.9502C46.6482 35.9502 46.9804 36.3046 46.781 37.0537H45.3052ZM46.4711 36.7416C46.5007 36.4295 46.3162 36.3025 46.0099 36.3025C45.7332 36.3025 45.4786 36.4295 45.3678 36.7416H46.4711Z" fill="#71706F"/>
<path d="M47.7968 35.9925L47.7783 36.2332C47.9556 36.0004 48.1695 35.953 48.365 35.953C48.542 35.953 48.7007 36.0159 48.7856 36.108L48.5569 36.4401C48.4757 36.3666 48.3945 36.3297 48.2542 36.3297C47.9923 36.3297 47.734 36.4868 47.675 36.8225L47.5017 37.8027H47.1216L47.4426 35.9925H47.7968Z" fill="#71706F"/>
<path d="M50.6169 35.9926L50.8087 37.4241L51.5024 35.9926H51.9267L50.9747 37.8027H50.5283L50.3476 36.6086L50.056 37.2018L49.7387 37.8027H49.2959L48.9749 35.9926H49.4029L49.5911 37.4241L50.2885 35.9926H50.6169Z" fill="#71706F"/>
<path d="M52.4155 37.0537C52.4007 37.3033 52.5963 37.5072 52.9284 37.5072C53.1129 37.5072 53.3563 37.4351 53.4891 37.3096L53.6958 37.5485C53.4709 37.755 53.1387 37.8577 52.8583 37.8577C52.3344 37.8577 52.0281 37.544 52.0281 37.0643C52.0281 36.4259 52.5299 35.9502 53.1719 35.9502C53.7586 35.9502 54.0907 36.3046 53.8914 37.0537H52.4155ZM53.5814 36.7416C53.611 36.4295 53.4265 36.3025 53.1202 36.3025C52.8435 36.3025 52.5889 36.4295 52.4781 36.7416H53.5814Z" fill="#71706F"/>
<path d="M54.9335 35.9924L54.6125 37.8025H54.2324L54.5535 35.9924H54.9335ZM54.5978 35.4992C54.5978 35.6283 54.6938 35.6951 54.7971 35.6951C54.9446 35.6951 55.0812 35.5989 55.0812 35.4182C55.0812 35.2963 54.9889 35.2262 54.8893 35.2262C54.7527 35.2262 54.5978 35.3149 54.5978 35.4992Z" fill="#71706F"/>
<path d="M56.6202 36.4403C56.502 36.3075 56.3509 36.2706 56.1701 36.2706C55.919 36.2706 55.742 36.3555 55.742 36.5141C55.742 36.6469 55.8859 36.7025 56.0999 36.7208C56.432 36.7503 56.8563 36.8611 56.7677 37.3297C56.7051 37.6691 56.3656 37.8684 55.8932 37.8684C55.5981 37.8684 55.3139 37.8019 55.1221 37.5326L55.3692 37.2633C55.5058 37.4513 55.7456 37.5289 55.9596 37.5326C56.1404 37.5326 56.3545 37.4662 56.3876 37.2965C56.4208 37.1341 56.2769 37.0715 56.0113 37.0455C55.7013 37.016 55.3619 36.9017 55.3619 36.5585C55.3619 36.1047 55.8526 35.946 56.2216 35.946C56.502 35.946 56.7087 36.0087 56.8784 36.1895L56.6202 36.4403Z" fill="#71706F"/>
<path d="M57.8203 35.9926L57.647 36.9673C57.5917 37.2774 57.7319 37.4915 58.0491 37.4915C58.348 37.4915 58.6026 37.2439 58.6541 36.9414L58.8202 35.9926H59.2002L58.8794 37.8027H58.5362L58.562 37.5404C58.3479 37.7433 58.1376 37.839 57.8831 37.839C57.4366 37.839 57.171 37.5189 57.2668 36.9693L57.4403 35.9926H57.8203Z" fill="#71706F"/>
<path d="M60.8695 37.8027L61.0429 36.8338C61.0982 36.5202 60.9913 36.3124 60.6444 36.3124C60.3418 36.3124 60.0871 36.5558 60.0355 36.8546L59.8695 37.8027H59.4895L59.8106 35.9926H60.1574L60.1316 36.2571C60.342 36.0615 60.5595 35.965 60.7956 35.965C61.2385 35.965 61.5263 36.2731 61.4268 36.8303L61.2532 37.8027H60.8695Z" fill="#71706F"/>
<path d="M62.1583 38.0524C62.1325 38.302 62.3244 38.403 62.6456 38.403C62.926 38.403 63.2286 38.2464 63.2987 37.848L63.354 37.5372C63.188 37.7696 62.8854 37.8614 62.6604 37.8614C62.1954 37.8614 61.8708 37.5845 61.8708 37.0825C61.8708 36.3668 62.402 35.9534 63.0034 35.9534C63.2581 35.9534 63.4869 36.0744 63.5681 36.281L63.6309 35.9925H63.9998L63.6824 37.8564C63.5644 38.5465 63.0515 38.7606 62.583 38.7606C62.022 38.7606 61.7122 38.4892 61.7896 38.0522H62.1583V38.0524ZM62.2654 37.0087C62.2654 37.3185 62.4684 37.5068 62.76 37.5068C63.5458 37.5068 63.7562 36.3002 62.9701 36.3002C62.5974 36.3003 62.2654 36.5768 62.2654 37.0087Z" fill="#71706F"/>
</svg>
