<svg width="60" height="37" viewBox="0 0 60 37" fill="none" xmlns="http://www.w3.org/2000/svg">
<path d="M29.5594 16.315C29.9294 16.105 30.3194 16.025 30.7094 16.075C31.0494 16.115 31.4794 16.265 31.7894 16.505L32.8794 15.075C32.2694 14.605 31.5194 14.365 30.9294 14.295C30.1494 14.195 29.3594 14.365 28.6694 14.755C27.9794 15.145 27.4194 15.745 27.0394 16.465C26.8894 16.745 26.7694 17.045 26.6694 17.355H25.8794V18.555H26.4694C26.4694 18.725 26.4694 18.885 26.4694 19.055H25.8794V20.255H26.6694C26.7694 20.585 26.8994 20.895 27.0594 21.195C27.4494 21.905 28.0094 22.505 28.6994 22.885C29.3894 23.275 30.1794 23.425 30.9594 23.325C31.5594 23.245 32.1694 23.055 32.8494 22.625L31.8894 21.095C31.4294 21.385 31.0694 21.485 30.7194 21.535C30.3294 21.585 29.9394 21.515 29.5694 21.305C29.1794 21.085 28.8394 20.725 28.5994 20.255H30.5894V19.065H28.2594C28.2494 18.895 28.2494 18.725 28.2594 18.555H30.5894V17.365H28.5894C28.8294 16.885 29.1694 16.535 29.5494 16.315H29.5594ZM21.0294 9.92504L28.7494 9.94504V11.745L22.8194 11.725L22.7994 17.465H20.9994L21.0294 9.91504V9.92504ZM38.7794 9.92504L31.0594 9.94504V11.745L36.9894 11.725L37.0094 17.465H38.8094L38.7794 9.91504V9.92504ZM20.9994 20.205H22.7994V25.895L28.7794 25.925V27.725L20.9994 27.685V20.205ZM38.7994 23.805V20.205H36.9994V23.805C36.9994 24.965 36.0694 25.895 34.9094 25.905L31.0194 25.925V27.725L34.9194 27.705C37.0694 27.695 38.7994 25.955 38.7994 23.805Z" fill="#3F4447"/>
</svg>
