<svg viewBox="0 0 80 48" fill="none" xmlns="http://www.w3.org/2000/svg">
<path fill-rule="evenodd" clip-rule="evenodd" d="M50.667 10.6667H42.667V13.3333H46.667H50.667V17.3333V21.3333H53.3337V13.3333C53.3337 11.8667 52.1337 10.6667 50.667 10.6667ZM29.3337 13.3333C27.867 13.3333 26.667 14.5333 26.667 16V24H29.3337V16H33.3337H37.3337V13.3333H29.3337ZM29.3337 30.6667V34.6667H37.3337V37.3333H29.3337C27.867 37.3333 26.667 36.1333 26.667 34.6667V26.6667H29.3337V30.6667ZM48.0003 34.6667H44.0003H40.0003V37.3333H48.0003C49.467 37.3333 50.667 36.1333 50.667 34.6667V26.6667H48.0003V34.6667ZM36.6836 22.5333H41.3337V24.4H36.1687C36.1456 24.6178 36.1337 24.8402 36.1337 25.0667C36.1337 25.2471 36.1412 25.425 36.156 25.6H41.3337V27.4667H36.6231C37.3597 29.1486 38.848 30.2667 40.5337 30.2667C41.7337 30.2667 42.8003 29.7333 43.6003 28.8L45.3337 30.4C44.0003 31.7333 42.4003 32.5333 40.5337 32.5333C37.494 32.5333 34.9488 30.391 33.999 27.4667H32.0003V25.6H33.6271C33.6094 25.38 33.6003 25.1577 33.6003 24.9333C33.6003 24.7542 33.6063 24.5764 33.6181 24.4H32.0003V22.5333H33.97C34.9148 19.541 37.5544 17.3333 40.5337 17.3333C42.4003 17.3333 44.1337 18.1333 45.3337 19.4667L43.6003 21.3333C42.8003 20.4 41.7337 19.8667 40.5337 19.8667C38.893 19.8667 37.4393 20.9259 36.6836 22.5333Z" fill="#23282A"/>
</svg>
