<svg viewBox="0 0 80 48" fill="none" xmlns="http://www.w3.org/2000/svg">
<path fill-rule="evenodd" clip-rule="evenodd" d="M50.667 10.6667H42.667V13.3333H46.667H50.667V17.3333V21.3333H53.3337V13.3333C53.3337 11.8667 52.1337 10.6667 50.667 10.6667ZM29.3337 13.3333C27.867 13.3333 26.667 14.5333 26.667 16V24H29.3337V16H33.3337H37.3337V13.3333H29.3337ZM29.3337 30.6667V34.6667H37.3337V37.3333H29.3337C27.867 37.3333 26.667 36.1333 26.667 34.6667V26.6667H29.3337V30.6667ZM48.0003 34.6667H44.0003H40.0003V37.3333H48.0003C49.467 37.3333 50.667 36.1333 50.667 34.6667V26.6667H48.0003V34.6667ZM37.467 23.3333C37.7337 23.7333 38.267 23.8667 38.9337 24C38.9901 24.0188 39.0473 24.0377 39.105 24.0567L39.1053 24.0568C39.865 24.3071 40.7236 24.5899 41.467 25.3333C42.267 26 42.667 27.0667 42.667 28.1333C42.667 29.2 42.267 30.2667 41.467 30.9333C40.9826 31.337 40.4492 31.643 39.867 31.8215V33.3333H37.467V31.8133C36.8848 31.6222 36.3514 31.2844 35.867 30.8C35.067 30.1333 34.667 29.2 34.667 28.1333H37.067C37.067 28.4 37.2003 28.8 37.467 29.0667C38.0003 29.6 39.067 29.6 39.7337 29.0667C40.0003 28.8 40.1337 28.4 40.1337 28C40.1337 27.6 40.0003 27.2 39.7337 26.9333C39.467 26.6667 39.067 26.5333 38.4003 26.4C38.3285 26.3761 38.2556 26.3521 38.1817 26.3279C37.4338 26.0822 36.5951 25.8068 35.867 25.2C35.067 24.5333 34.667 23.6 34.667 22.5333C34.667 21.4667 35.067 20.4 35.867 19.7333C36.3435 19.2966 36.8909 18.9899 37.467 18.8132V17.3333H39.867V18.8132C40.4431 18.9899 40.9905 19.2966 41.467 19.7333C42.267 20.4 42.667 21.3333 42.667 22.4H40.1337C40.1337 22.1333 40.0003 21.7333 39.7337 21.4667C39.2003 20.9333 38.1337 20.9333 37.467 21.4667C37.2003 21.7333 37.067 22 37.067 22.4C37.067 22.6667 37.2003 23.0667 37.467 23.3333Z" fill="#23282A"/>
</svg>
