<svg viewBox="0 0 80 48" fill="none" xmlns="http://www.w3.org/2000/svg">
<path d="M38.304 25.3867V31.2834H36.4326V16.722H41.3936C42.6509 16.722 43.7231 17.1411 44.6003 17.9793C45.4969 18.8175 45.9453 19.8409 45.9453 21.0495C45.9453 22.2873 45.4969 23.3107 44.6003 24.1392C43.7328 24.9676 42.6607 25.377 41.3936 25.377H38.304V25.3867ZM38.304 18.5154V23.5934H41.4326C42.1734 23.5934 42.7971 23.3399 43.2845 22.8429C43.7815 22.3458 44.0349 21.7415 44.0349 21.0592C44.0349 20.3867 43.7815 19.7922 43.2845 19.2951C42.7971 18.7785 42.1831 18.5251 41.4326 18.5251H38.304V18.5154Z" fill="#3C4043"/>
<path d="M50.8382 20.9911C52.2222 20.9911 53.3138 21.3614 54.113 22.1022C54.9123 22.8429 55.3119 23.8566 55.3119 25.1431V31.2834H53.5282V29.8994H53.4503C52.6803 31.0398 51.6472 31.6051 50.3606 31.6051C49.2592 31.6051 48.3431 31.2834 47.6023 30.6304C46.8616 29.9774 46.4912 29.1684 46.4912 28.1938C46.4912 27.1606 46.8811 26.3419 47.6608 25.7376C48.4405 25.1236 49.4834 24.8215 50.7797 24.8215C51.8908 24.8215 52.807 25.0261 53.5185 25.4355V25.0066C53.5185 24.3536 53.2651 23.8078 52.7485 23.3497C52.2319 22.8916 51.6277 22.6675 50.9357 22.6675C49.8928 22.6675 49.0643 23.1061 48.46 23.993L46.8128 22.9599C47.7193 21.6441 49.0643 20.9911 50.8382 20.9911ZM48.421 28.223C48.421 28.7103 48.6257 29.1197 49.0448 29.4413C49.4542 29.763 49.9415 29.9287 50.4971 29.9287C51.2865 29.9287 51.9883 29.6363 52.6023 29.0515C53.2164 28.4667 53.5282 27.7844 53.5282 26.995C52.9434 26.5369 52.1345 26.3029 51.0916 26.3029C50.3314 26.3029 49.6978 26.4881 49.191 26.8488C48.6744 27.2289 48.421 27.687 48.421 28.223Z" fill="#3C4043"/>
<path d="M65.4874 21.3126L59.2496 35.6596H57.3197L59.6394 30.6401L55.5264 21.3126H57.5634L60.5264 28.4666H60.5654L63.4503 21.3126H65.4874Z" fill="#3C4043"/>
<path d="M30.8606 24.1981C30.8606 23.5879 30.806 23.0041 30.7046 22.4427H22.8606V25.6591L27.3781 25.6601C27.1949 26.7302 26.6052 27.6425 25.7017 28.2507V30.3374H28.3908C29.961 28.8842 30.8606 26.7361 30.8606 24.1981Z" fill="#4285F4"/>
<path d="M25.7028 28.2503C24.9542 28.7552 23.9903 29.0505 22.8626 29.0505C20.6843 29.0505 18.8363 27.5827 18.1745 25.6041H15.4006V27.7561C16.7749 30.4832 19.5995 32.3546 22.8626 32.3546C25.118 32.3546 27.0127 31.6129 28.3919 30.3361L25.7028 28.2503Z" fill="#34A853"/>
<path d="M17.9133 24.0077C17.9133 23.4521 18.0059 22.9151 18.1745 22.4102V20.2581H15.4006C14.8324 21.3858 14.5127 22.6587 14.5127 24.0077C14.5127 25.3566 14.8334 26.6295 15.4006 27.7572L18.1745 25.6051C18.0059 25.1003 17.9133 24.5632 17.9133 24.0077Z" fill="#FABB05"/>
<path d="M22.8626 18.9641C24.0936 18.9641 25.196 19.3881 26.0663 20.2165L28.4494 17.8354C27.002 16.4875 25.1151 15.66 22.8626 15.66C19.6004 15.66 16.7749 17.5313 15.4006 20.2584L18.1745 22.4105C18.8363 20.4319 20.6843 18.9641 22.8626 18.9641Z" fill="#E94235"/>
</svg>
