<svg viewBox="0 0 80 48" fill="none" xmlns="http://www.w3.org/2000/svg">
<path fill-rule="evenodd" clip-rule="evenodd" d="M49.2781 17.3333L39.6485 25.7333L30.0189 17.3333V29.3333H39.6485V32H27.6115V13.3333H51.6855V20.9333C51.0837 20.8 50.4818 20.6667 49.88 20.6667H49.2781V17.3333ZM39.6485 22.2667L46.9911 16H32.3059L39.6485 22.2667ZM52.5281 34.8C51.8059 35.7333 50.8429 36.2667 49.7596 36.2667C48.4492 36.2667 47.2709 35.4376 46.5442 34.1333H50.4818V32.2667H45.8916C45.8235 31.883 45.7874 31.4815 45.7874 31.0667L50.4818 31.0667V29.2H46.0469C46.6212 27.2253 48.0822 25.8667 49.7596 25.8667C50.8429 25.8667 51.8059 26.4 52.5281 27.3333L54.093 25.6C53.0096 24.2667 51.4448 23.4667 49.7596 23.4667C46.9126 23.4667 44.4091 25.9404 43.7003 29.2H42.0559V31.0667L43.5004 31.0667C43.5004 31.474 43.5272 31.8749 43.5791 32.2667H42.0559V34.1333H44.0357C45.0037 36.7812 47.1852 38.6667 49.7596 38.6667C51.4448 38.6667 52.8892 37.8667 54.093 36.5333L52.5281 34.8Z" fill="#23282A"/>
</svg>
