<svg width="80" height="48" viewBox="0 0 80 48" fill="none" xmlns="http://www.w3.org/2000/svg">
<path fill-rule="evenodd" clip-rule="evenodd" d="M26.8667 13.3333V33.3467H43.76C43.2933 32.6267 42.9333 31.8133 42.7333 30.9467H29.2667V17.2667L40 27.1067L50.7333 17.2667V21.52C51.5733 21.5733 52.3867 21.7733 53.1333 22.08V13.3333H26.8667ZM40 23.84L31.1467 15.7333H48.8533L40 23.84ZM50.2933 26.24C50.7067 26.2933 51.2267 26.4667 51.6133 26.76L53.0667 24.8533C52.28 24.2533 51.3467 23.9467 50.5867 23.8533C49.5867 23.7333 48.6 23.9467 47.72 24.44C46.8533 24.9333 46.1333 25.6933 45.6533 26.6C45.4667 26.9467 45.32 27.32 45.2 27.6933H44.28V29.2933H44.9333C44.9333 29.4667 44.9333 29.64 44.9333 29.8133H44.28V31.4133H45.2C45.32 31.8133 45.48 32.2 45.68 32.5733C46.1733 33.48 46.88 34.2267 47.76 34.72C48.64 35.2133 49.64 35.4133 50.6267 35.28C51.3867 35.1733 52.16 34.9333 53.0133 34.4L51.7333 32.36C51.1733 32.7067 50.7333 32.84 50.3067 32.8933C49.3733 33.0133 48.36 32.5067 47.7733 31.4267H50.1467V29.84H47.3067C47.3067 29.6533 47.3067 29.48 47.3067 29.3067H50.1333V27.72H47.7467C48.32 26.64 49.3333 26.12 50.2533 26.24H50.2933Z" fill="#3F4447"/>
</svg>
