<svg viewBox="0 0 80 48" fill="none" xmlns="http://www.w3.org/2000/svg">
<path fill-rule="evenodd" clip-rule="evenodd" d="M45.8003 30.4666C45.8337 30.5333 45.867 30.6 45.867 30.6666L46.267 31.4666C46.3337 31.5333 46.4003 31.6333 46.467 31.7333C46.5337 31.8333 46.6003 31.9333 46.667 32H26.667V13.3333H53.3337V20H50.667V17.3333L40.0003 25.6L29.3337 17.3333V29.2H45.467C45.467 29.6 45.6003 30 45.7337 30.2666C45.7337 30.3333 45.767 30.4 45.8003 30.4666ZM40.0003 22.2666L48.1337 16H31.867L40.0003 22.2666ZM50.8003 28.6667C51.067 29.0667 51.6003 29.2 52.267 29.3333C52.3655 29.3662 52.466 29.399 52.568 29.4323L52.568 29.4323L52.568 29.4323C53.2948 29.6697 54.0988 29.9323 54.8003 30.4C55.6003 31.0667 56.0003 32.1333 56.0003 33.2C56.0003 34.2667 55.6003 35.3333 54.8003 36C54.3159 36.4037 53.7826 36.7096 53.2003 36.8881V38.6667H50.8003V36.8881C50.2181 36.7096 49.6848 36.4037 49.2003 36C48.4003 35.3333 48.0003 34.4 48.0003 33.3333H50.4003C50.4003 33.6 50.5337 34 50.8003 34.2667C51.3337 34.8 52.4003 34.8 53.067 34.2667C53.3337 34 53.467 33.6 53.467 33.2C53.467 32.8 53.3337 32.4 53.067 32.1333C52.8003 31.8667 52.4003 31.7333 51.7337 31.6C51.6618 31.5761 51.5889 31.5521 51.5151 31.5279C50.7671 31.2822 49.9285 31.0068 49.2003 30.4C48.4003 29.7333 48.0003 28.6667 48.0003 27.7333C48.0003 26.8 48.4003 25.7333 49.2003 25.0667C49.6768 24.6299 50.2242 24.3232 50.8003 24.1466V22.6667H53.2003V24.1466C53.7764 24.3232 54.3239 24.6299 54.8003 25.0667C55.6003 25.7333 56.0003 26.6667 56.0003 27.7333H53.467C53.467 27.4667 53.3337 27.0667 53.067 26.8C52.5337 26.2667 51.467 26.2667 50.8003 26.8C50.5337 27.0667 50.4003 27.3333 50.4003 27.7333C50.4003 28 50.5337 28.4 50.8003 28.6667Z" fill="#23282A"/>
</svg>
