<svg viewBox="0 0 80 48" fill="none" xmlns="http://www.w3.org/2000/svg">
<rect width="80" height="48" rx="4" fill="#FFB3C7"/>
<rect x="0.5" y="0.5" width="79" height="47" rx="3.5" stroke="black" stroke-opacity="0.2"/>
<path d="M21.8546 17.7241H19.0973C19.0973 19.9961 18.0586 22.0694 16.2534 23.4351L15.1653 24.2545L19.394 30.04H22.8685L18.9736 24.7139C20.816 22.8764 21.8546 20.3934 21.8546 17.7241Z" fill="black"/>
<path d="M14.8192 17.7241H12V30.04H14.8192V17.7241Z" fill="black"/>
<path d="M26.343 17.7241H23.6846V30.04H26.343V17.7241Z" fill="black"/>
<path d="M49.663 21.2872C48.6491 21.2872 47.6847 21.5976 47.0417 22.4791V21.5231H44.5193V30.0399H47.0788V25.5705C47.0788 24.2793 47.9443 23.6461 48.983 23.6461C50.0958 23.6461 50.7388 24.3165 50.7388 25.558V30.0523H53.2735V24.6269C53.2735 22.6405 51.7032 21.2872 49.663 21.2872Z" fill="black"/>
<path d="M34.3803 21.5231V22.0694C33.6631 21.5728 32.7976 21.2872 31.8579 21.2872C29.3849 21.2872 27.3818 23.2985 27.3818 25.7815C27.3818 28.2646 29.3849 30.2758 31.8579 30.2758C32.7976 30.2758 33.6631 29.9903 34.3803 29.4937V30.0399H36.9151V21.5231H34.3803ZM32.0681 27.9666C30.7945 27.9666 29.7682 26.9858 29.7682 25.7815C29.7682 24.5772 30.7945 23.5965 32.0681 23.5965C33.3417 23.5965 34.3679 24.5772 34.3679 25.7815C34.3679 26.9858 33.3417 27.9666 32.0681 27.9666Z" fill="black"/>
<path d="M40.8471 22.6281V21.5232H38.2505V30.04H40.8595V26.0671C40.8595 24.7263 42.3061 24.0062 43.3077 24.0062C43.32 24.0062 43.3324 24.0062 43.3324 24.0062V21.5232C42.3061 21.5232 41.354 21.9701 40.8471 22.6281Z" fill="black"/>
<path d="M61.1623 21.5231V22.0694C60.4451 21.5728 59.5796 21.2872 58.6399 21.2872C56.1669 21.2872 54.1638 23.2985 54.1638 25.7815C54.1638 28.2646 56.1669 30.2758 58.6399 30.2758C59.5796 30.2758 60.4451 29.9903 61.1623 29.4937V30.0399H63.6971V21.5231H61.1623ZM58.8501 27.9666C57.5765 27.9666 56.5502 26.9858 56.5502 25.7815C56.5502 24.5772 57.5765 23.5965 58.8501 23.5965C60.1236 23.5965 61.1499 24.5772 61.1499 25.7815C61.1623 26.9858 60.1236 27.9666 58.8501 27.9666Z" fill="black"/>
<path d="M65.6628 21.7714C65.6628 21.6473 65.5763 21.5728 65.4403 21.5728H65.2053V22.2184H65.3166V21.9825H65.4403L65.5392 22.2184H65.6628L65.5515 21.9577C65.6257 21.9204 65.6628 21.8583 65.6628 21.7714ZM65.4403 21.8707H65.3166V21.6721H65.4403C65.5144 21.6721 65.5515 21.7094 65.5515 21.7714C65.5515 21.8335 65.5268 21.8707 65.4403 21.8707Z" fill="black"/>
<path d="M65.4032 21.2997C65.0694 21.2997 64.7974 21.5728 64.7974 21.908C64.8097 22.2432 65.0694 22.5164 65.4032 22.5164C65.7371 22.5164 66.0091 22.2432 66.0091 21.908C66.0091 21.5728 65.7371 21.2997 65.4032 21.2997ZM65.4032 22.4046C65.1312 22.4046 64.921 22.1812 64.921 21.908C64.921 21.6349 65.1436 21.4114 65.4032 21.4114C65.6753 21.4114 65.8855 21.6349 65.8855 21.908C65.8855 22.1812 65.6629 22.4046 65.4032 22.4046Z" fill="black"/>
<path d="M66.4049 27.0231C65.527 27.0231 64.8098 27.7432 64.8098 28.6247C64.8098 29.5061 65.527 30.2262 66.4049 30.2262C67.2828 30.2262 67.9999 29.5061 67.9999 28.6247C67.9999 27.7308 67.2828 27.0231 66.4049 27.0231Z" fill="black"/>
</svg>
