<svg viewBox="0 0 80 48" fill="none" xmlns="http://www.w3.org/2000/svg">
<path d="M68.5301 14.6764C68.5301 14.3644 68.4068 14.0652 68.1873 13.8446C67.9678 13.6239 67.67 13.5 67.3596 13.5C67.2052 13.4989 67.0521 13.5285 66.9091 13.5871C66.7661 13.6457 66.6361 13.7322 66.5265 13.8415C66.4169 13.9509 66.3299 14.0809 66.2706 14.2242C66.2112 14.3675 66.1807 14.5212 66.1807 14.6764V18.1885H68.5301V14.6764Z" fill="#ED7074"/>
<path d="M72.2858 21.0698C72.597 21.0698 72.8956 20.9462 73.1164 20.7258C73.3373 20.5054 73.4625 20.2062 73.4647 19.8934C73.4625 19.5807 73.3373 19.2815 73.1164 19.0611C72.8956 18.8407 72.597 18.717 72.2858 18.717H68.7998V21.0698H72.2858Z" fill="#5CBCAB"/>
<path d="M68.5301 18.7266H66.1807C66.1818 19.0355 66.2434 19.3413 66.3621 19.6263C66.4808 19.9113 66.6541 20.1701 66.8723 20.3877C67.0905 20.6054 67.3492 20.7778 67.6336 20.895C67.918 21.0122 68.2227 21.0719 68.5301 21.0708V18.7266Z" fill="#1B2543"/>
<path d="M7.55214 20.3801H6V27.123H10.9194V25.8529H7.55214V20.3801Z" fill="#1B2543"/>
<path d="M15.6815 22.3565C15.2502 22.1377 14.7737 22.0237 14.2906 22.0237C13.8074 22.0237 13.3309 22.1377 12.8996 22.3565C12.4806 22.5824 12.1329 22.9217 11.8961 23.3361C11.6592 23.7504 11.5426 24.2232 11.5595 24.7007C11.5512 25.1861 11.6775 25.6643 11.9242 26.0817C12.1688 26.4927 12.5288 26.8219 12.9589 27.0279C13.4382 27.267 13.9676 27.3868 14.5026 27.3775C14.8982 27.4036 15.2946 27.3406 15.6629 27.1931C16.0312 27.0457 16.3621 26.8174 16.6315 26.525L15.8342 25.6725C15.6692 25.8376 15.4731 25.968 15.2575 26.0561C15.0271 26.1426 14.7823 26.1832 14.5365 26.1755C14.1904 26.1839 13.8501 26.0858 13.5611 25.8942C13.3057 25.7148 13.1293 25.4428 13.0692 25.1355H16.9708C16.9708 24.8911 16.9708 24.7547 16.9708 24.7263C16.9798 24.2322 16.8599 23.7443 16.623 23.3112C16.4055 22.9098 16.079 22.5786 15.6815 22.3565ZM13.0437 24.2489C13.0801 23.9402 13.2317 23.6569 13.4678 23.4561C13.7074 23.2614 14.008 23.1587 14.316 23.1663C14.6254 23.1588 14.927 23.2648 15.1642 23.4647C15.3991 23.6628 15.5506 23.943 15.5882 24.2489H13.0437Z" fill="#1B2543"/>
<path d="M21.5618 22.0334C21.231 22.0293 20.9025 22.0901 20.5949 22.2124C20.3144 22.3222 20.0622 22.4941 19.857 22.7154V22.1101H18.4236V27.2931H19.9164V24.7357C19.8943 24.3584 20.0155 23.9866 20.2556 23.6957C20.3721 23.576 20.5123 23.4822 20.6672 23.4205C20.8221 23.3588 20.9882 23.3306 21.1547 23.3377C21.2988 23.3318 21.4425 23.3561 21.5768 23.4089C21.7111 23.4617 21.8331 23.542 21.935 23.6446C22.1335 23.9082 22.23 24.2354 22.2064 24.5652V27.3101H23.6992V24.3265C23.7213 24.0173 23.6809 23.7068 23.5803 23.4138C23.4797 23.1208 23.3211 22.8513 23.1139 22.6216C22.9067 22.4253 22.6629 22.2723 22.3964 22.1713C22.13 22.0704 21.8463 22.0235 21.5618 22.0334Z" fill="#1B2543"/>
<path d="M29.2871 22.4386C29.0914 22.2264 28.8518 22.0599 28.585 21.9509C28.3183 21.8419 28.031 21.7931 27.7435 21.8078C27.2818 21.8066 26.8271 21.9208 26.4203 22.1403C26.0274 22.355 25.7059 22.6811 25.4959 23.078C25.2786 23.5147 25.1655 23.9963 25.1655 24.4845C25.1655 24.9728 25.2786 25.4544 25.4959 25.8911C25.7059 26.288 26.0274 26.6141 26.4203 26.8288C26.8271 27.0483 27.2818 27.1625 27.7435 27.1613C28.0462 27.1795 28.3489 27.1274 28.6284 27.0092C28.9078 26.8909 29.1564 26.7096 29.355 26.4793V27.0845H30.7799V19.9239H29.2871V22.4386ZM28.9394 25.5331C28.6886 25.7819 28.3504 25.9214 27.9979 25.9214C27.6455 25.9214 27.3073 25.7819 27.0565 25.5331C26.9253 25.3939 26.8243 25.2288 26.7601 25.0483C26.6958 24.8678 26.6697 24.6758 26.6833 24.4845C26.6724 24.2948 26.6998 24.1049 26.7639 23.9261C26.8281 23.7474 26.9276 23.5836 27.0565 23.4445C27.1803 23.319 27.3276 23.2194 27.4899 23.1514C27.6522 23.0834 27.8263 23.0484 28.0022 23.0484C28.178 23.0484 28.3521 23.0834 28.5145 23.1514C28.6768 23.2194 28.8241 23.319 28.9479 23.4445C29.0752 23.5847 29.1736 23.7487 29.2377 23.9271C29.3017 24.1056 29.3301 24.295 29.3211 24.4845C29.3315 24.6762 29.3031 24.868 29.2375 25.0482C29.1719 25.2285 29.0704 25.3934 28.9394 25.5331Z" fill="#1B2543"/>
<path d="M34.1556 22.1191H32.6628V27.3106H34.1556V22.1191Z" fill="#1B2543"/>
<path d="M32.8257 19.7363C32.6778 19.8944 32.5955 20.1032 32.5955 20.3202C32.5955 20.5372 32.6778 20.746 32.8257 20.9041C32.9825 21.0503 33.1885 21.1316 33.4024 21.1316C33.6164 21.1316 33.8224 21.0503 33.9792 20.9041C34.0554 20.8271 34.1151 20.7351 34.1545 20.634C34.1939 20.5328 34.2122 20.4245 34.2082 20.3159C34.2075 20.1006 34.1256 19.8935 33.9792 19.7363C33.8224 19.5901 33.6164 19.5089 33.4024 19.5089C33.1885 19.5089 32.9825 19.5901 32.8257 19.7363Z" fill="#1B2543"/>
<path d="M38.656 24.4032C38.3167 24.3095 37.9689 24.2327 37.6212 24.1731C37.3336 24.1399 37.0496 24.0799 36.773 23.994C36.6991 23.9734 36.6341 23.9287 36.5881 23.867C36.5421 23.8054 36.5176 23.7301 36.5186 23.6531C36.5218 23.5783 36.5457 23.506 36.5877 23.4442C36.6296 23.3825 36.688 23.3337 36.7561 23.3036C36.9832 23.205 37.2301 23.1612 37.477 23.1757C37.9968 23.1692 38.5091 23.3015 38.9613 23.5593L39.5041 22.4852C39.2376 22.3366 38.9523 22.2248 38.656 22.1527C38.2993 22.0747 37.9354 22.0347 37.5703 22.0334C37.1339 22.023 36.6994 22.0953 36.2896 22.2465C35.9556 22.3548 35.6606 22.5593 35.4414 22.8347C35.2597 23.082 35.159 23.3798 35.153 23.6872C35.1423 23.8506 35.1637 24.0145 35.2161 24.1695C35.2685 24.3246 35.3508 24.4677 35.4584 24.5908C35.6544 24.8013 35.9035 24.9545 36.1793 25.034C36.5211 25.134 36.8698 25.2081 37.2226 25.2557C37.4928 25.2841 37.7598 25.3384 38.0198 25.4177C38.0916 25.4363 38.1554 25.478 38.2014 25.5365C38.2473 25.595 38.2729 25.6671 38.2743 25.7416C38.2743 26.057 37.9605 26.2104 37.3243 26.2104C37.0003 26.2076 36.678 26.1617 36.3659 26.074C36.0675 25.9924 35.782 25.869 35.5178 25.7075L35.0173 26.7901C35.3174 26.9786 35.6473 27.1141 35.9927 27.1908C36.4022 27.3001 36.8243 27.3546 37.248 27.3527C37.6947 27.3619 38.1396 27.2927 38.5627 27.1481C38.8941 27.0348 39.1877 26.8311 39.4108 26.5599C39.5967 26.3149 39.698 26.0156 39.6992 25.7075C39.7075 25.3964 39.6019 25.093 39.4023 24.855C39.2013 24.6363 38.9424 24.4796 38.656 24.4032Z" fill="#1B2543"/>
<path d="M47.5546 22.0332C47.1898 22.0336 46.829 22.109 46.4944 22.2549C46.1664 22.3915 45.8756 22.6049 45.6462 22.8772C45.4706 22.6054 45.2241 22.3872 44.9338 22.2464C44.6267 22.0995 44.2899 22.0265 43.9499 22.0332C43.6364 22.0296 43.3253 22.0875 43.0339 22.2037C42.7636 22.3143 42.5226 22.4865 42.3299 22.7067V22.11H40.9644V27.2929H42.4656V24.7355C42.4371 24.3709 42.5461 24.0088 42.7709 23.7211C42.8773 23.6028 43.0087 23.51 43.1555 23.4495C43.3023 23.389 43.4607 23.3624 43.6191 23.3716C44.2722 23.3716 44.603 23.7808 44.603 24.5991V27.2929H46.0533V24.7355C46.0249 24.3709 46.1339 24.0088 46.3587 23.7211C46.4654 23.6033 46.5969 23.5108 46.7436 23.4503C46.8903 23.3899 47.0485 23.363 47.2068 23.3716C47.342 23.3672 47.4764 23.3924 47.6009 23.4454C47.7254 23.4984 47.8369 23.5779 47.9278 23.6785C48.1162 23.9464 48.2062 24.2719 48.1822 24.5991V27.3441H49.6835V24.3264C49.7044 24.018 49.6642 23.7085 49.5652 23.4158C49.4662 23.1231 49.3103 22.8531 49.1067 22.6214C48.9024 22.4211 48.659 22.2654 48.3919 22.1642C48.1247 22.063 47.8397 22.0184 47.5546 22.0332Z" fill="#1B2543"/>
<path d="M55.6194 22.6546C55.4237 22.4423 55.184 22.2758 54.9173 22.1668C54.6506 22.0578 54.3633 22.009 54.0758 22.0238C53.6141 22.0225 53.1594 22.1368 52.7526 22.3562C52.3597 22.5709 52.0382 22.897 51.8281 23.2939C51.6109 23.7307 51.4978 24.2122 51.4978 24.7005C51.4978 25.1887 51.6109 25.6703 51.8281 26.107C52.0382 26.5039 52.3597 26.83 52.7526 27.0447C53.1594 27.2642 53.6141 27.3784 54.0758 27.3772C54.3784 27.3954 54.6812 27.3433 54.9606 27.2251C55.2401 27.1068 55.4887 26.9255 55.6873 26.6952V27.3005H57.1207V22.109H55.6194V22.6546ZM55.2802 25.749C55.0279 25.9984 54.6883 26.1381 54.3345 26.1381C53.9806 26.1381 53.641 25.9984 53.3887 25.749C53.142 25.4576 53.0064 25.0874 53.0064 24.7047C53.0064 24.3221 53.142 23.9519 53.3887 23.6605C53.6395 23.4116 53.9778 23.2721 54.3302 23.2721C54.6826 23.2721 55.0209 23.4116 55.2717 23.6605C55.5185 23.9519 55.654 24.3221 55.654 24.7047C55.654 25.0874 55.5185 25.4576 55.2717 25.749H55.2802Z" fill="#1B2543"/>
<path d="M60.4108 22.7922V22.1102H58.9858V27.3017H60.4786V24.8211C60.4651 24.6253 60.4904 24.4288 60.553 24.243C60.6156 24.0572 60.7143 23.8857 60.8433 23.7384C60.9794 23.6143 61.1388 23.5187 61.3121 23.4573C61.4854 23.3958 61.6692 23.3697 61.8526 23.3804C61.9656 23.3743 62.0789 23.3743 62.1919 23.3804V22.0335C61.8292 22.0358 61.471 22.1142 61.1402 22.2637C60.8514 22.3654 60.5981 22.549 60.4108 22.7922Z" fill="#1B2543"/>
<path d="M65.9508 25.8657C65.7737 25.9947 65.5588 26.0607 65.3401 26.0532C65.2529 26.0588 65.1654 26.0457 65.0836 26.0149C65.0017 25.984 64.9273 25.9361 64.8652 25.8742C64.7481 25.7342 64.6902 25.5536 64.704 25.3713V23.2572H65.9848V22.1404H64.704V20.8362H63.2112V25.3883C63.1915 25.6424 63.2259 25.8978 63.3122 26.1374C63.3984 26.377 63.5347 26.5954 63.7117 26.7778C64.1065 27.1176 64.6179 27.2889 65.1366 27.2552C65.3624 27.2526 65.5872 27.224 65.8066 27.17C66.0002 27.1265 66.1823 27.0423 66.341 26.9227L65.9508 25.8657Z" fill="#1B2543"/>
</svg>
