<svg viewBox="0 0 80 48" fill="none" xmlns="http://www.w3.org/2000/svg">
<path d="M45.5969 30.7289H34.405V10.6158H45.5969V30.7289Z" fill="#6C6BBD"/>
<path d="M35.1156 20.7321C35.1156 16.671 37.0259 13.0535 40.0007 10.7223C37.8253 9.01752 35.0798 8.00001 32.096 8.00001C25.0322 8.00001 19.3062 13.7003 19.3062 20.7321C19.3062 27.764 25.0322 33.4642 32.096 33.4642C35.0798 33.4642 37.8253 32.4467 40.0007 30.742C37.0259 28.4107 35.1156 24.7932 35.1156 20.7321Z" fill="#D32011"/>
<path d="M60.6962 20.7321C60.6962 27.764 54.9701 33.4642 47.9063 33.4642C44.9225 33.4642 42.177 32.4467 40.0007 30.742C42.9764 28.4107 44.8867 24.7932 44.8867 20.7321C44.8867 16.671 42.9764 13.0535 40.0007 10.7223C42.177 9.01752 44.9225 8.00001 47.9063 8.00001C54.9701 8.00001 60.6962 13.7003 60.6962 20.7321Z" fill="#0099DF"/>
<path d="M49.3841 36.4123C49.5329 36.4123 49.7468 36.4408 49.9102 36.505L49.6825 37.2011C49.5264 37.1369 49.3702 37.1158 49.2206 37.1158C48.7375 37.1158 48.496 37.428 48.496 37.9892V39.8938H47.7568V36.4977H48.4887V36.91C48.6806 36.6115 48.9579 36.4123 49.3841 36.4123ZM46.6532 37.1727H45.4455V38.7073C45.4455 39.048 45.5659 39.2757 45.9359 39.2757C46.1278 39.2757 46.3694 39.2115 46.5889 39.0838L46.802 39.7157C46.5678 39.8792 46.1986 39.9792 45.879 39.9792C45.0047 39.9792 44.6998 39.5099 44.6998 38.7211V37.1727H44.0101V36.4977H44.6998V35.4673H45.4455V36.4977H46.6532V37.1727ZM37.196 37.8973C37.2749 37.4069 37.5725 37.0727 38.0987 37.0727C38.5744 37.0727 38.8802 37.3711 38.9583 37.8973H37.196ZM39.726 38.1957C39.7187 37.1369 39.0648 36.4123 38.1125 36.4123C37.1179 36.4123 36.4218 37.1369 36.4218 38.1957C36.4218 39.2749 37.1464 39.9784 38.1629 39.9784C38.6744 39.9784 39.1429 39.8507 39.5552 39.5026L39.1925 38.9553C38.9087 39.183 38.546 39.3107 38.2052 39.3107C37.7295 39.3107 37.296 39.0903 37.1895 38.4796H39.7113C39.7187 38.3869 39.726 38.295 39.726 38.1957ZM42.9724 37.3646C42.7667 37.2361 42.3479 37.0727 41.9144 37.0727C41.5094 37.0727 41.2679 37.2223 41.2679 37.4711C41.2679 37.698 41.5232 37.7623 41.8428 37.8046L42.1909 37.8542C42.9302 37.9615 43.3774 38.2738 43.3774 38.8707C43.3774 39.5173 42.809 39.9792 41.829 39.9792C41.2744 39.9792 40.7629 39.8369 40.3579 39.5384L40.7059 38.9626C40.9548 39.1546 41.3248 39.318 41.8363 39.318C42.3405 39.318 42.6105 39.1692 42.6105 38.9057C42.6105 38.7146 42.4186 38.6072 42.0136 38.5511L41.6656 38.5015C40.9052 38.3942 40.4929 38.0534 40.4929 37.4996C40.4929 36.8246 41.0475 36.4123 41.9071 36.4123C42.4471 36.4123 42.9375 36.5335 43.292 36.7677L42.9724 37.3646ZM52.0848 37.1141C51.9328 37.1141 51.7921 37.141 51.6611 37.1938C51.531 37.2475 51.418 37.3223 51.3228 37.4183C51.2277 37.5142 51.1529 37.6297 51.0984 37.7639C51.0439 37.8981 51.017 38.0461 51.017 38.2071C51.017 38.369 51.0439 38.5162 51.0984 38.6503C51.1529 38.7845 51.2277 38.9 51.3228 38.996C51.418 39.0919 51.531 39.1668 51.6611 39.2204C51.7921 39.2741 51.9328 39.3001 52.0848 39.3001C52.2369 39.3001 52.3784 39.2741 52.5085 39.2204C52.6395 39.1668 52.7533 39.0919 52.8485 38.996C52.9452 38.9 53.0201 38.7845 53.0754 38.6503C53.1298 38.5162 53.1567 38.369 53.1567 38.2071C53.1567 38.0461 53.1298 37.8981 53.0754 37.7639C53.0201 37.6297 52.9452 37.5142 52.8485 37.4183C52.7533 37.3223 52.6395 37.2475 52.5085 37.1938C52.3784 37.141 52.2369 37.1141 52.0848 37.1141ZM52.0848 36.4123C52.3483 36.4123 52.5923 36.4578 52.8167 36.5497C53.0412 36.6408 53.2356 36.7669 53.399 36.9271C53.5633 37.0873 53.691 37.2768 53.7837 37.4947C53.8764 37.7135 53.9228 37.951 53.9228 38.2071C53.9228 38.4633 53.8764 38.7008 53.7837 38.9195C53.691 39.1375 53.5633 39.3278 53.399 39.488C53.2356 39.6482 53.0412 39.7734 52.8167 39.8653C52.5923 39.9564 52.3483 40.002 52.0848 40.002C51.8213 40.002 51.5774 39.9564 51.3529 39.8653C51.1285 39.7734 50.9357 39.6482 50.7731 39.488C50.6104 39.3278 50.4827 39.1375 50.39 38.9195C50.2973 38.7008 50.251 38.4633 50.251 38.2071C50.251 37.951 50.2973 37.7135 50.39 37.4947C50.4827 37.2768 50.6104 37.0873 50.7731 36.9271C50.9357 36.7669 51.1285 36.6408 51.3529 36.5497C51.5774 36.4578 51.8213 36.4123 52.0848 36.4123ZM32.8793 38.1957C32.8793 37.5988 33.2704 37.1084 33.9097 37.1084C34.5204 37.1084 34.9327 37.5777 34.9327 38.1957C34.9327 38.8138 34.5204 39.2822 33.9097 39.2822C33.2704 39.2822 32.8793 38.7927 32.8793 38.1957ZM35.6289 38.1957V36.4977H34.8904V36.91C34.6554 36.6042 34.3008 36.4123 33.8178 36.4123C32.8655 36.4123 32.1197 37.158 32.1197 38.1957C32.1197 39.2326 32.8655 39.9792 33.8178 39.9792C34.3008 39.9792 34.6554 39.7873 34.8904 39.4815V39.8938H35.6289V38.1957ZM31.4659 39.8938V37.7623C31.4659 36.9596 30.9543 36.4196 30.1305 36.4123C29.6971 36.405 29.249 36.54 28.9367 37.0165C28.7025 36.64 28.3324 36.4123 27.8136 36.4123C27.4517 36.4123 27.0963 36.5188 26.819 36.9165V36.4977H26.0806V39.8938H26.8263V38.0111C26.8263 37.4215 27.1532 37.1084 27.6574 37.1084C28.1478 37.1084 28.3967 37.428 28.3967 38.0038V39.8938H29.1424V38.0111C29.1424 37.4215 29.484 37.1084 29.9736 37.1084C30.4786 37.1084 30.7201 37.428 30.7201 38.0038V39.8938H31.4659Z" fill="#110F0D"/>
</svg>
