<svg viewBox="0 0 80 48" fill="none" xmlns="http://www.w3.org/2000/svg">
<path d="M45.5971 13.9925H34.4053V34.01H45.5971V13.9925Z" fill="#FF5F00"/>
<path d="M35.1159 24.0035C35.1138 22.0754 35.5526 20.1721 36.399 18.4378C37.2454 16.7034 38.4772 15.1835 40.0012 13.993C38.1143 12.5172 35.8482 11.5994 33.462 11.3447C31.0758 11.0899 28.6657 11.5084 26.5071 12.5524C24.3486 13.5964 22.5287 15.2237 21.2555 17.2483C19.9823 19.273 19.3071 21.6133 19.3071 24.0018C19.3071 26.3903 19.9823 28.7306 21.2555 30.7552C22.5287 32.7799 24.3486 34.4072 26.5071 35.4511C28.6657 36.4951 31.0758 36.9136 33.462 36.6589C35.8482 36.4041 38.1143 35.4864 40.0012 34.0105C38.4777 32.8205 37.2462 31.3011 36.3998 29.5674C35.5534 27.8337 35.1144 25.9311 35.1159 24.0035Z" fill="#EB001B"/>
<path d="M60.6971 24.003C60.6971 26.3917 60.0217 28.7321 58.7483 30.7568C57.4749 32.7815 55.6547 34.4088 53.4959 35.4527C51.3371 36.4965 48.9268 36.9147 46.5405 36.6596C44.1541 36.4045 41.888 35.4863 40.0012 34.01C41.5241 32.8188 42.7553 31.299 43.6019 29.5652C44.4485 27.8314 44.8884 25.9289 44.8884 24.0012C44.8884 22.0735 44.4485 20.171 43.6019 18.4372C42.7553 16.7034 41.5241 15.1836 40.0012 13.9925C41.888 12.5162 44.1541 11.598 46.5405 11.3428C48.9268 11.0877 51.3371 11.506 53.4959 12.5498C55.6547 13.5936 57.4749 15.2209 58.7483 17.2456C60.0217 19.2703 60.6971 21.6108 60.6971 23.9995V24.003Z" fill="#F79E1B"/>
<path d="M59.4748 31.8884V31.4782H59.6418V31.3933H59.219V31.4782H59.4002V31.8884H59.4748ZM60.2955 31.8884V31.3933H60.1676L60.0184 31.7469L59.8692 31.3933H59.7555V31.8884H59.8479V31.5171L59.9864 31.8389H60.0824L60.2209 31.5171V31.8919L60.2955 31.8884Z" fill="#F79E1B"/>
</svg>
