<svg viewBox="0 0 80 48" fill="none" xmlns="http://www.w3.org/2000/svg">
<path d="M17.865 32.6764L17.7846 33.3059C17.7762 33.3734 17.7813 33.4419 17.7995 33.5075C17.8177 33.5731 17.8487 33.6344 17.8907 33.6879C17.9327 33.7415 17.9849 33.7862 18.0443 33.8194C18.1036 33.8527 18.169 33.8739 18.2366 33.8817H38.6964C38.765 33.8826 38.8331 33.87 38.8968 33.8446C38.9605 33.8191 39.0185 33.7814 39.0677 33.7335C39.1168 33.6856 39.156 33.6285 39.1831 33.5655C39.2101 33.5025 39.2245 33.4347 39.2254 33.3661C39.2271 33.345 39.2271 33.3237 39.2254 33.3025L39.1417 32.6731C39.1182 32.4375 39.1888 32.2023 39.3381 32.0185C39.4873 31.8348 39.7031 31.7175 39.9385 31.6921C40.0539 31.6796 40.1707 31.6899 40.2821 31.7225C40.3935 31.7551 40.4974 31.8093 40.5879 31.882C40.6784 31.9548 40.7537 32.0446 40.8094 32.1465C40.8651 32.2483 40.9003 32.3601 40.9128 32.4756L40.9931 33.0883C41.1505 34.4509 40.3771 35.6495 38.9843 35.6495H18.0123C16.6329 35.6495 15.8629 34.4509 16.0202 33.0883L16.1006 32.4756C16.1123 32.3607 16.1465 32.2494 16.2014 32.1478C16.2562 32.0462 16.3305 31.9565 16.4201 31.8837C16.5097 31.8109 16.6127 31.7566 16.7234 31.7237C16.834 31.6908 16.95 31.6801 17.0648 31.6921C17.3004 31.7183 17.5163 31.8363 17.6654 32.0206C17.8146 32.2049 17.8851 32.4405 17.8616 32.6764" fill="#FF0000"/>
<path d="M36.7143 27.9457C37.1567 27.9694 37.5906 27.8168 37.9207 27.5212C38.2508 27.2256 38.4503 26.8111 38.4753 26.3687C38.4769 26.3397 38.4769 26.3107 38.4753 26.2817C38.4552 25.3074 37.568 24.678 36.5803 24.6746H34.5816C34.3596 24.6746 34.1467 24.5865 33.9897 24.4295C33.8328 24.2725 33.7446 24.0596 33.7446 23.8376C33.7446 23.6156 33.8328 23.4028 33.9897 23.2458C34.1467 23.0888 34.3596 23.0006 34.5816 23.0006H35.9208C36.8214 22.9638 37.5144 22.4181 37.558 21.571C37.6015 20.657 36.8181 19.974 35.8639 19.974H32.623V27.9323H36.7143M39.1684 21.571C39.1698 21.9203 39.1016 22.2663 38.9676 22.5888C38.8337 22.9113 38.6367 23.2038 38.3883 23.4493L38.3381 23.5062L38.405 23.5464C38.8946 23.8186 39.3059 24.2123 39.5991 24.6897C39.8923 25.167 40.0576 25.7119 40.079 26.2716C40.0907 27.1556 39.7523 28.0083 39.1376 28.6437C38.5229 29.2791 37.6818 29.6456 36.798 29.6632H31.7759C31.5436 29.6597 31.322 29.5644 31.1596 29.3982C30.9971 29.232 30.907 29.0084 30.9088 28.776V19.2241C30.907 19.1069 30.9287 18.9906 30.9726 18.8819C31.0165 18.7733 31.0817 18.6745 31.1644 18.5915C31.2471 18.5085 31.3456 18.4429 31.4541 18.3986C31.5626 18.3543 31.6788 18.3321 31.796 18.3335H35.8639C36.7161 18.3101 37.5429 18.6259 38.1625 19.2116C38.7821 19.7973 39.1438 20.6049 39.1684 21.4572V21.5677" fill="#1D1D1B"/>
<path d="M23.2855 26.3955L23.3089 26.4625L23.3324 26.3955C23.56 25.7661 23.8379 25.0563 24.1292 24.3097C24.4205 23.5631 24.7318 22.7462 25.0298 22.0163C25.3278 21.2864 25.6191 20.6168 25.8936 20.041C26.0743 19.616 26.2987 19.2109 26.5632 18.8323C26.6921 18.6723 26.856 18.5441 27.0424 18.4576C27.2288 18.3711 27.4325 18.3286 27.6379 18.3335H27.8422C28.0743 18.3238 28.3023 18.3974 28.485 18.5411C28.6252 18.6573 28.7161 18.8224 28.7394 19.0031L30.015 28.8798C30.0202 28.9891 30.0036 29.0983 29.9663 29.2012C29.9289 29.3041 29.8715 29.3985 29.7974 29.4791C29.6247 29.6236 29.4027 29.6956 29.178 29.6799C28.9486 29.6928 28.7217 29.6266 28.5352 29.4924C28.4528 29.4362 28.3835 29.3628 28.3321 29.2773C28.2806 29.1917 28.2483 29.0961 28.2372 28.9969C28.1937 28.6621 28.1569 28.3039 28.1167 27.9021C28.0765 27.5004 27.8622 25.7828 27.8053 25.3442C27.7484 24.9057 27.3969 22.1101 27.273 21.0956V21.0086L26.8645 21.8657C26.7273 22.1603 26.5766 22.5118 26.4125 22.9236C26.2485 23.3354 26.0777 23.7707 25.9204 24.2327C25.763 24.6947 24.9528 26.9312 24.9528 26.9312C24.8792 27.1354 24.7385 27.5472 24.618 27.9356C24.4975 28.324 24.3736 28.6554 24.3435 28.7191C24.2053 28.9894 23.9655 29.1938 23.6767 29.2873C23.3879 29.3809 23.0738 29.3559 22.8034 29.2179C22.5833 29.1081 22.4039 28.931 22.2911 28.7124C22.2577 28.6487 22.1438 28.3072 22.0132 27.9289C21.8827 27.5506 21.7554 27.1421 21.6784 26.9245C21.6784 26.9245 20.8917 24.6679 20.7142 24.226C20.5368 23.7841 20.3794 23.3321 20.2221 22.9169C20.0647 22.5018 19.904 22.1536 19.7701 21.859L19.3583 21.0119V21.099C19.2344 22.1034 18.8795 24.9023 18.8226 25.3476C18.7657 25.7929 18.5581 27.4937 18.5112 27.8921C18.4643 28.2905 18.4275 28.6588 18.3873 28.9869C18.3763 29.0861 18.3439 29.1817 18.2925 29.2672C18.2411 29.3527 18.1718 29.4261 18.0894 29.4824C17.9038 29.6158 17.6782 29.682 17.4499 29.6699C17.2273 29.6849 17.0077 29.6129 16.8372 29.469C16.7631 29.3885 16.7057 29.2941 16.6683 29.1912C16.631 29.0883 16.6144 28.979 16.6196 28.8697L17.8784 19.0031C17.9076 18.8293 17.9993 18.6721 18.1362 18.5612C18.3156 18.4095 18.5442 18.3285 18.7791 18.3335H18.9833C19.1867 18.3285 19.3887 18.3699 19.5737 18.4546C19.7588 18.5393 19.9221 18.665 20.0513 18.8223C20.317 19.2001 20.5415 19.6053 20.7209 20.0309C20.9954 20.6068 21.2834 21.2652 21.5847 22.0063C21.886 22.7473 22.1873 23.5118 22.4887 24.2997C22.7799 25.0563 23.0545 25.7561 23.2821 26.3855" fill="#1D1D1B"/>
<path d="M20.7878 12.3606H36.2758C37.7355 12.3606 38.462 13.4554 38.6194 14.9018L38.6863 15.3638C38.7127 15.603 38.6434 15.8429 38.4934 16.0311C38.3435 16.2193 38.1252 16.3405 37.8862 16.3682C37.6516 16.3868 37.4192 16.3122 37.2393 16.1605C37.0594 16.0088 36.9466 15.7923 36.9253 15.558L36.8583 15.1127C36.7947 14.5636 36.5637 14.1384 36.0046 14.1384H21.0624C20.5032 14.1384 20.2722 14.5636 20.2053 15.1127L20.145 15.5513C20.1237 15.786 20.0103 16.0027 19.8296 16.1539C19.6489 16.3052 19.4155 16.3786 19.1808 16.3582C19.0622 16.3449 18.9475 16.3083 18.8431 16.2506C18.7387 16.1929 18.6467 16.1152 18.5724 16.0219C18.4981 15.9286 18.4429 15.8216 18.41 15.7069C18.3771 15.5923 18.3671 15.4723 18.3806 15.3538L18.4442 14.8917C18.6183 13.4487 19.3415 12.3506 20.7878 12.3506" fill="#FF0000"/>
<path d="M48.6433 22.773C48.5362 23.1848 48.4257 23.6267 48.3085 24.1122C48.1913 24.5977 48.0741 25.0329 47.9737 25.4514C47.8733 25.8699 47.7561 26.2516 47.6389 26.5763C47.5763 26.8073 47.491 27.0316 47.3844 27.2459C47.3188 27.3522 47.2248 27.438 47.113 27.4936C47.0011 27.5492 46.876 27.5724 46.7517 27.5607C46.6384 27.5578 46.526 27.541 46.4169 27.5104C46.3441 27.4884 46.2767 27.4514 46.219 27.4018C46.1614 27.3523 46.1147 27.2912 46.0821 27.2225C45.9761 26.9987 45.8909 26.7656 45.8276 26.5261C45.7272 26.1913 45.62 25.7829 45.4928 25.3309C45.3656 24.8789 45.2685 24.4035 45.158 23.8979C45.0475 23.3924 44.9404 22.9236 44.8533 22.4917C44.7663 22.0599 44.6859 21.6882 44.6257 21.3869C44.5654 21.0856 44.5319 20.9014 44.5219 20.8378C44.52 20.8122 44.52 20.7865 44.5219 20.7608V20.7173C44.5201 20.6574 44.5324 20.598 44.5581 20.5439C44.5837 20.4897 44.6218 20.4425 44.6692 20.4059C44.7718 20.3248 44.9001 20.2832 45.0308 20.2887C45.1486 20.2836 45.2652 20.3139 45.3656 20.3758C45.4622 20.448 45.527 20.5548 45.5464 20.6738C45.5464 20.6738 45.5665 20.7976 45.6067 21.0086C45.6468 21.2195 45.7037 21.4706 45.7674 21.782C45.831 22.0933 45.9046 22.4516 45.9816 22.8433C46.0586 23.235 46.1423 23.6334 46.2327 24.0352C46.3231 24.4369 46.4068 24.822 46.4939 25.2003C46.5809 25.5786 46.6579 25.9 46.7349 26.1712C46.8086 25.9168 46.8923 25.6255 46.9827 25.2974C47.0731 24.9693 47.1668 24.6278 47.2572 24.293C47.3476 23.9582 47.4313 23.5932 47.515 23.245C47.5987 22.8969 47.6757 22.5754 47.7494 22.2674C47.823 21.9594 47.88 21.7016 47.9335 21.4673C47.9871 21.2329 48.0273 21.0621 48.0574 20.9483C48.0912 20.8167 48.1663 20.6994 48.2717 20.6135C48.374 20.5206 48.5053 20.4662 48.6433 20.4595C48.7907 20.4527 48.9356 20.499 49.0518 20.5901C49.1559 20.6747 49.227 20.7932 49.2526 20.9249C49.343 21.2898 49.4301 21.705 49.5272 22.1603C49.6243 22.6156 49.7281 23.0743 49.8319 23.5397C49.9356 24.0051 50.0495 24.4637 50.1667 24.9124C50.2838 25.361 50.391 25.7561 50.5015 26.1009C50.5751 25.8297 50.6588 25.5083 50.7459 25.1333C50.8329 24.7584 50.9166 24.37 51.007 23.9682C51.0974 23.5665 51.1878 23.1781 51.2682 22.7864C51.3485 22.3947 51.4289 22.0431 51.4958 21.7317C51.5628 21.4204 51.6197 21.1659 51.6565 20.9717C51.6934 20.7776 51.7201 20.6704 51.7201 20.6637C51.7434 20.5471 51.8075 20.4426 51.9009 20.3691C52.001 20.3065 52.1179 20.2761 52.2357 20.2821C52.3673 20.2775 52.4964 20.3189 52.6007 20.3992C52.6475 20.4363 52.6852 20.4837 52.7107 20.5377C52.7363 20.5917 52.749 20.6509 52.748 20.7106V20.7541C52.7496 20.7809 52.7496 20.8077 52.748 20.8345C52.748 20.8947 52.7045 21.0755 52.6408 21.3836C52.5772 21.6916 52.5002 22.0532 52.4098 22.485C52.3194 22.9169 52.2156 23.3857 52.1052 23.8845C51.9947 24.3834 51.8775 24.8588 51.7704 25.3108C51.6632 25.7628 51.5561 26.1612 51.4356 26.5027C51.3728 26.7401 51.2876 26.9711 51.1811 27.1924C51.1135 27.333 50.9932 27.4412 50.8463 27.4937C50.7383 27.5302 50.6255 27.5505 50.5115 27.554C50.4658 27.5573 50.4199 27.5573 50.3742 27.554C50.3085 27.5446 50.2435 27.5301 50.18 27.5104C50.1082 27.4848 50.0405 27.4487 49.9792 27.4033C49.909 27.3515 49.8535 27.2823 49.8185 27.2024C49.7207 26.9721 49.6401 26.7349 49.5774 26.4926C49.4803 26.1578 49.3799 25.7895 49.2694 25.3744C49.1589 24.9592 49.0551 24.5173 48.9346 24.062C48.8141 23.6066 48.7304 23.1814 48.64 22.7864" fill="#1D1D1B"/>
<path d="M54.5661 25.4648C54.4523 25.8264 54.3519 26.1612 54.2682 26.4692C54.1845 26.7772 54.0974 27.0283 54.0237 27.2258C54.006 27.359 53.936 27.4797 53.8293 27.5613C53.7226 27.643 53.5878 27.6788 53.4546 27.6611C53.3214 27.6433 53.2007 27.5734 53.1191 27.4666C53.0375 27.3599 53.0016 27.2251 53.0193 27.0919C53.0187 27.0418 53.0266 26.992 53.0428 26.9446L53.1834 26.4792C53.2637 26.2181 53.3675 25.8933 53.4948 25.4983C53.622 25.1032 53.7659 24.6813 53.92 24.216C54.074 23.7506 54.2347 23.2886 54.3987 22.8332C54.5628 22.3779 54.7335 21.9527 54.8875 21.561C55.0161 21.2318 55.1671 20.9119 55.3395 20.6034C55.3884 20.4916 55.4748 20.4004 55.5839 20.3457C55.7163 20.2953 55.8576 20.2725 55.9991 20.2787C56.1445 20.2757 56.2891 20.3019 56.4243 20.3557C56.4805 20.3826 56.5307 20.4205 56.5721 20.467C56.6135 20.5136 56.6452 20.5679 56.6653 20.6269C56.7725 20.8512 56.8997 21.1559 57.0437 21.5342C57.1876 21.9125 57.3483 22.3243 57.509 22.7663C57.6697 23.2082 57.8438 23.6568 57.9912 24.1055C58.1385 24.5541 58.2958 24.9894 58.4264 25.3844C58.557 25.7795 58.6708 26.1176 58.7612 26.3888C58.8516 26.66 58.9152 26.8475 58.9353 26.9312C58.9515 26.9786 58.9594 27.0284 58.9587 27.0785C58.9621 27.141 58.9516 27.2035 58.9278 27.2614C58.9041 27.3193 58.8677 27.3712 58.8215 27.4133C58.7685 27.4606 58.7064 27.4965 58.6391 27.519C58.5717 27.5414 58.5005 27.5499 58.4297 27.5439C58.3256 27.5537 58.2215 27.5238 58.1385 27.4602C58.0682 27.3943 58.0163 27.3112 57.9878 27.2191C57.9108 27.0216 57.8238 26.7705 57.72 26.4625C57.6162 26.1545 57.509 25.8197 57.3852 25.4581H54.5561M57.0671 24.4771C56.9064 23.9883 56.7591 23.5397 56.6151 23.1379C56.4711 22.7361 56.3439 22.3511 56.1832 21.9694C56.1464 21.8857 56.1062 21.792 56.066 21.6782C56.0259 21.5643 55.9991 21.5074 55.9924 21.4873C55.961 21.5446 55.9363 21.6052 55.9187 21.6681C55.8752 21.7886 55.8384 21.8857 55.7982 21.9694C55.6475 22.3377 55.5036 22.7261 55.363 23.1379C55.2223 23.5497 55.075 23.995 54.9177 24.4771H57.0671Z" fill="#1D1D1B"/>
<path d="M60.9137 24.7115C60.8745 24.6722 60.8386 24.6296 60.8066 24.5842L60.6961 24.4302C60.589 24.2796 60.4785 24.0954 60.3613 23.8812C60.2441 23.6669 60.1102 23.4392 59.9863 23.2116C59.8625 22.9839 59.7419 22.7261 59.6281 22.4817C59.5143 22.2373 59.4004 22.0096 59.31 21.8121C59.2196 21.6146 59.1326 21.417 59.0656 21.263C59.0153 21.155 58.9739 21.043 58.9418 20.9282C58.9288 20.9003 58.9187 20.8711 58.9116 20.8412C58.9116 20.8412 58.9116 20.7976 58.9116 20.7575C58.9112 20.695 58.9235 20.6332 58.9477 20.5757C58.9718 20.5181 59.0074 20.4661 59.0522 20.4227C59.1049 20.3745 59.1668 20.3376 59.2341 20.314C59.3014 20.2904 59.3728 20.2807 59.444 20.2854C59.5047 20.2785 59.5662 20.2852 59.6241 20.3049C59.682 20.3246 59.7348 20.3568 59.7788 20.3992C59.8376 20.4652 59.8841 20.5411 59.916 20.6235L60.0265 20.8713C60.0834 20.9985 60.1537 21.1559 60.2341 21.3434C60.3145 21.5309 60.4115 21.7384 60.5187 21.9661C60.6258 22.1938 60.7296 22.4114 60.8535 22.6357L61.1715 23.2618C61.2578 23.4303 61.3539 23.5935 61.4595 23.7506C61.6302 23.484 61.7856 23.2079 61.9248 22.9236C62.0889 22.5888 62.2597 22.2708 62.3969 21.946C62.5342 21.6212 62.6782 21.3367 62.792 21.0923L62.9895 20.6269C63.0227 20.5443 63.0703 20.4684 63.1301 20.4026C63.173 20.3584 63.2256 20.3251 63.2838 20.3053C63.342 20.2855 63.4041 20.2799 63.4649 20.2887C63.5361 20.2836 63.6076 20.2932 63.675 20.3168C63.7424 20.3404 63.8042 20.3776 63.8567 20.426C63.9026 20.4685 63.939 20.5204 63.9632 20.5782C63.9875 20.6359 63.9991 20.6982 63.9973 20.7608C64.0008 20.7886 64.0008 20.8167 63.9973 20.8445L63.9705 20.9316L63.8399 21.2664C63.7763 21.4237 63.696 21.6012 63.5989 21.8154C63.5018 22.0297 63.4013 22.254 63.2875 22.485C63.1737 22.7161 63.0464 22.9705 62.9226 23.2149C62.7987 23.4593 62.6748 23.6836 62.5509 23.8845C62.4271 24.0854 62.3099 24.2896 62.2161 24.4369C62.152 24.5306 62.0791 24.6181 61.9985 24.6981V27.0417C62.0018 27.11 61.991 27.1782 61.9668 27.2421C61.9426 27.306 61.9055 27.3643 61.8579 27.4133C61.762 27.508 61.6327 27.5611 61.498 27.5611C61.3632 27.5611 61.2339 27.508 61.1381 27.4133C61.0867 27.3635 61.0462 27.3035 61.0191 27.2373C60.992 27.171 60.979 27.0999 60.9807 27.0283V24.6847" fill="#1D1D1B"/>
</svg>
