<svg viewBox="0 0 80 48" fill="none" xmlns="http://www.w3.org/2000/svg">
<path d="M31.9308 18.9884H28.3892C28.1468 18.9884 27.9407 19.1641 27.9029 19.4029L26.4705 28.4674C26.442 28.6462 26.5808 28.8075 26.7626 28.8075H28.4534C28.6957 28.8075 28.9019 28.6318 28.9397 28.3925L29.326 25.9476C29.3633 25.7083 29.5699 25.5326 29.8117 25.5326H30.9329C33.2658 25.5326 34.6123 24.4058 34.9639 22.1729C35.1224 21.196 34.9706 20.4284 34.5123 19.8909C34.009 19.3006 33.1162 18.9884 31.9308 18.9884ZM32.3394 22.299C32.1457 23.5674 31.1747 23.5674 30.2359 23.5674H29.7014L30.0764 21.1986C30.0986 21.0554 30.2229 20.95 30.3679 20.95H30.6129C31.2524 20.95 31.8557 20.95 32.1675 21.3138C32.3534 21.5309 32.4103 21.8535 32.3394 22.299Z" fill="#253B80"/>
<path d="M42.5172 22.2581H40.8212C40.6767 22.2581 40.5519 22.3636 40.5297 22.5068L40.4546 22.9802L40.336 22.8086C39.9688 22.2767 39.1501 22.0989 38.3329 22.0989C36.4588 22.0989 34.8581 23.5157 34.5463 25.5031C34.3843 26.4945 34.6147 27.4424 35.1781 28.1035C35.6949 28.7113 36.4344 28.9646 37.3143 28.9646C38.8244 28.9646 39.6617 27.9955 39.6617 27.9955L39.5861 28.4658C39.5576 28.6457 39.6964 28.807 39.8772 28.807H41.4048C41.6477 28.807 41.8528 28.6312 41.8911 28.3919L42.8077 22.5982C42.8367 22.4199 42.6984 22.2581 42.5172 22.2581ZM40.1532 25.5527C39.9895 26.5198 39.2205 27.169 38.2397 27.169C37.7472 27.169 37.3536 27.0113 37.1009 26.7126C36.8503 26.4159 36.755 25.9936 36.8348 25.5232C36.9875 24.5644 37.7695 23.8941 38.7353 23.8941C39.2169 23.8941 39.6084 24.0538 39.8663 24.3551C40.1247 24.6595 40.2272 25.0844 40.1532 25.5527Z" fill="#253B80"/>
<path d="M51.5497 22.2582H49.8455C49.6829 22.2582 49.5301 22.3388 49.4379 22.4737L47.0874 25.9296L46.091 22.6086C46.0283 22.4008 45.8362 22.2582 45.6187 22.2582H43.944C43.7404 22.2582 43.5991 22.4567 43.6638 22.6479L45.541 28.1464L43.7762 30.6331C43.6374 30.829 43.7772 31.0983 44.017 31.0983H45.7192C45.8808 31.0983 46.032 31.0198 46.1236 30.8874L51.7921 22.7208C51.9278 22.5254 51.7885 22.2582 51.5497 22.2582Z" fill="#253B80"/>
<path d="M57.1925 18.9884H53.6504C53.4085 18.9884 53.2024 19.1641 53.1646 19.4029L51.7322 28.4674C51.7038 28.6462 51.8425 28.8075 52.0233 28.8075H53.841C54.0098 28.8075 54.1543 28.6845 54.1807 28.517L54.5872 25.9476C54.6245 25.7083 54.8311 25.5326 55.0729 25.5326H56.1936C58.527 25.5326 59.873 24.4058 60.2251 22.1729C60.3841 21.196 60.2313 20.4284 59.773 19.8909C59.2702 19.3006 58.3779 18.9884 57.1925 18.9884ZM57.6011 22.299C57.408 23.5674 56.437 23.5674 55.4976 23.5674H54.9637L55.3391 21.1986C55.3614 21.0554 55.4846 20.95 55.6302 20.95H55.8751C56.5141 20.95 57.118 20.95 57.4297 21.3138C57.6156 21.5309 57.6721 21.8535 57.6011 22.299Z" fill="#179BD7"/>
<path d="M67.7784 22.2581H66.0835C65.938 22.2581 65.8142 22.3636 65.7924 22.5068L65.7173 22.9802L65.5982 22.8086C65.2311 22.2767 64.4129 22.0989 63.5957 22.0989C61.7216 22.0989 60.1214 23.5157 59.8096 25.5031C59.6481 26.4945 59.8775 27.4424 60.4409 28.1035C60.9588 28.7113 61.6972 28.9646 62.5771 28.9646C64.0871 28.9646 64.9245 27.9955 64.9245 27.9955L64.8489 28.4658C64.8204 28.6457 64.9592 28.807 65.141 28.807H66.6681C66.91 28.807 67.1161 28.6312 67.1539 28.3919L68.071 22.5982C68.099 22.4199 67.9602 22.2581 67.7784 22.2581ZM65.4144 25.5527C65.2518 26.5198 64.4817 27.169 63.5009 27.169C63.0095 27.169 62.6149 27.0113 62.3621 26.7126C62.1115 26.4159 62.0173 25.9936 62.096 25.5232C62.2498 24.5644 63.0307 23.8941 63.9965 23.8941C64.4781 23.8941 64.8696 24.0538 65.1275 24.3551C65.387 24.6595 65.4895 25.0844 65.4144 25.5527Z" fill="#179BD7"/>
<path d="M69.7779 19.237L68.3243 28.4674C68.2958 28.6462 68.4346 28.8075 68.6153 28.8075H70.0767C70.3196 28.8075 70.5257 28.6317 70.563 28.3924L71.9964 19.3285C72.0249 19.1496 71.8861 18.9879 71.7054 18.9879H70.0689C69.9245 18.9884 69.8002 19.0938 69.7779 19.237Z" fill="#179BD7"/>
<path d="M11.7626 30.569L12.0335 28.852L11.4302 28.838H8.54932L10.5514 16.1678C10.5576 16.1296 10.5778 16.0939 10.6073 16.0686C10.6368 16.0433 10.6746 16.0293 10.714 16.0293H15.5715C17.1841 16.0293 18.2969 16.3642 18.878 17.0253C19.1504 17.3354 19.3239 17.6595 19.4078 18.0162C19.4958 18.3904 19.4973 18.8375 19.4114 19.3828L19.4052 19.4226V19.772L19.6776 19.926C19.907 20.0475 20.0893 20.1865 20.2291 20.3457C20.4621 20.6109 20.6128 20.9479 20.6765 21.3474C20.7423 21.7584 20.7205 22.2473 20.6128 22.8009C20.4885 23.4377 20.2876 23.9923 20.0162 24.4461C19.7666 24.8643 19.4487 25.2111 19.0711 25.4799C18.7107 25.7352 18.2824 25.929 17.7982 26.0531C17.3291 26.1751 16.7941 26.2366 16.2074 26.2366H15.8294C15.559 26.2366 15.2965 26.3338 15.0904 26.5079C14.8837 26.6857 14.747 26.9287 14.7051 27.1944L14.6766 27.3489L14.1981 30.3752L14.1764 30.4863C14.1707 30.5215 14.1608 30.5391 14.1463 30.5509C14.1334 30.5618 14.1147 30.569 14.0966 30.569H11.7626Z" fill="#253B80"/>
<path d="M19.9355 19.4629C19.921 19.5554 19.9044 19.65 19.8858 19.7472C19.2452 23.0299 17.0536 24.1639 14.2546 24.1639H12.8295C12.4872 24.1639 12.1987 24.412 12.1454 24.749L11.4157 29.3678L11.2091 30.677C11.1744 30.8983 11.3453 31.0978 11.569 31.0978H14.0967C14.396 31.0978 14.6502 30.8807 14.6974 30.5861L14.7222 30.4579L15.1981 27.4435L15.2287 27.2781C15.2753 26.9824 15.5301 26.7653 15.8294 26.7653H16.2074C18.6564 26.7653 20.5735 25.7729 21.1338 22.9012C21.3679 21.7015 21.2467 20.6998 20.6274 19.9953C20.4399 19.7828 20.2074 19.6066 19.9355 19.4629Z" fill="#179BD7"/>
<path d="M19.2655 19.1962C19.1677 19.1678 19.0667 19.142 18.9631 19.1187C18.859 19.096 18.7523 19.0758 18.6425 19.0582C18.2583 18.9962 17.8373 18.9667 17.3862 18.9667H13.5789C13.4852 18.9667 13.3961 18.9879 13.3164 19.0262C13.1408 19.1104 13.0103 19.2763 12.9787 19.4795L12.1688 24.5997L12.1455 24.749C12.1988 24.412 12.4873 24.1639 12.8296 24.1639H14.2547C17.0538 24.1639 19.2453 23.0294 19.8859 19.7472C19.9051 19.65 19.9211 19.5555 19.9356 19.4629C19.7735 19.3771 19.598 19.3037 19.409 19.2412C19.3624 19.2257 19.3142 19.2107 19.2655 19.1962Z" fill="#222D65"/>
<path d="M12.9787 19.4794C13.0103 19.2763 13.1408 19.1104 13.3163 19.0266C13.3966 18.9884 13.4851 18.9672 13.5789 18.9672H17.3862C17.8372 18.9672 18.2582 18.9967 18.6425 19.0587C18.7523 19.0763 18.8589 19.0964 18.963 19.1192C19.0666 19.1424 19.1676 19.1683 19.2655 19.1967C19.3141 19.2112 19.3623 19.2262 19.4094 19.2412C19.5984 19.3037 19.774 19.3776 19.9361 19.4629C20.1267 18.2498 19.9345 17.4238 19.2774 16.6759C18.5529 15.8525 17.2453 15.5 15.5721 15.5H10.7146C10.3728 15.5 10.0813 15.7481 10.0284 16.0856L8.00517 28.8861C7.9653 29.1393 8.16105 29.3678 8.41687 29.3678H11.4158L12.1687 24.5996L12.9787 19.4794Z" fill="#253B80"/>
</svg>
