<svg viewBox="0 0 80 48" fill="none" xmlns="http://www.w3.org/2000/svg">
<path d="M34.039 16.2828L27.5528 31.758H23.3211L20.1293 19.4081C19.9355 18.6474 19.767 18.3687 19.1777 18.0483C18.216 17.5263 16.627 17.0368 15.229 16.7328L15.324 16.2828H22.1357C23.004 16.2828 23.7845 16.8608 23.9817 17.8607L25.6674 26.8154L29.8336 16.2828H34.039ZM50.6198 26.7055C50.6368 22.6211 44.972 22.3961 45.011 20.5715C45.0231 20.0163 45.5518 19.4259 46.7091 19.2752C47.2827 19.2001 48.8631 19.1428 50.6557 19.9677L51.3588 16.6861C50.3956 16.3365 49.1562 16 47.6142 16C43.6573 16 40.8727 18.1035 40.8492 21.1155C40.8236 23.3433 42.8368 24.5865 44.3535 25.3268C45.9138 26.0849 46.4374 26.5721 46.4314 27.2502C46.4203 28.2882 45.1869 28.7465 44.0343 28.7645C42.0222 28.7955 40.8546 28.2201 39.9239 27.7874L39.1983 31.1777C40.1337 31.6068 41.8601 31.9812 43.6501 32C47.8558 32 50.6069 29.9226 50.6198 26.7055ZM61.0685 31.7582H64.771L61.5392 16.2828H58.1218C57.3534 16.2828 56.7052 16.7302 56.4183 17.4181L50.411 31.758H54.6146L55.4494 29.4463H60.5855L61.0685 31.7582ZM56.6017 26.2748L58.7088 20.4645L59.9216 26.2748H56.6017ZM39.759 16.2828L36.4487 31.758H32.4456L35.7572 16.2828H39.759Z" fill="#1434CB"/>
</svg>
