<svg viewBox="0 0 80 48" fill="none" xmlns="http://www.w3.org/2000/svg">
<path d="M15.8789 23.1253H15.7056L15.4027 22.9503C15.3912 22.9505 15.3797 22.9484 15.369 22.9441C15.3584 22.9397 15.3487 22.9333 15.3406 22.9251C15.3325 22.9169 15.3261 22.9072 15.3219 22.8965C15.3177 22.8858 15.3157 22.8743 15.316 22.8628V22.3813C15.316 22.2938 15.316 22.2938 15.4027 22.2063L19.0408 19.9313L13.7566 17.0002H13.4101L8.08276 19.9318L14.0596 23.4318C14.1462 23.4318 14.1462 23.5193 14.1462 23.6068V28.682C14.1462 28.7695 14.1462 28.7695 14.0596 28.857L13.7566 29.032H13.5833L13.2804 28.857C13.1937 28.857 13.1937 28.7695 13.1937 28.682V24.1754C13.194 24.1639 13.192 24.1525 13.1877 24.1418C13.1835 24.1311 13.1771 24.1214 13.169 24.1132C13.1609 24.1051 13.1513 24.0986 13.1406 24.0943C13.13 24.0899 13.1186 24.0877 13.1071 24.0879L7.77979 20.9818V27.0194C7.79994 27.1642 7.85992 27.3006 7.95306 27.4134L13.3234 30.6065C13.4101 30.6065 13.4101 30.694 13.4967 30.694C13.5833 30.694 13.67 30.694 13.67 30.6065L19.0403 27.4129C19.0978 27.3651 19.1433 27.3047 19.1734 27.2363C19.2035 27.1679 19.2172 27.0935 19.2136 27.0189V20.9818L15.8789 23.1253Z" fill="url(#paint0_linear_514_848)"/>
<path d="M54.2952 28.9004H52.9116V22.1193C53.6006 21.839 54.3319 21.6763 55.0749 21.6377C56.7325 21.6377 57.8898 22.6813 57.8898 24.1753C57.8898 25.8714 56.8637 26.8444 55.0749 26.8444V25.7504C55.2649 25.7587 55.4545 25.7256 55.6304 25.6534C55.8063 25.5812 55.9643 25.4717 56.0935 25.3323C56.3522 25.0038 56.4827 24.5927 56.4606 24.1753C56.4791 23.9883 56.4561 23.7995 56.3933 23.6224C56.3304 23.4453 56.2293 23.2841 56.097 23.1505C55.9647 23.0168 55.8045 22.9139 55.6279 22.849C55.4512 22.7842 55.2624 22.759 55.0749 22.7753C54.8023 22.7344 54.5241 22.7968 54.2952 22.9503V28.9004ZM25.6671 27.1504C25.3136 27.1647 24.9611 27.1052 24.632 26.9758C24.3029 26.8463 24.0045 26.6498 23.7559 26.3986C23.5072 26.1474 23.3137 25.8472 23.1879 25.5172C23.062 25.1871 23.0065 24.8345 23.0249 24.4818C23.0065 24.1291 23.062 23.7765 23.1879 23.4464C23.3137 23.1163 23.5072 22.8161 23.7558 22.5649C24.0045 22.3137 24.3029 22.117 24.632 21.9875C24.9611 21.858 25.3136 21.7985 25.6671 21.8128C26.1507 21.752 26.6405 21.8603 27.0532 22.1193V23.4313C26.7131 23.1138 26.2623 22.9412 25.7968 22.9503C25.6093 22.934 25.4205 22.9592 25.2438 23.0241C25.0672 23.0889 24.907 23.1918 24.7747 23.3255C24.6424 23.4591 24.5413 23.6203 24.4784 23.7974C24.4156 23.9745 24.3926 24.1633 24.4111 24.3503C24.3926 24.5373 24.4156 24.7261 24.4784 24.9032C24.5413 25.0804 24.6424 25.2415 24.7747 25.3752C24.907 25.5088 25.0672 25.6117 25.2438 25.6766C25.4205 25.7414 25.6093 25.7666 25.7968 25.7504C26.0523 25.7423 26.3065 25.7088 26.5554 25.6503H26.5624C26.7234 25.6109 26.8877 25.5864 27.0532 25.5773V26.8464L26.927 26.8849L26.898 26.8939L26.8569 26.9069C26.4748 27.0475 26.0737 27.1296 25.6671 27.1504ZM70.4489 27.0189C69.0117 27.0189 68.2835 26.3269 68.2835 24.9628V19.9312H69.6692V21.8128H71.4019V22.9068H69.6692V24.9628C69.6692 25.4558 70.0258 25.7504 70.6207 25.7504C70.9346 25.7861 71.252 25.725 71.5301 25.5753V26.8444C71.1851 26.9742 70.8174 27.0336 70.4489 27.0189ZM65.6414 27.0189C65.1157 27.0027 64.6028 26.8521 64.1521 26.5814H64.2548V25.3128C64.6823 25.7002 65.2369 25.918 65.8142 25.9254C65.8857 25.9336 65.9581 25.9276 66.0273 25.9079C66.0965 25.8881 66.1611 25.8549 66.2174 25.8102C66.2738 25.7655 66.3207 25.7101 66.3556 25.6472C66.3904 25.5844 66.4126 25.5152 66.4206 25.4438C66.4206 25.2573 66.2093 25.1273 65.6414 24.9628C64.5337 24.7838 64.082 24.3273 64.082 23.3878C64.0677 23.1605 64.108 22.933 64.1993 22.7244C64.2907 22.5157 64.4305 22.3317 64.6073 22.1878C64.9994 21.9189 65.4693 21.7864 65.9444 21.8108C66.4268 21.7693 66.9103 21.8762 67.3301 22.1173V23.3878C66.9292 23.088 66.445 22.9199 65.9444 22.9068C65.5363 22.9068 65.3379 23.0643 65.3379 23.3878C65.3379 23.5478 65.4381 23.6838 65.9444 23.8688C66.4291 23.897 66.8946 24.0684 67.2815 24.3613C67.4224 24.5021 67.5308 24.6719 67.599 24.8589C67.6673 25.0459 67.6938 25.2456 67.6766 25.4438C67.6786 26.6054 66.627 27.0189 65.6414 27.0189ZM60.9636 26.9754C60.6102 26.9897 60.2577 26.9302 59.9286 26.8008C59.5995 26.6713 59.3011 26.4748 59.0524 26.2236C58.8038 25.9724 58.6103 25.6722 58.4845 25.3422C58.3586 25.0121 58.3031 24.6595 58.3215 24.3068C58.3215 23.6072 58.5999 22.9362 59.0954 22.4414C59.5909 21.9467 60.2629 21.6688 60.9636 21.6688C61.6644 21.6688 62.3364 21.9467 62.8319 22.4414C63.3274 22.9362 63.6057 23.6072 63.6057 24.3068C63.6241 24.6594 63.5687 25.0119 63.4429 25.3418C63.3171 25.6718 63.1238 25.9719 62.8753 26.223C62.6268 26.4742 62.3286 26.6708 61.9997 26.8003C61.6708 26.9299 61.3184 26.9895 60.9651 26.9754H60.9636ZM60.9636 22.9068C60.1418 22.9068 59.7077 23.3908 59.7077 24.3068C59.6903 24.4827 59.7097 24.6603 59.7648 24.8282C59.8198 24.9962 59.9092 25.151 60.0273 25.2826C60.1454 25.4143 60.2896 25.5199 60.4508 25.593C60.612 25.666 60.7866 25.7048 60.9636 25.7069C61.7854 25.7069 62.2196 25.2228 62.2196 24.3068C62.2211 23.4168 61.7634 22.9068 60.9651 22.9068H60.9636ZM49.7907 26.9754C49.4373 26.9896 49.0849 26.9301 48.7558 26.8006C48.4268 26.6711 48.1284 26.4746 47.8798 26.2234C47.6312 25.9723 47.4378 25.6721 47.312 25.3421C47.1862 25.0121 47.1307 24.6595 47.1491 24.3068C47.1442 23.9574 47.209 23.6104 47.3396 23.2862C47.4702 22.9619 47.6641 22.6668 47.9099 22.418C48.1557 22.1692 48.4485 21.9716 48.7714 21.8367C49.0944 21.7019 49.4409 21.6324 49.7909 21.6324C50.141 21.6324 50.4875 21.7019 50.8104 21.8367C51.1334 21.9716 51.4262 22.1692 51.672 22.418C51.9178 22.6668 52.1116 22.9619 52.2423 23.2862C52.3729 23.6104 52.4376 23.9574 52.4328 24.3068C52.4512 24.6595 52.3957 25.0121 52.2699 25.3422C52.144 25.6722 51.9506 25.9724 51.7019 26.2236C51.4532 26.4748 51.1548 26.6713 50.8257 26.8008C50.4966 26.9302 50.1441 26.9897 49.7907 26.9754ZM49.7907 22.9068C48.9694 22.9068 48.5352 23.3908 48.5352 24.3068C48.5179 24.4827 48.5373 24.6602 48.5923 24.8281C48.6473 24.9961 48.7366 25.1508 48.8547 25.2824C48.9727 25.4141 49.1169 25.5198 49.278 25.5928C49.4392 25.6659 49.6137 25.7047 49.7907 25.7069C50.6125 25.7069 51.0467 25.2228 51.0467 24.3068C51.0603 24.1317 51.0382 23.9556 50.9818 23.7892C50.9254 23.6228 50.8358 23.4696 50.7184 23.3388C50.601 23.2079 50.4583 23.1022 50.2988 23.0279C50.1394 22.9537 49.9665 22.9125 49.7907 22.9068ZM38.8767 26.9754C38.5232 26.9897 38.1707 26.9302 37.8416 26.8008C37.5125 26.6713 37.2141 26.4748 36.9655 26.2236C36.7168 25.9724 36.5233 25.6722 36.3975 25.3422C36.2716 25.0121 36.2161 24.6595 36.2345 24.3068C36.2161 23.9541 36.2716 23.6014 36.3975 23.2714C36.5233 22.9413 36.7168 22.6411 36.9654 22.3899C37.2141 22.1387 37.5125 21.942 37.8416 21.8125C38.1707 21.683 38.5232 21.6235 38.8767 21.6377C39.2301 21.6235 39.5826 21.683 39.9117 21.8125C40.2408 21.942 40.5392 22.1387 40.7879 22.3899C41.0365 22.6411 41.23 22.9413 41.3558 23.2714C41.4817 23.6014 41.5372 23.9541 41.5188 24.3068C41.5372 24.6595 41.4817 25.0121 41.3558 25.3422C41.23 25.6722 41.0365 25.9724 40.7879 26.2236C40.5392 26.4748 40.2408 26.6713 39.9117 26.8008C39.5826 26.9302 39.2301 26.9897 38.8767 26.9754ZM38.8767 22.9068C38.0549 22.9068 37.6207 23.3908 37.6207 24.3068C37.6033 24.4827 37.6228 24.6603 37.6778 24.8282C37.7328 24.9962 37.8222 25.151 37.9403 25.2826C38.0584 25.4143 38.2027 25.5199 38.3638 25.593C38.525 25.666 38.6997 25.7048 38.8767 25.7069C39.6984 25.7069 40.1326 25.2228 40.1326 24.3068C40.1326 23.4168 39.6749 22.9068 38.8767 22.9068ZM43.3812 26.8449H42.1683V22.1193C42.9059 21.7966 43.7032 21.6326 44.5084 21.6377C45.0781 21.5853 45.6475 21.7409 46.1109 22.0758C46.3177 22.2879 46.4753 22.5429 46.5726 22.8225C46.6699 23.1022 46.7044 23.3998 46.6738 23.6943V26.8444H45.2882V23.6943C45.2882 23.2013 44.9321 22.9068 44.3367 22.9068C44.0094 22.8756 43.68 22.936 43.3852 23.0813V26.8444L43.3812 26.8449ZM34.5023 26.8449H33.1162V23.6948C33.0897 23.3965 33.1309 23.096 33.2368 22.8158C33.3426 22.5356 33.5104 22.2828 33.7276 22.0763C34.1777 21.7532 34.7272 21.5981 35.2801 21.6382C35.44 21.6446 35.5986 21.6705 35.7523 21.7153C35.9652 21.776 36.185 21.8096 36.4063 21.8153V23.0813C36.109 22.9438 35.7817 22.8838 35.4548 22.9068C34.7597 22.9068 34.5033 23.1203 34.5033 23.6943V26.8444L34.5023 26.8449ZM31.1261 26.8449V23.6948C31.1261 23.2018 30.77 22.9073 30.1746 22.9073C29.8473 22.876 29.5179 22.9365 29.2231 23.0818V26.8449H27.8324V19.4502H29.3914V21.8128C29.5542 21.8047 29.7159 21.781 29.8741 21.7418H29.8871C30.1361 21.6833 30.3902 21.6498 30.6458 21.6418C30.9071 21.6428 31.1654 21.6983 31.404 21.8047C31.6426 21.9111 31.8564 22.066 32.0317 22.2595C32.207 22.4531 32.3399 22.681 32.4219 22.9287C32.504 23.1765 32.5334 23.4386 32.5082 23.6983V26.8484L31.1261 26.8449Z" fill="#3C3C3B"/>
<defs>
<linearGradient id="paint0_linear_514_848" x1="7.73405" y1="23.8608" x2="19.3743" y2="23.8608" gradientUnits="userSpaceOnUse">
<stop stop-color="#006CAF"/>
<stop offset="0.332" stop-color="#0081C5"/>
<stop offset="0.733" stop-color="#0095DA"/>
<stop offset="1" stop-color="#009CE1"/>
</linearGradient>
</defs>
</svg>
