<svg viewBox="0 0 80 48" fill="none" xmlns="http://www.w3.org/2000/svg">
<rect width="80" height="48" rx="4" fill="#FFCC00"/>
<rect x="0.5" y="0.5" width="79" height="47" rx="3.5" stroke="black" stroke-opacity="0.2"/>
<path d="M17.9583 19.9941L15.7859 22.4532H27.6261C28.2249 22.4532 28.2174 22.6411 27.9248 22.9732C27.6276 23.309 27.1304 23.8899 26.8273 24.232C26.6735 24.4049 26.3958 24.7196 27.3156 24.7196H32.1577L33.5926 23.0951C34.4824 22.0888 33.6702 19.9953 30.4884 19.9953L17.9583 19.9941Z" fill="#D80613"/>
<path d="M14.9063 28.0059L19.2706 23.0652H24.6861C25.2848 23.0652 25.2773 23.2543 24.9847 23.5852L23.8798 24.839C23.726 25.0119 23.4483 25.3266 24.368 25.3266H31.6215C31.0198 26.0157 29.0608 28.0059 25.5491 28.0059H14.9063ZM39.8977 25.3253L37.5312 28.0059H31.2885L33.6551 25.3253H39.8977ZM49.4595 24.7183H34.1926L38.3673 19.9941H44.6069L42.215 22.7032H44.9996L47.3946 19.9941H53.6342L49.4595 24.7183ZM48.9235 25.3253L46.5569 28.0059H40.3173L42.6838 25.3253H48.9235ZM6 26.3826H15.1945L14.6928 26.9511H6V26.3826ZM6 25.3253H16.1292L15.626 25.8938H6V25.3253ZM6 27.4399H14.2613L13.7611 28.0059H6V27.4399ZM74 26.9511H64.8384L65.3415 26.3826H74V26.9511ZM74 28.0059H63.9082L64.4069 27.4399H74V28.0059ZM66.2747 25.3253H74V25.895H65.7731L66.2747 25.3253ZM62.2762 19.9941L58.1015 24.7183H51.4886L55.6663 19.9941H62.2762ZM50.9541 25.3253C50.9541 25.3253 50.4987 25.8453 50.2762 26.0941C49.4938 26.9772 50.1851 28.0047 52.7428 28.0047H62.7645L65.131 25.3253H50.9541Z" fill="#D80613"/>
</svg>
