<svg viewBox="0 0 80 48" fill="none" xmlns="http://www.w3.org/2000/svg">
<path d="M46.8131 28.7105C45.9507 28.9388 44.8272 29.0517 43.8505 29.0517C41.3435 29.0517 39.6833 27.7175 39.6833 25.2756C39.6833 22.9645 41.2296 21.4674 43.4926 21.4674C43.9971 21.4674 44.534 21.5316 44.8598 21.695V18.3402H46.8131V28.7105ZM44.8598 23.4201C44.5504 23.2737 44.1436 23.1923 43.6545 23.1923C42.4671 23.1923 41.6691 23.9251 41.6691 25.2108C41.6691 26.5947 42.5316 27.3763 43.9154 27.3763C44.1597 27.3763 44.534 27.3595 44.8598 27.2948V23.4201ZM62.8421 28.7105C61.9788 28.9388 60.8557 29.0517 59.879 29.0517C57.3723 29.0517 55.7113 27.7175 55.7113 25.2756C55.7113 22.9645 57.2582 21.4674 59.5213 21.4674C60.0258 21.4674 60.563 21.5316 60.8886 21.695V18.3402H62.842V28.7105H62.8421ZM60.8886 23.4201C60.5789 23.2737 60.172 23.1923 59.6838 23.1923C58.4956 23.1923 57.6981 23.9251 57.6981 25.2108C57.6981 26.5947 58.5606 27.3763 59.9444 27.3763C60.1883 27.3763 60.5629 27.3595 60.8886 27.2948V23.4201ZM49.885 23.4041C50.2103 23.2736 50.6655 23.2252 51.0561 23.2252C52.261 23.2252 53.0913 23.925 53.0913 25.1779C53.0913 26.656 52.1716 27.3244 50.942 27.3417V29.0507C50.9742 29.0507 51.0071 29.0518 51.0403 29.0518C53.5629 29.0518 55.0774 27.6362 55.0774 25.1131C55.0774 22.8179 53.466 21.4674 51.0892 21.4674C49.8849 21.4674 48.696 21.7442 47.9149 22.0694V31.8204H49.885V23.4041Z" fill="#414042"/>
<path d="M29.0818 22.9259C29.0009 22.9731 28.8742 22.9694 28.7953 22.9206L28.331 22.6446C28.2932 22.6211 28.2585 22.5837 28.2323 22.5386C28.2307 22.536 28.2292 22.5333 28.2277 22.5307C28.198 22.4823 28.1811 22.4313 28.1794 22.3844L28.1676 21.843C28.1641 21.7518 28.2243 21.6406 28.3054 21.5933L33.888 18.341L26.0541 14.0713C25.9678 14.0235 25.854 14.0004 25.7401 14.0002C25.6261 13.9999 25.5121 14.0237 25.4258 14.0713L17.5917 18.3411L26.3679 23.4501C26.4492 23.4945 26.511 23.6001 26.511 23.6954V31.1485C26.511 31.242 26.4441 31.3495 26.3621 31.3933L25.8898 31.6556C25.8506 31.6764 25.8007 31.6876 25.7485 31.6876C25.7456 31.6876 25.7425 31.6876 25.7395 31.6876C25.6828 31.6889 25.6301 31.6777 25.5889 31.6556L25.115 31.3932C25.0345 31.3504 24.9687 31.2423 24.9687 31.1485L24.9688 24.5044C24.9646 24.4557 24.929 24.3964 24.8899 24.374L17.158 19.8731V28.6891C17.1579 28.8863 17.297 29.1297 17.4675 29.2294L25.4306 33.9258C25.5157 33.9757 25.6279 34.0006 25.7399 34.0001C25.8521 33.9998 25.9642 33.9764 26.0491 33.9259L34.0135 29.2294C34.1833 29.1287 34.3221 28.8867 34.3219 28.6891V19.8732L29.0818 22.9259Z" fill="url(#paint0_linear_1662_1414)"/>
<defs>
<linearGradient id="paint0_linear_1662_1414" x1="17.2403" y1="30.9726" x2="25.9302" y2="23.6809" gradientUnits="userSpaceOnUse">
<stop stop-color="#A90034"/>
<stop offset="0.2717" stop-color="#BB0033"/>
<stop offset="0.7226" stop-color="#D30032"/>
<stop offset="1" stop-color="#DC0032"/>
</linearGradient>
</defs>
</svg>
