<svg viewBox="0 0 80 48" fill="none" xmlns="http://www.w3.org/2000/svg">
<path d="M6.02599 28.5741C6.00879 28.5684 6 27.0242 6 24.0086V19.4518H22.2789H38.5579V24.0269V28.602L22.3049 28.5923C13.3658 28.5871 6.04028 28.5788 6.02599 28.5741Z" fill="#BDD1EC"/>
<path d="M70.4963 23.2867C70.9854 23.1129 71.2196 22.8084 71.2196 22.3462C71.2196 21.8927 71.0312 21.6726 70.544 21.5569C70.3826 21.5186 70.1962 21.5087 69.4592 21.4993L68.5692 21.4879V22.4358V23.3837L69.4202 23.3752L70.2712 23.3667L70.4963 23.2867ZM65.8584 28.5572C65.8488 28.5476 65.8409 26.4945 65.8409 23.9948V19.4497L68.7056 19.459C71.5289 19.4681 71.5741 19.469 71.8287 19.5242C72.5173 19.6733 72.9744 19.9028 73.3404 20.2831C73.7566 20.7154 73.922 21.1752 73.9218 21.8993C73.9216 22.7896 73.7087 23.3926 73.2376 23.8377C73.0225 24.0409 72.8424 24.1515 72.5516 24.259C72.425 24.3058 72.3745 24.334 72.4159 24.3348C72.5439 24.3373 72.7941 24.4153 73.0085 24.5197C73.3644 24.693 73.6118 24.9861 73.7246 25.368C73.7616 25.4933 73.9999 28.1814 73.9999 28.4733V28.5742H72.5967H71.1936L71.1931 28.2318C71.1921 27.5493 71.1432 26.4597 71.1056 26.2799C71.0032 25.7915 70.7081 25.5014 70.1775 25.3674C69.9907 25.3202 69.8595 25.3104 69.2644 25.2993L68.5696 25.2863L68.5629 26.9238L68.5562 28.5613L67.2161 28.568C66.479 28.5717 65.8681 28.5668 65.8584 28.5573L65.8584 28.5572ZM49.7047 24.0131V19.4519H53.1087H56.5126V20.5631V21.6743H54.4598H52.4071V22.3333V22.9923H54.3559H56.3047V24.0131V25.0338H54.3559H52.4071V25.6928V26.3518H54.5118H56.6165V27.463V28.5742H53.1606H49.7047V24.0131ZM60.3193 28.7428C58.4189 28.525 57.3987 27.6633 57.0785 26.0056C57.0242 25.7244 57.0229 25.6561 57.0135 22.5853L57.004 19.4519H58.3552H59.7064L59.7156 22.4302C59.724 25.156 59.7286 25.425 59.7702 25.6024C59.8971 26.1432 60.1745 26.442 60.6754 26.5774C60.9105 26.6409 61.5086 26.6396 61.7224 26.5751C62.2048 26.4296 62.4585 26.1504 62.5828 25.6282C62.6253 25.4496 62.6296 25.1994 62.6379 22.4431L62.6469 19.4519H63.997H65.3472V22.421C65.3472 24.2981 65.3372 25.4886 65.32 25.6578C65.2602 26.2472 65.0885 26.8083 64.8389 27.23C64.6819 27.4953 64.3034 27.8971 64.0413 28.0769C63.5663 28.4026 62.9967 28.6067 62.25 28.7186C61.8717 28.7754 60.728 28.7897 60.3193 28.7428V28.7428ZM44.2081 28.8068C43.15 28.6474 42.3648 28.2994 41.7891 27.7346C41.3927 27.3457 41.1535 26.9249 41.0141 26.3712C40.9533 26.1298 40.8881 25.5689 40.9149 25.5184C40.9205 25.5077 41.5709 25.499 42.3601 25.499H43.7951L43.8255 25.7838C43.886 26.3498 44.0834 26.5827 44.6248 26.7268C44.8737 26.7931 45.4382 26.8073 45.7027 26.754C46.2507 26.6436 46.5088 26.391 46.5086 25.9655C46.5086 25.8091 46.4969 25.7513 46.4501 25.6745C46.3001 25.4282 46.1541 25.3733 44.2741 24.8565C42.91 24.4815 42.3395 24.233 41.8629 23.8064C41.6035 23.5741 41.3754 23.1948 41.2824 22.8409C41.1779 22.4433 41.192 21.8045 41.3151 21.3563C41.3836 21.1067 41.5897 20.6917 41.7475 20.4856C42.294 19.7714 43.2112 19.3122 44.3773 19.1688C44.656 19.1346 45.5645 19.134 45.8721 19.168C47.6966 19.3693 48.7844 20.2135 49.0393 21.6259C49.0608 21.7449 49.0819 21.9179 49.0863 22.0102L49.0941 22.1782H47.704H46.3138L46.2977 22.0293C46.2628 21.7065 46.1257 21.5244 45.7965 21.3636C45.5501 21.2432 45.3041 21.2018 44.9237 21.2166C44.2943 21.241 44.0321 21.4179 44.0309 21.8188C44.0303 22.0152 44.1116 22.1664 44.2838 22.2894C44.5431 22.4746 44.873 22.5741 45.9268 22.7847C47.543 23.1077 48.3225 23.4193 48.8625 23.9583C49.3005 24.3954 49.4969 24.9245 49.4969 25.6669C49.4969 26.8589 48.9397 27.7513 47.8526 28.3005C47.3551 28.5519 46.6871 28.7365 45.976 28.8192C45.5005 28.8745 44.6167 28.8683 44.2081 28.8068V28.8068Z" fill="#E95128"/>
<path d="M38.5575 19.452H11.418V28.5782H38.5575V19.452Z" fill="#6D9AD3"/>
<path d="M38.5576 19.452H19.5483V28.5782H38.5576V19.452Z" fill="#1C64B0"/>
</svg>
