<svg viewBox="0 0 80 48" fill="none" xmlns="http://www.w3.org/2000/svg">
<path d="M49.1364 39.7415V41.458H49.4546V40.7353H49.5C49.5 40.7804 49.9546 41.458 49.9546 41.458H50.3182C50.3182 41.458 49.8637 40.7804 49.8182 40.6901C49.9224 40.669 50.0159 40.6122 50.0823 40.5297C50.1488 40.4471 50.184 40.3441 50.1818 40.2384C50.1843 40.1685 50.1716 40.099 50.1444 40.0345C50.1172 39.97 50.0763 39.9122 50.0244 39.8649C49.9726 39.8177 49.911 39.7822 49.844 39.7609C49.777 39.7396 49.7062 39.733 49.6364 39.7415H49.1364ZM49.5455 40.0125C49.8182 40.0125 49.8637 40.1481 49.8637 40.2384C49.8637 40.4191 49.8182 40.5094 49.4546 40.5094H49.4091V40.0125H49.5455ZM50.7727 40.5997C50.7727 40.8231 50.7061 41.0414 50.5812 41.2271C50.4564 41.4128 50.2789 41.5575 50.0713 41.643C49.8636 41.7285 49.6351 41.7508 49.4147 41.7073C49.1943 41.6637 48.9918 41.5562 48.8329 41.3982C48.6739 41.2403 48.5657 41.0391 48.5219 40.82C48.478 40.601 48.5005 40.3739 48.5865 40.1676C48.6725 39.9613 48.8182 39.7849 49.0051 39.6608C49.1919 39.5367 49.4116 39.4705 49.6364 39.4705C49.786 39.4693 49.9343 39.4977 50.0727 39.554C50.2111 39.6103 50.3369 39.6935 50.4426 39.7986C50.5484 39.9037 50.632 40.0286 50.6887 40.1662C50.7454 40.3037 50.774 40.4511 50.7727 40.5997ZM49.6364 39.1995C49.3577 39.1995 49.0853 39.2816 48.8535 39.4355C48.6218 39.5893 48.4412 39.808 48.3346 40.0639C48.2279 40.3198 48.2 40.6013 48.2544 40.8729C48.3087 41.1445 48.4429 41.394 48.64 41.5899C48.8371 41.7857 49.0881 41.9191 49.3615 41.9731C49.6348 42.0271 49.9181 41.9994 50.1756 41.8934C50.4331 41.7874 50.6532 41.6079 50.808 41.3777C50.9628 41.1474 51.0455 40.8767 51.0455 40.5997C51.0363 40.2313 50.8848 39.8804 50.6226 39.6198C50.3603 39.3591 50.0072 39.2087 49.6364 39.1995Z" fill="#FFBE00"/>
<path d="M40 41.458C39.0909 41.0514 31.5 37.7541 29.0455 35.7666C26.4091 33.5985 25 30.527 25 26.8683V9.29737C29.1818 7.08407 34.1818 6 40 6C45.8182 6 50.8182 7.12923 55 9.29737V26.8683C55 30.5721 53.5909 33.6888 50.9545 35.7666C48.5455 37.7089 40.9091 41.0514 40 41.458Z" fill="#FFBE00"/>
<path d="M26.4092 26.8231C26.4092 30.1204 27.6365 32.8306 29.9546 34.6825C32.0001 36.3538 38.2274 39.1543 40.0001 39.9674C41.7728 39.1995 48.0001 36.399 50.0455 34.6825C52.3637 32.7854 53.591 30.1204 53.591 26.8231V9.6587C44.9092 8.84565 34.5455 9.34251 26.4092 16.7955V26.8231ZM27.7728 25.7842V17.6537H30.3637V25.9197C30.3637 26.6424 30.5455 27.7716 31.7274 27.7716C32.1588 27.7879 32.5855 27.678 32.9546 27.4554V17.6085H35.5455V28.8557C34.3633 29.5912 32.9845 29.9534 31.591 29.8946C29.0455 29.8946 27.7728 28.4943 27.7728 25.7842ZM39.5001 35.1794H36.8637V18.2861C37.9344 17.6544 39.1648 17.3409 40.4092 17.3827C43.5455 17.3827 45.2274 19.7315 45.2274 23.5257C45.2274 27.3199 43.5455 29.9398 40.6819 29.9398C40.2844 29.9335 39.8886 29.8881 39.5001 29.8042V35.1794ZM39.5001 19.6411C39.7903 19.5291 40.0979 19.468 40.4092 19.4605C41.9092 19.4605 42.5455 20.68 42.5455 23.5709C42.5455 26.4617 41.8183 27.7716 40.3183 27.7716C40.0257 27.7634 39.7355 27.7178 39.4546 27.6361L39.5001 19.6411ZM45.8183 20.7252C45.8183 18.6022 47.591 17.3827 49.3183 17.3375C50.3451 17.2762 51.3604 17.5805 52.1819 18.1957V20.4542C51.551 19.8219 50.7118 19.437 49.8183 19.3701C49.091 19.3701 48.3183 19.6863 48.2728 20.6349C48.2274 21.5834 49.0001 21.9448 50.0001 22.532C52.1819 23.7967 52.591 24.9711 52.5455 26.4617C52.5001 28.133 51.3637 29.9398 48.7728 29.9398C47.7615 29.9335 46.7712 29.6523 45.9092 29.1267V26.7327C46.6043 27.3437 47.4833 27.709 48.4092 27.7716C49.3637 27.7716 50.0001 27.2296 49.9546 26.3262C49.9546 25.5132 49.4546 25.0615 48.3183 24.3839C46.2274 23.1643 45.8637 22.1254 45.8183 20.7252Z" fill="#330000"/>
</svg>
