<svg xmlns="http://www.w3.org/2000/svg" fill="none" viewBox="0.66 7.13 78.57 26.21">
<g id="logo">
<path id="Vector" d="M5.05799 14.5327H2.75399V17.8987C2.75399 18.1787 2.82199 18.3847 2.96599 18.5127C3.10999 18.6407 3.31399 18.7167 3.57999 18.7327C3.84599 18.7487 4.18599 18.7487 4.57999 18.7247V20.6187C3.14799 20.7787 2.13199 20.6487 1.54799 20.2167C0.955992 19.7847 0.667992 19.0107 0.667992 17.9047V14.5387H0.659992V10.8927L2.75199 10.2627V12.5287H5.06399V14.5367L5.05599 14.5287L5.05799 14.5327Z" fill="white"/>
<path id="Vector_2" d="M10.554 12.2971C11.44 12.2971 12.168 12.5931 12.744 13.1911C13.32 13.7891 13.608 14.6091 13.608 15.6551V20.6271H11.516V15.9131C11.516 15.3751 11.372 14.9571 11.076 14.6771C10.78 14.3971 10.394 14.2451 9.90799 14.2451C9.36999 14.2451 8.93799 14.4111 8.61199 14.7451C8.28599 15.0791 8.12599 15.5791 8.12599 16.2531V20.6271H6.03399V9.28711H8.12599V13.4331C8.63399 12.6751 9.43799 12.2971 10.536 12.2971H10.552H10.554Z" fill="white"/>
<path id="Vector_3" d="M17.164 17.4366C17.444 18.4526 18.202 18.9606 19.446 18.9606C20.242 18.9606 20.848 18.6886 21.258 18.1486L22.94 19.1186C22.144 20.2706 20.962 20.8546 19.408 20.8546C18.066 20.8546 16.998 20.4526 16.186 19.6426C15.374 18.8306 14.974 17.8166 14.974 16.5806C14.974 15.3446 15.376 14.3446 16.172 13.5266C16.968 12.7086 17.998 12.3066 19.25 12.3066C20.502 12.3066 21.418 12.7166 22.19 13.5346C22.964 14.3526 23.35 15.3686 23.35 16.5826C23.35 16.8546 23.32 17.1366 23.266 17.4386H17.164V17.4366ZM17.134 15.8146H21.264C21.142 15.2606 20.9 14.8526 20.528 14.5866C20.156 14.3146 19.732 14.1846 19.254 14.1846C18.694 14.1846 18.23 14.3286 17.86 14.6166C17.496 14.9046 17.254 15.3066 17.132 15.8226V15.8146H17.134Z" fill="white"/>
<path id="Vector_4" d="M26.888 13.9187C27.086 13.4027 27.404 13.0087 27.85 12.7507C28.298 12.4927 28.798 12.3647 29.35 12.3647V14.6987C28.714 14.6227 28.144 14.7527 27.644 15.0847C27.144 15.4187 26.894 15.9707 26.894 16.7527V20.6187H24.802V12.5227H26.894V13.9167H26.886L26.888 13.9187Z" fill="white"/>
<path id="Vector_5" d="M51.258 19.611C50.424 20.437 49.408 20.847 48.21 20.847C47.012 20.847 45.996 20.437 45.178 19.611C44.352 18.785 43.942 17.777 43.942 16.579C43.942 15.381 44.352 14.365 45.178 13.547C46.004 12.721 47.012 12.311 48.21 12.311C49.408 12.311 50.424 12.721 51.258 13.547C52.092 14.373 52.5 15.381 52.5 16.579C52.5 17.777 52.084 18.793 51.258 19.611ZM46.65 18.179C47.066 18.603 47.582 18.809 48.212 18.809C48.842 18.809 49.364 18.597 49.78 18.179C50.198 17.763 50.41 17.223 50.41 16.579C50.41 15.935 50.198 15.397 49.78 14.979C49.364 14.563 48.832 14.349 48.212 14.349C47.592 14.349 47.068 14.561 46.65 14.979C46.234 15.403 46.028 15.935 46.028 16.579C46.028 17.223 46.232 17.761 46.65 18.179Z" fill="white"/>
<path id="Vector_6" d="M69.746 14.503C69.36 14.503 68.23 14.449 67.79 13.229V20.619H69.86V14.495C69.86 14.495 69.784 14.503 69.746 14.503Z" fill="white"/>
<path id="Vector_7" d="M69.676 13.1988C68.858 13.1988 68.258 12.6448 67.85 11.5088L67.676 11.0308L67.524 11.0768C67.38 11.1228 66.25 11.4708 65.704 11.8508C65.674 11.7368 65.644 11.6228 65.628 11.5088C65.484 10.5168 66.014 9.84077 67.296 9.37877L67.774 9.20477L67.728 9.05277C67.682 8.90877 67.334 7.77877 66.962 7.23277C67.076 7.20277 67.19 7.17277 67.304 7.15677C67.41 7.14077 67.508 7.13477 67.608 7.13477C68.426 7.13477 69.026 7.68877 69.434 8.82477L69.608 9.31077L69.76 9.26477C69.904 9.21877 71.034 8.87077 71.58 8.49077C71.61 8.60477 71.64 8.71877 71.656 8.83277C71.8 9.82477 71.27 10.5008 69.988 10.9628L69.548 11.1228V11.2368C69.548 11.2908 69.926 12.5248 70.328 13.1088C70.214 13.1388 70.1 13.1688 69.988 13.1848C69.882 13.2008 69.784 13.2068 69.684 13.2068L69.676 13.1988Z" fill="white"/>
<path id="Vector_8" d="M79.228 20.6189H76.818L75.06 18.1629L73.302 20.6189H70.892L73.856 16.4889L71.022 12.5249H73.432L75.062 14.8069L76.7 12.5249H79.096L76.262 16.4809L79.226 20.6189H79.234H79.228Z" fill="white"/>
<path id="Vector_9" d="M39.516 12.2969C40.44 12.2969 41.184 12.6009 41.744 13.2069C42.304 13.8129 42.578 14.6249 42.578 15.6329V20.6209H40.486V15.7769C40.486 15.2909 40.364 14.9129 40.13 14.6409C39.896 14.3689 39.562 14.2389 39.13 14.2389C38.652 14.2389 38.288 14.3989 38.024 14.7089C37.758 15.0189 37.63 15.4749 37.63 16.0649V20.6129H35.538V15.7689C35.538 15.2829 35.416 14.9049 35.182 14.6329C34.948 14.3609 34.614 14.2309 34.182 14.2309C33.72 14.2309 33.348 14.3909 33.076 14.7009C32.804 15.0109 32.666 15.4669 32.666 16.0569V20.6049H30.574V12.5249H32.666V13.3809C33.152 12.6609 33.902 12.2969 34.918 12.2969C35.934 12.2969 36.646 12.6829 37.116 13.4649C37.654 12.6849 38.458 12.2969 39.526 12.2969H39.518H39.516Z" fill="white"/>
<path id="Vector_10" d="M62.93 12.2969C63.854 12.2969 64.598 12.6009 65.158 13.2069C65.72 13.8129 65.992 14.6249 65.992 15.6329V20.6209H63.9V15.7769C63.9 15.2909 63.778 14.9129 63.544 14.6409C63.31 14.3689 62.976 14.2389 62.544 14.2389C62.066 14.2389 61.702 14.3989 61.438 14.7089C61.172 15.0189 61.044 15.4749 61.044 16.0649V20.6129H58.952V15.7689C58.952 15.2829 58.83 14.9049 58.596 14.6329C58.362 14.3609 58.028 14.2309 57.596 14.2309C57.134 14.2309 56.762 14.3909 56.49 14.7009C56.218 15.0109 56.08 15.4669 56.08 16.0569V20.6049H53.988V12.5249H56.08V13.3809C56.566 12.6609 57.316 12.2969 58.332 12.2969C59.348 12.2969 60.06 12.6829 60.53 13.4649C61.068 12.6849 61.872 12.2969 62.94 12.2969H62.932H62.93Z" fill="white"/>
<path id="Vector_11" d="M33.816 31.3808H33.384C34.142 32.5648 35.464 33.3468 36.974 33.3468C38.294 33.3468 39.478 32.7468 40.252 31.8068C41.034 32.7488 42.218 33.3468 43.538 33.3468C45.048 33.3468 46.376 32.5648 47.128 31.3808H46.696C45.982 32.3608 44.836 32.9888 43.532 32.9888C42.158 32.9888 40.944 32.2748 40.246 31.1968C39.548 32.2748 38.342 32.9888 36.968 32.9888C35.67 32.9888 34.516 32.3508 33.804 31.3808M43.518 29.8848V29.0048H44.922V28.4808H43.518V27.7068H45.09V27.1828H42.82V30.4088H45.166V29.8848H43.52H43.518ZM41.416 30.4088L42.32 27.1828H41.698L41.114 29.4208L40.606 27.1828H39.954L39.4 29.4288L38.884 27.1828H38.11L39.006 30.4088H39.69L40.198 28.3448L40.722 30.4088H41.42H41.416ZM37.91 30.4088L37.076 29.1788C37.296 29.0948 37.766 28.7908 37.766 28.2448C37.766 27.5548 37.234 27.1828 36.666 27.1828H35.17V30.4088H35.868V27.6768H36.46C36.772 27.6768 37.052 27.8808 37.052 28.2608C37.052 28.6408 36.718 28.8528 36.338 28.8528C36.27 28.8528 36.202 28.8528 36.148 28.8448L37.028 30.4008H37.9L37.908 30.4088H37.91ZM29.918 30.4088L31.102 27.1828H30.45L29.622 29.5508L28.818 27.1828H28.022L29.228 30.4088H29.918ZM33.88 28.7928C33.88 29.4528 33.462 29.9848 32.924 29.9848C32.386 29.9848 31.968 29.4528 31.968 28.7928C31.968 28.1328 32.386 27.6008 32.924 27.6008C33.462 27.6008 33.88 28.1328 33.88 28.7928ZM32.924 27.0848C31.99 27.0848 31.24 27.8508 31.24 28.7928C31.24 29.7348 31.998 30.5008 32.924 30.5008C33.85 30.5008 34.616 29.7348 34.616 28.7928C34.616 27.8508 33.858 27.0848 32.924 27.0848ZM46.676 26.1968H47.108C46.35 25.0208 45.028 24.2388 43.526 24.2388C42.206 24.2388 41.022 24.8388 40.24 25.7868C39.458 24.8448 38.282 24.2388 36.954 24.2388C35.452 24.2388 34.13 25.0208 33.372 26.1968H33.804C34.518 25.2248 35.664 24.5948 36.954 24.5948C38.328 24.5948 39.542 25.3088 40.24 26.3868C40.938 25.3088 42.144 24.5948 43.526 24.5948C44.824 24.5948 45.97 25.2248 46.676 26.1968ZM48.512 30.4088L47.678 29.1788C47.898 29.0948 48.368 28.7908 48.368 28.2448C48.368 27.5548 47.836 27.1828 47.268 27.1828H45.772V30.4088H46.462V27.6768H47.054C47.366 27.6768 47.646 27.8808 47.646 28.2608C47.646 28.6408 47.312 28.8528 46.932 28.8528C46.864 28.8528 46.796 28.8528 46.742 28.8448L47.622 30.4008H48.494L48.508 30.4088H48.512ZM48.982 30.4088H49.672V27.1828H48.982V30.4088ZM51.874 30.4088L50.522 28.6168L51.722 27.1828H50.888L49.764 28.6548L50.948 30.4088H51.874Z" fill="white"/>
</g>
</svg>