<svg xmlns="http://www.w3.org/2000/svg" data-name="Ebene 1" viewBox="0 0 16 16"><path fill="#00ac46" fill-rule="evenodd" d="M15.27 8.018c-.009-.01-.011-.022 0-.033.082-.093.172-.18.261-.266.045-.044.09-.087.134-.132.089-.09.166-.19.225-.303a.904.904 0 0 0-1.06-1.294 1.064 1.064 0 0 0-.44.268l-.15.152c-.09.093-.181.186-.278.272-.008.007-.019.008-.027 0l-.153-.152c-.01-.01-.008-.023.001-.033.086-.094.178-.184.27-.273l.129-.127c.085-.085.157-.179.214-.284a.908.908 0 0 0 .104-.597.9.9 0 0 0-1.128-.721 1.08 1.08 0 0 0-.48.285c-.05.05-.099.102-.148.154a4.218 4.218 0 0 1-.259.259c-.017.015-.026.015-.044-.002-.046-.045-.092-.09-.137-.137-.022-.023-.021-.03.002-.056.083-.089.17-.175.257-.26l.142-.14c.095-.096.173-.204.23-.326.068-.146.1-.3.087-.462a.864.864 0 0 0-.272-.578.876.876 0 0 0-.865-.223c-.19.048-.348.153-.486.289l-.155.156a9.744 9.744 0 0 1-.25.248c-.012.011-.026.015-.039.003l-.147-.147c-.009-.01-.01-.022 0-.033.09-.1.188-.195.285-.289l.124-.122c.06-.06.113-.125.159-.196a.941.941 0 0 0 .159-.614.865.865 0 0 0-.376-.647c-.273-.192-.568-.216-.876-.094a1.126 1.126 0 0 0-.378.258l-.129.132a5.227 5.227 0 0 1-.271.266c-.01.009-.023.01-.033 0-.049-.049-.099-.097-.147-.147-.009-.01-.01-.023 0-.033.081-.088.167-.172.252-.256l.115-.113a1.34 1.34 0 0 0 .245-.316.922.922 0 0 0 .113-.537.857.857 0 0 0-.341-.62c-.313-.238-.651-.254-.999-.08a1.197 1.197 0 0 0-.302.227 7.192 7.192 0 0 0-.122.125 5.11 5.11 0 0 1-.268.263c-.011.009-.023.01-.033 0a5.17 5.17 0 0 1-.269-.265L7.59.339a1.244 1.244 0 0 0-.296-.223.905.905 0 0 0-.698-.077.9.9 0 0 0-.623 1.065c.045.196.144.363.284.506.053.054.108.107.163.161.088.085.176.17.257.261.016.018.016.027 0 .045l-.094.095-.005.005c-.033.033-.047.049-.061.049-.014 0-.027-.016-.058-.047l-.261-.261-.096-.096a1.243 1.243 0 0 0-.284-.215.91.91 0 0 0-.582-.109.9.9 0 0 0-.739 1.127c.05.186.149.344.284.481.05.051.101.1.152.15.086.084.172.167.253.255.023.025.024.032.001.056l-.076.077-.034.034c-.046.046-.047.046-.092 0h-.001c-.032-.034-.065-.066-.097-.098l-.276-.276a1.24 1.24 0 0 0-.22-.176.918.918 0 0 0-.646-.143.9.9 0 0 0-.719 1.175c.056.171.153.316.279.442.134.135.275.265.404.406.012.013.011.027-.001.039l-.131.132c-.028.028-.033.027-.061.001-.136-.126-.264-.263-.394-.394a1.168 1.168 0 0 0-.171-.143.947.947 0 0 0-.615-.179.862.862 0 0 0-.649.345c-.214.279-.246.587-.118.912.056.143.147.263.255.372.134.135.279.262.403.406.007.008.008.019 0 .027l-.152.153c-.01.01-.023.008-.033-.001-.101-.091-.196-.189-.291-.287-.04-.041-.079-.082-.12-.122a1.15 1.15 0 0 0-.279-.207.914.914 0 0 0-.626-.094.9.9 0 0 0-.687 1.113c.044.172.132.321.252.449.069.074.141.145.212.217l.09.09.061.061.049.049c.027.028.041.04.041.053 0 .012-.013.025-.039.051l-.254.254-.103.103c-.09.09-.167.189-.227.302a.905.905 0 0 0 1.034 1.309c.178-.051.331-.145.462-.274.066-.064.131-.13.195-.195.075-.075.15-.151.226-.225.012-.012.026-.015.039-.002l.147.147c.01.01.009.023 0 .033-.084.096-.177.185-.269.274l-.129.126a1.24 1.24 0 0 0-.207.271.91.91 0 0 0-.112.61.9.9 0 0 0 1.14.718c.18-.053.334-.15.466-.281.049-.048.097-.097.144-.146.089-.091.178-.182.272-.267.011-.01.023-.009.033 0l.106.104c.033.033.049.047.049.061 0 .014-.016.027-.047.059l-.132.132-.235.236a1.14 1.14 0 0 0-.263.401.894.894 0 0 0-.041.504.86.86 0 0 0 .275.483.874.874 0 0 0 .785.219c.206-.039.379-.143.528-.286.08-.077.158-.156.235-.235.061-.062.122-.125.185-.186.017-.017.029-.017.045-.002l.142.142c.015.016.014.026-.002.045-.087.096-.18.187-.274.277-.042.041-.084.081-.125.123a1.133 1.133 0 0 0-.147.177.948.948 0 0 0-.174.631.864.864 0 0 0 .331.618.878.878 0 0 0 .861.152 1.11 1.11 0 0 0 .435-.277l.155-.156c.081-.082.162-.163.245-.243.012-.012.026-.015.039-.003l.147.147c.01.01.01.023 0 .033-.087.1-.184.193-.28.286l-.134.131a1.14 1.14 0 0 0-.21.287.9.9 0 0 0 .489 1.278.91.91 0 0 0 .748-.06c.115-.06.215-.141.307-.233l.352-.352c.026-.026.038-.038.05-.038.012 0 .024.013.048.037l.132.132.231.231c.088.088.185.164.296.223a.92.92 0 0 0 .648.091.857.857 0 0 0 .45-.26.877.877 0 0 0 .23-.789 1.021 1.021 0 0 0-.289-.535c-.054-.056-.11-.11-.167-.165-.086-.084-.173-.167-.253-.257-.016-.018-.017-.028 0-.045l.115-.116c.045-.045.046-.045.093.002l.326.326.042.042c.085.085.178.158.283.215a.915.915 0 0 0 .604.106.9.9 0 0 0 .66-1.283 1.167 1.167 0 0 0-.23-.326l-.137-.135a7.106 7.106 0 0 1-.273-.276c-.012-.014-.01-.027.002-.039l.012-.012.114-.115c.035-.034.037-.034.072-.001.091.086.179.176.268.266l.122.123c.067.067.14.126.221.175a.921.921 0 0 0 .662.136.9.9 0 0 0 .704-1.156 1.1 1.1 0 0 0-.283-.457l-.149-.148a10.34 10.34 0 0 1-.255-.258c-.012-.013-.013-.027 0-.039l.148-.147c.01-.01.023-.008.033.001.099.089.193.185.286.281l.131.133c.071.07.149.131.235.181a.927.927 0 0 0 .584.129.865.865 0 0 0 .61-.346c.211-.278.242-.584.115-.906a1.128 1.128 0 0 0-.259-.378 7.907 7.907 0 0 0-.131-.128 4.277 4.277 0 0 1-.267-.272c-.009-.011-.008-.023.002-.033l.147-.147c.01-.01.022-.011.033-.001.102.091.198.19.294.289l.123.125c.083.083.176.152.28.206a.905.905 0 0 0 1.28-1.111 1.163 1.163 0 0 0-.277-.418 8.154 8.154 0 0 0-.133-.13c-.089-.086-.179-.172-.26-.265ZM9.358.529a.435.435 0 0 1 .183.197c.052.112.05.225.007.339a.612.612 0 0 1-.136.211l-.296.296-.109.108-.022.02c-.011.009-.022.01-.033 0l-.033-.03-.069-.069-.467-.467c-.046-.047-.046-.048-.001-.093l.013-.013.371-.37a.634.634 0 0 1 .221-.147.429.429 0 0 1 .371.018Zm-.417 2.255-.081.081-.28.28-.008.008-.029.028c-.019.017-.027.017-.045.002l-.038-.036-.005-.005-.585-.585-.043-.043-1.206-1.206a.736.736 0 0 1-.143-.189.454.454 0 0 1-.051-.287.425.425 0 0 1 .525-.343c.101.025.186.08.262.149l.03.03.012.012.401.401 1.422 1.422.022.021c.025.024.037.037.038.049 0 .012-.012.025-.037.049l-.021.021-.095.095-.046.046Zm2.12-.458a.427.427 0 0 0-.659-.294.8.8 0 0 0-.168.133L8.785 3.614l-.384.384-.005.005-.011.011q-.045.047 0 .093l.018.018.008.008.142.142c.114.114.227.228.342.341l.027.027c.024.025.037.038.049.038.013 0 .025-.013.05-.039l.024-.025 1.698-1.698.109-.109c.024-.025.049-.049.071-.075a.602.602 0 0 0 .111-.183.446.446 0 0 0 .028-.226Zm2.597 6.018.243.242.782.782a.91.91 0 0 0 .129.111.56.56 0 0 0 .159.078.412.412 0 0 0 .331-.032.424.424 0 0 0 .189-.543.669.669 0 0 0-.154-.225L14.08 7.5l-.059-.059-.533-.533-.043-.041c-.011-.009-.022-.009-.033 0l-.022.02-.099.099-.453.453c-.04.041-.04.042 0 .083l.031.031.005.005.006.006.779.779Zm-9.033.558-.535-.534c-.017-.016-.031-.028-.049-.012a1.3 1.3 0 0 0-.053.052l-1.792 1.791-.019.019-.049.049a.627.627 0 0 0-.148.246.406.406 0 0 0 .041.343c.086.14.213.211.378.209a.465.465 0 0 0 .225-.068.852.852 0 0 0 .18-.143l1.387-1.387.43-.43.005-.005.004-.004.027-.027c.027-.029.027-.034.002-.061l-.027-.028-.003-.003-.004-.004-.002-.002Zm7.763 3.56a.428.428 0 0 1-.426.058.65.65 0 0 1-.189-.117l-.076-.071-1.808-1.808-.018-.017c-.026-.026-.039-.038-.038-.051 0-.012.012-.024.037-.048l.019-.019.362-.362.137-.137.005-.005.004-.004a.727.727 0 0 1 .028-.027c.027-.025.033-.025.061.001l.027.027.01.01.429.429 1.379 1.379a.92.92 0 0 1 .133.159.527.527 0 0 1 .08.198.408.408 0 0 1-.115.368l-.032.03-.007.007-.003.002Zm-4.132 1.109-.305-.305-.119-.119-.002-.002-.303-.303c-.046-.045-.047-.045-.093.001l-.018.017-.492.492a.602.602 0 0 1-.027.026c-.026.025-.038.037-.039.05 0 .013.013.026.04.052l.023.023 1.787 1.787.086.082a.622.622 0 0 0 .134.094.427.427 0 0 0 .644-.429.579.579 0 0 0-.093-.225 1.005 1.005 0 0 0-.121-.14l-1.076-1.076-.013-.012-.013-.013Zm-3.173-.31a.48.48 0 0 0 .022-.024l.053-.056 1.803-1.802.02-.02c.025-.026.038-.039.051-.039.012 0 .025.013.049.037s.004.005.006.007l.014.014.457.457.053.053.008.008c.022.022.033.033.033.044 0 .012-.013.025-.039.052l-.919.919-.117.117-.087.087-.694.694a1.546 1.546 0 0 1-.121.109.589.589 0 0 1-.24.112.425.425 0 0 1-.5-.403.457.457 0 0 1 .061-.242.718.718 0 0 1 .088-.126ZM1.802 8.382l.008.008.342.342.083.083.278.278.043.041c.011.01.023.008.033 0l.032-.03.04-.04.49-.49.006-.006c.023-.023.034-.034.034-.045 0-.011-.011-.023-.034-.045s-.004-.005-.006-.007l-.003-.003-.004-.004-.004-.004-.006-.005-.336-.336-1.482-1.482a1.036 1.036 0 0 0-.123-.107.563.563 0 0 0-.186-.09.424.424 0 0 0-.485.212.423.423 0 0 0-.004.393.71.71 0 0 0 .152.209l1.131 1.13Zm4.329-2.883c.023.023.035.035.035.047 0 .012-.012.023-.035.047l-.533.533-.019.018c-.035.032-.037.032-.072 0a.319.319 0 0 1-.026-.026c-.599-.606-1.205-1.205-1.808-1.808-.04-.04-.08-.081-.114-.127a.557.557 0 0 1-.11-.264.427.427 0 0 1 .351-.462.474.474 0 0 1 .32.068c.064.038.12.087.173.14.612.612 1.223 1.226 1.836 1.836Zm6.374.344-.38.383-.387.391-.226.228-.14.141-.011.011c-.023.022-.034.034-.033.044 0 .011.011.021.032.042l.011.011.039.039.465.465.02.02c.023.024.035.036.047.036.012 0 .024-.012.049-.038l.004-.004.015-.015 1.802-1.801c.03-.03.059-.06.086-.092a.596.596 0 0 0 .124-.226.426.426 0 0 0-.299-.528.455.455 0 0 0-.337.047.827.827 0 0 0-.193.15l-.608.614-.08.081Zm-2.362-.344.096.096.343.343.041.043c.01.01.011.022.002.033a.63.63 0 0 1-.036.038L9.024 7.617l-.006.006c-.024.024-.036.036-.047.036-.01 0-.021-.011-.04-.03l-.004-.004-.002-.002-.003-.003-.398-.398-.143-.143c-.023-.023-.035-.035-.035-.047 0-.012.012-.023.035-.046l.646-.646.238-.238.676-.676.015-.015c.025-.025.037-.037.049-.037.012 0 .024.012.048.036l.007.007.011.011.047.047.024.025ZM7.434 9.857l-.068.065-.141.141-.326.325-.004.004-.007.007c-.024.024-.036.035-.035.047 0 .01.011.021.031.041l.003.003.004.004h.001l.006.007.004.004.004.004.01.01.273.273.718.718.285.285.283.283q.046.046.092 0l.145-.146h.001c.128-.13.256-.259.385-.386l.006-.006c.024-.024.037-.036.037-.048 0-.012-.012-.024-.037-.048l-.017-.017L7.82 10.16l-.284-.284a1.344 1.344 0 0 0-.038-.037l-.005-.005c-.013-.013-.026-.012-.039 0l-.021.02Zm2.606-5.568.01-.01.359-.358c.046-.046.047-.046.093 0l.465.465.16.16.211.211.03.03.705.705a.235.235 0 0 0 .017.016c.022.022.033.033.033.044 0 .011-.011.023-.034.046l-.007.007-.006.006-.508.511-.048.046c-.01.01-.023.01-.033.001a.427.427 0 0 1-.038-.036L9.878 4.562l-.004-.004c-.009-.009-.019-.018-.027-.028-.016-.018-.017-.029-.001-.045l.048-.049.023-.023.124-.124Zm1.518 5.966.267.267.019.019h.001v.002l.036.036.012.012c.023.024.035.035.047.035.012 0 .024-.012.049-.037l.011-.011 1.55-1.55.041-.043c.009-.01.01-.022 0-.033l-.03-.033-.536-.536c-.01-.01-.021-.021-.033-.03-.008-.007-.019-.008-.027 0a.651.651 0 0 0-.054.051l-1.535 1.535-.004.004-.005.005-.032.033c-.022.024-.021.03.002.056l.031.032.007.007.003.003.178.178ZM5.929 8.768l-.079.079-.246.246-.043.041c-.01.009-.022.011-.033.001a.833.833 0 0 1-.043-.041L4.114 7.723l-.184-.184-.002-.002-.004-.004-.002-.002-.001-.001-.002-.002c-.045-.047-.046-.047 0-.093l.401-.401.14-.14.003-.003.013-.012c.027-.025.033-.025.061.002l.027.027.01.01.34.34.019.019 1.176 1.176a.332.332 0 0 0 .02.019c.025.024.037.037.037.049 0 .012-.012.024-.036.048l-.019.019-.123.123-.018.018-.017.017-.023.023Zm-.006-4.147.023.023c.024.025.036.037.049.037.012 0 .025-.013.05-.038l.019-.02 1.163-1.162.372-.372.006-.006.015-.015c.045-.046.045-.047-.001-.093l-.526-.526-.004-.004-.003-.003-.006-.006c-.023-.023-.034-.035-.046-.035-.012 0-.024.012-.048.036l-.005.005-.002.002-.005.005-1.55 1.55-.041.043c-.01.01-.01.023 0 .033a.833.833 0 0 0 .041.043c.167.167.333.335.502.501Zm2.913 8.861-.429-.43-.011-.011-.005-.005-.009-.009-.005-.005-.006-.006c-.032-.034-.032-.037.001-.072l.008-.008.014-.014.005-.005.005-.005.368-.368.002-.002 1.164-1.164.018-.018c.025-.026.037-.038.05-.038.012 0 .025.013.049.038l.018.018.499.499.046.048c.01.01.01.023 0 .033a.63.63 0 0 1-.035.038l-1.561 1.561-.005.005-.026.026c-.021.018-.029.019-.05-.002a4.653 4.653 0 0 1-.071-.07l-.032-.032Zm-2.879-2.21-.243-.243-1.136-1.136c-.017-.017-.035-.035-.054-.051-.01-.009-.023-.01-.033 0-.016.015-.033.03-.048.046l-.109.109-.39.39-.022.022c-.024.024-.036.035-.037.048 0 .013.013.026.04.052l.008.008.011.011 1.163 1.161.004.004.373.373.008.008.008.008c.046.044.046.045.093-.001l.467-.467.068-.068c.01-.011.021-.021.03-.033.009-.011.009-.023 0-.033l-.03-.033-.172-.172ZM7.065 7.7l-.151-.151-.009-.009-.028-.029c-.023-.026-.023-.032-.002-.056l.017-.018.004-.004.536-.536c.01-.01.021-.021.033-.03.011-.009.023-.01.033 0a.833.833 0 0 1 .043.041l1.383 1.383.167.167.002.002.004.004.015.015c.039.041.04.042 0 .082l-.419.42-.132.132a.22.22 0 0 1-.016.015c-.021.018-.028.018-.05-.002-.015-.013-.029-.028-.043-.042l-.004-.004-.006-.006L7.318 7.95l-.251-.251Zm-.041-3.367-.039.039-.08.081-.005.005-.005.005c-.023.023-.035.035-.035.047 0 .012.012.025.038.05l.007.007L8.46 6.122l.043.041c.011.01.023.008.033-.001a.833.833 0 0 0 .043-.041l.515-.515L9.1 5.6l.025-.025c.02-.022.02-.03.002-.05l-.025-.026-.005-.005-1.56-1.56-.038-.036c-.01-.009-.023-.01-.033 0a.833.833 0 0 0-.043.041l-.307.307-.091.091Zm.506 1.799-.372.372-1.087 1.087-.024.025c-.026.027-.039.04-.052.04-.012 0-.025-.013-.049-.038l-.026-.026-.373-.372-.126-.127-.009-.009c-.024-.024-.037-.036-.037-.049 0-.012.012-.024.036-.048l.003-.003.006-.006 1.556-1.556.006-.006.006-.006c.023-.024.035-.036.047-.036.012 0 .024.012.047.036l.008.008.413.413.107.107.006.006a.387.387 0 0 1 .02.021c.025.027.025.033-.002.061a4.653 4.653 0 0 1-.07.071l-.033.033Zm-5.114.877c-.02.022-.021.03-.002.05l.025.026.003.003.003.003.117.117.002.002.402.402.01.01c.022.023.034.034.046.034.012 0 .025-.012.051-.038l.008-.008 1.562-1.562c.026-.026.038-.038.038-.051 0-.012-.012-.024-.036-.047-.179-.178-.36-.356-.536-.536-.024-.024-.036-.037-.048-.037-.012 0-.024.012-.049.038-.524.537-1.087 1.043-1.595 1.596Zm7.462 1.46.088-.085.015-.014.009-.009c.013-.012.026-.012.039 0l.008.007.019.019.109.109.427.427c.047.047.047.048.002.093l-.222.222-.082.083-.318.317-.929.928-.024.025c-.025.026-.038.039-.05.039-.012 0-.025-.013-.049-.038l-.027-.027c-.159-.157-.316-.316-.474-.474l-.036-.036c-.047-.047-.046-.047-.002-.093.494-.503.997-.996 1.497-1.493Zm1.346-.851-.185-.185-.533-.533c-.045-.045-.046-.045-.093 0l-.531.53-.01.01c-.023.023-.035.035-.035.047 0 .012.012.024.036.048s.006.007.009.01l.774.773.406.406.38.38.002.002c.025.025.037.037.049.037.011 0 .023-.011.044-.033l.004-.004.525-.525.012-.012c.024-.024.036-.036.036-.048 0-.012-.012-.024-.036-.047l-.012-.012-.618-.618-.226-.226Zm-5.132 2.92-.007.007-.076.075c-.01.01-.023.009-.033 0l-.033-.03-.531-.53-.003-.003-.022-.023c-.018-.021-.018-.028.003-.05l.033-.034.005-.005.003-.003.316-.316 1.217-1.217.019-.019c.025-.025.037-.038.05-.038.012 0 .024.012.049.037l.011.011.007.007.411.411.088.088.046.048c.01.011.009.023 0 .033a2.6 2.6 0 0 1-.051.053l-.391.388-.851.847-.182.186a5.52 5.52 0 0 1-.076.078Zm-2.446 1.187a.788.788 0 0 0-.134.175.482.482 0 0 0-.063.232.425.425 0 0 0 .502.415.576.576 0 0 0 .179-.07.856.856 0 0 0 .156-.125l.065-.065.291-.293c.025-.026.037-.038.037-.05 0-.012-.012-.023-.034-.045l-.003-.003-.536-.536a.47.47 0 0 0-.033-.03c-.008-.007-.018-.008-.027-.001a.235.235 0 0 0-.033.03l-.045.045-.322.322Zm-2.61-3.334c.027-.027.039-.04.052-.039.012 0 .023.012.045.034l.011.011.489.489.031.031.036.038c.01.011.01.023.001.033l-.03.033-.104.104c-.093.093-.186.187-.28.279a.6.6 0 0 1-.314.172.427.427 0 0 1-.488-.334.465.465 0 0 1 .062-.328.748.748 0 0 1 .123-.157l.249-.248.107-.107.01-.01Zm9.912 5.519a.398.398 0 0 0 .099-.162.45.45 0 0 0-.047-.37.651.651 0 0 0-.102-.137l-.409-.411c-.027-.027-.034-.026-.061-.001l-.013.012-.003.003-.056.056-.486.486c-.01.01-.021.021-.03.033-.007.009-.007.019 0 .027l.04.044.118.121c.097.101.194.201.3.291a.6.6 0 0 0 .219.122.412.412 0 0 0 .429-.113Zm2.738-3.831.061.062c.046.047.091.092.134.138.077.083.13.179.152.293a.423.423 0 0 1-.217.444.412.412 0 0 1-.331.032.542.542 0 0 1-.171-.087 1.051 1.051 0 0 1-.101-.087c-.095-.093-.188-.187-.282-.281l-.081-.081a.63.63 0 0 1-.035-.038c-.009-.011-.008-.023.001-.033l.025-.027.089-.089.453-.452c.047-.047.047-.046.093-.001l.144.144.064.064Zm-6.305 5.122.067-.067.013-.013.041-.041.118-.118c.045-.045.045-.046-.002-.093l-.479-.479-.056-.057c-.01-.01-.021-.021-.033-.03-.011-.01-.023-.008-.033 0l-.022.02-.11.11v.001c-.094.094-.189.188-.282.283a.617.617 0 0 0-.158.257.415.415 0 0 0 .048.356.423.423 0 0 0 .529.161.662.662 0 0 0 .214-.144l.147-.147Zm7.226-8.49.034-.034.069-.069a.654.654 0 0 1 .234-.154c.175-.06.334-.032.464.104a.405.405 0 0 1 .1.412.567.567 0 0 1-.14.242l-.302.304-.118.117a.259.259 0 0 1-.017.015c-.011.009-.023.008-.033 0l-.027-.025-.541-.541c-.023-.023-.035-.035-.035-.047s.012-.023.035-.047l.277-.277Zm-2.392-2.289.081-.081.006-.006.005-.005.011-.011.044-.044a.776.776 0 0 0 .122-.158.476.476 0 0 0 .068-.27.426.426 0 0 0-.484-.391.534.534 0 0 0-.194.071.675.675 0 0 0-.124.094l-.41.408c-.028.028-.027.033-.002.061l.024.024.008.008.509.509.008.008.03.029c.022.02.03.021.05.002.013-.011.024-.023.036-.035l.006-.006.206-.206Zm-6.294-1.59.219-.219q.034-.042.008-.07l-.019-.02-.007-.007-.065-.065-.161-.161-.025-.025a6.399 6.399 0 0 0-.145-.141.595.595 0 0 0-.256-.145.426.426 0 0 0-.529.347.466.466 0 0 0 .057.293.723.723 0 0 0 .125.166l.32.32.053.053c.01.01.021.021.033.03.011.009.022.01.033 0 .016-.015.033-.03.048-.046l.303-.303.008-.008ZM2.123 5.729a.596.596 0 0 1-.142-.241.425.425 0 0 1 .566-.52.623.623 0 0 1 .223.145c.135.132.267.266.4.399l.019.023c.007.009.005.019-.002.027l-.03.033-.536.536-.004.004a.488.488 0 0 1-.023.022c-.019.016-.027.017-.045.001l-.031-.03-.006-.006c-.131-.13-.262-.26-.389-.393Zm8.703.822.146.143c.009.002.015.003.019 0a1.54 1.54 0 0 0 .16-.153c.01-.011.009-.023 0-.033L11 6.356c-.016-.016-.025-.015-.044.004l-.131.13c-.026.026-.026.032.002.061Zm-4.2 4.498-.015.015-.075.073c-.017.016-.027.016-.044 0-.046-.044-.09-.09-.135-.135s-.005-.006-.005-.006c-.012-.012-.016-.026-.003-.039.049-.052.099-.103.15-.153.008-.008.019-.007.027 0l.157.157c.01.01.008.023 0 .033l-.023.025-.011.011-.019.019Zm3.022-.096-.145-.144c-.015-.007-.024-.006-.031.002l-.146.146c-.012.012-.013.027 0 .039l.146.146c.013.013.027.009.039-.003l.004-.004.137-.137c.016-.016.015-.027-.002-.045Zm-1.793 1.549c-.032-.042-.033-.042-.005-.07l.125-.125c.022-.021.031-.022.05-.003.048.046.094.094.141.141.012.012.012.027 0 .039l-.002.002a9.108 9.108 0 0 1-.139.139c-.017.017-.028.017-.044 0a6.852 6.852 0 0 1-.086-.085l-.038-.038ZM6.386 7.947l-.019.019-.012.012c-.012.014-.019.026-.008.037.05.052.101.102.152.153.01.01.023.01.033 0l.148-.147c.013-.013.01-.027-.002-.039l-.008-.008a7.724 7.724 0 0 0-.128-.128c-.023-.022-.03-.022-.056.003l-.099.098Zm4.688 1.457.01.01.009.009.037.037c.024.025.025.033.003.055-.045.046-.09.091-.136.135-.017.016-.027.016-.044 0l-.141-.141c-.012-.012-.012-.027 0-.039.047-.047.093-.095.141-.141.017-.017.027-.017.044-.001l.053.051.024.024Zm-2.913.109c.017-.017.017-.029.002-.044a4.687 4.687 0 0 0-.141-.141c-.017-.016-.029-.017-.045-.002l-.146.146c-.01.01-.008.023.002.033l.151.151c.01.01.022.01.033 0 .051-.043.097-.094.144-.143Zm-3.01.037-.011.011a8.111 8.111 0 0 1-.094.093c-.012.012-.027.012-.039 0l-.146-.146c-.009-.01-.011-.023 0-.033l.151-.151c.011-.01.023-.007.033.002.047.046.095.093.141.141.019.019.018.024-.002.05l-.011.012-.008.008-.014.014Zm7.31-1.374c.013 0 .026-.013.053-.04l.01-.01.026-.026.076-.078c.009-.009.012-.022.002-.033l-.151-.151c-.01-.01-.023-.008-.033.001l-.146.146c-.012.012-.012.027 0 .039l.104.105.007.007.005.005c.023.023.035.036.047.036ZM3.59 8.137c-.026.026-.038.039-.051.039-.013 0-.025-.013-.05-.038l-.025-.025a2.5 2.5 0 0 1-.088-.09c-.009-.01-.01-.023 0-.033l.146-.147c.012-.012.026-.013.039 0l.004.004a.281.281 0 0 1 .018.017l.025.025.075.075c.041.042.041.042.002.082l-.045.045-.022.022-.027.027Zm4.263-1.583.038.039.082.081c.022.021.03.021.05.002l.137-.137c.017-.017.017-.028.001-.045l-.141-.141c-.013-.013-.027-.012-.039 0l-.018.018-.119.119c-.022.023-.021.024.01.065Zm-2.854-.195c.022-.021.03-.021.05-.003l.136.136c.018.018.019.029.004.044l-.146.146c-.01.01-.023.01-.033 0a20.166 20.166 0 0 1-.147-.146c-.012-.012-.013-.026 0-.039.044-.048.09-.094.138-.138Zm4.56-1.218.02-.02.009-.009.011-.011.05-.051c.012-.013.011-.027 0-.039a20.304 20.304 0 0 0-.147-.146c-.01-.01-.023-.01-.033 0l-.147.145c-.012.012-.014.026-.001.039l.146.146c.013.013.027.009.039-.002l.051-.05Zm-3.076-.263c.035-.024.036-.025.053-.008l.136.136c.017.017.017.028.002.045a6.248 6.248 0 0 1-.141.141c-.012.012-.026.014-.039.002a9.372 9.372 0 0 1-.141-.141c-.016-.017-.016-.027.001-.045l.095-.096.019-.019.015-.015Zm1.608-1.242.01-.01.017-.017.044-.045c.012-.013.013-.027 0-.039l-.037-.038a1.314 1.314 0 0 0-.126-.12c-.059.051-.111.106-.164.162-.01.011-.008.024.001.033l.147.147c.01.01.023.009.033 0l.061-.059.013-.013Zm1.333 4.489-.017-.017-.081-.082c-.012-.013-.012-.026 0-.039l.146-.146c.01-.01.023-.011.033 0l.146.146c.013.013.01.027-.002.039l-.141.141c-.016.016-.026.015-.044-.002l-.026-.025-.015-.015Z"/></svg>