<svg width="188" height="72" viewBox="0 0 188 72" fill="none" xmlns="http://www.w3.org/2000/svg">
<path fill-rule="evenodd" clip-rule="evenodd" d="M50.0503 36.0388C50.0314 36.0172 50.0276 35.9914 50.0485 35.9679C50.2236 35.771 50.4141 35.5865 50.6043 35.4024C50.7001 35.3096 50.796 35.2169 50.8897 35.1226C51.0802 34.931 51.2427 34.7186 51.3692 34.479C51.5727 34.0933 51.6466 33.6825 51.5775 33.2549C51.3942 32.1221 50.2605 31.38 49.1131 31.7288C48.7532 31.8382 48.4437 32.0356 48.1765 32.298C48.069 32.4036 47.9635 32.512 47.8579 32.6204C47.6654 32.8181 47.4727 33.0161 47.2668 33.1982C47.2492 33.2138 47.2263 33.2152 47.2095 33.1988C47.1005 33.0921 46.9921 32.9848 46.8848 32.8763C46.8634 32.8547 46.8678 32.8277 46.8878 32.8057C47.071 32.6052 47.2663 32.4148 47.4613 32.2247C47.5532 32.1351 47.6451 32.0455 47.7355 31.955C47.9153 31.7751 48.0693 31.5756 48.191 31.352C48.4073 30.9542 48.4873 30.5287 48.4125 30.0843C48.2251 28.9718 47.1252 28.2515 46.0139 28.5536C45.6178 28.6613 45.2814 28.8727 44.9927 29.1601C44.8862 29.2662 44.7823 29.3762 44.6783 29.4864C44.4995 29.6757 44.3203 29.8655 44.1264 30.0365C44.0894 30.0691 44.0709 30.0692 44.0321 30.0313C43.9341 29.9357 43.8369 29.8392 43.7413 29.7411C43.694 29.6925 43.6961 29.6767 43.7461 29.6227C43.922 29.4329 44.1079 29.2516 44.2936 29.0704C44.3948 28.9718 44.4959 28.8731 44.5952 28.7732C44.7976 28.5699 44.9639 28.3405 45.085 28.08C45.2297 27.7689 45.2974 27.4434 45.2707 27.0992C45.2332 26.6165 45.044 26.2031 44.6931 25.8707C44.1696 25.3747 43.5507 25.2205 42.8532 25.3966C42.4494 25.4985 42.1129 25.722 41.8191 26.0114C41.7078 26.1209 41.5981 26.2322 41.4883 26.3434C41.3131 26.521 41.1378 26.6987 40.9564 26.8696C40.9305 26.894 40.9007 26.9024 40.873 26.8751C40.768 26.7717 40.6636 26.6676 40.5603 26.5624C40.5401 26.5419 40.5382 26.5148 40.5591 26.4917C40.7514 26.2789 40.9583 26.0778 41.1647 25.8772C41.2532 25.7911 41.3417 25.7052 41.4289 25.6184C41.5563 25.4915 41.6702 25.3536 41.7668 25.2022C42.0205 24.8045 42.1531 24.3744 42.1044 23.8988C42.0452 23.3207 41.778 22.8562 41.3044 22.5239C40.7247 22.1171 40.0952 22.0655 39.4401 22.3231C39.1316 22.4445 38.8701 22.6395 38.6362 22.8721C38.5436 22.9641 38.4523 23.058 38.3608 23.152C38.1727 23.3453 37.9842 23.5391 37.7839 23.7182C37.7617 23.7381 37.7352 23.7403 37.7134 23.719C37.6082 23.6157 37.5035 23.5119 37.4001 23.4069C37.3799 23.3865 37.3788 23.3591 37.4 23.3361C37.572 23.1488 37.7545 22.9703 37.9367 22.7921C38.0183 22.7124 38.0998 22.6326 38.1804 22.5522C38.3824 22.3503 38.5664 22.1344 38.7014 21.8807C38.8913 21.5236 38.9838 21.1464 38.942 20.7402C38.8863 20.1985 38.6483 19.7499 38.2167 19.4227C37.5503 18.9176 36.8329 18.8826 36.0915 19.2531C35.849 19.3742 35.6414 19.5453 35.4501 19.7361C35.3626 19.8233 35.2762 19.9121 35.1897 20.0011C35.004 20.1919 34.8179 20.3831 34.6202 20.5598C34.5978 20.5799 34.5723 20.5804 34.5496 20.5601C34.3507 20.3822 34.1634 20.1898 33.9766 19.9979C33.8875 19.9064 33.7985 19.815 33.7084 19.7254C33.5207 19.5385 33.3143 19.376 33.079 19.2524C32.6054 19.0037 32.1088 18.9387 31.5935 19.0888C30.646 19.3649 30.0344 20.3433 30.2674 21.3514C30.3636 21.7679 30.5742 22.122 30.871 22.4254C30.9839 22.5409 31.1005 22.6536 31.2172 22.7664C31.404 22.9471 31.5911 23.128 31.7637 23.3206C31.7971 23.3578 31.7979 23.3784 31.7622 23.4157C31.6966 23.4844 31.6292 23.5514 31.5618 23.6184L31.551 23.6291C31.4803 23.6993 31.4506 23.734 31.4211 23.7338C31.3922 23.7337 31.3636 23.7002 31.2972 23.6341C31.1119 23.4496 30.9268 23.2648 30.7418 23.08C30.6734 23.0116 30.605 22.9433 30.5365 22.875C30.3565 22.6953 30.157 22.5413 29.9335 22.419C29.5462 22.2073 29.1307 22.1237 28.696 22.1883C27.5593 22.357 26.8219 23.4691 27.1232 24.5829C27.2303 24.9786 27.441 25.3146 27.7276 25.6044C27.8337 25.7118 27.942 25.8174 28.0504 25.9231C28.2327 26.1009 28.4152 26.2788 28.5876 26.4653C28.6369 26.5185 28.6384 26.5339 28.5904 26.5837C28.5371 26.6391 28.4825 26.6934 28.428 26.7477C28.4041 26.7714 28.3802 26.7952 28.3565 26.8191C28.2586 26.9172 28.2573 26.9159 28.1611 26.8199L28.1583 26.8172C28.0895 26.7484 28.0206 26.6797 27.9517 26.611C27.7558 26.4155 27.5598 26.2201 27.3643 26.0243C27.2223 25.882 27.0662 25.7573 26.8959 25.6506C26.4739 25.386 26.0143 25.27 25.5212 25.3476C24.3456 25.5327 23.6193 26.708 23.9913 27.8434C24.1103 28.2063 24.3171 28.5139 24.5842 28.7831C24.8694 29.0705 25.1696 29.3464 25.4433 29.6449C25.469 29.6729 25.4662 29.7022 25.4404 29.7284C25.3478 29.8221 25.2557 29.9162 25.1615 30.0081C25.1013 30.0668 25.0909 30.0657 25.0315 30.0112C24.7413 29.7444 24.4705 29.4533 24.1924 29.174C24.0805 29.0616 23.9597 28.9601 23.8288 28.871C23.434 28.6021 23.0031 28.4571 22.5195 28.4905C21.9498 28.5299 21.4841 28.7753 21.1392 29.223C20.6829 29.8154 20.6161 30.4709 20.8886 31.1613C21.0082 31.4642 21.2011 31.721 21.43 31.9509C21.7147 32.2368 22.0237 32.5085 22.2873 32.8141C22.3024 32.8317 22.3038 32.855 22.2876 32.8716C22.1807 32.9804 22.0731 33.0885 21.9646 33.1958C21.9424 33.2177 21.9157 33.2119 21.8941 33.1926C21.6789 33.0002 21.4763 32.7915 21.2744 32.5834C21.1898 32.4963 21.1053 32.4092 21.02 32.3236C20.844 32.1466 20.6461 31.9988 20.4255 31.8829C20.0054 31.662 19.5627 31.5881 19.0937 31.6825C18.1081 31.8807 17.3372 32.8874 17.6328 34.0475C17.7258 34.4125 17.9131 34.7285 18.1686 35.0019C18.3153 35.1589 18.4678 35.3107 18.6202 35.4625C18.6843 35.5263 18.7484 35.5901 18.8121 35.6544C18.8553 35.6979 18.8988 35.7412 18.9422 35.7845C18.9772 35.8192 19.0121 35.854 19.0469 35.8889C19.1051 35.9474 19.1349 35.9742 19.1352 36.0013C19.1354 36.0275 19.1082 36.0539 19.0526 36.1094C18.8726 36.2894 18.6925 36.4692 18.5124 36.649C18.439 36.7222 18.3656 36.7955 18.2922 36.8688C18.1009 37.0597 17.9367 37.2707 17.8084 37.5093C17.5993 37.8984 17.5221 38.3137 17.5915 38.7472C17.7734 39.8847 18.9085 40.604 20.0083 40.2891C20.3869 40.1807 20.7114 39.9808 20.9909 39.7076C21.1308 39.5709 21.2687 39.4322 21.4065 39.2935C21.5658 39.1333 21.725 38.9731 21.8873 38.8161C21.9138 38.7904 21.9435 38.7851 21.9706 38.8119C22.0755 38.9155 22.1794 39.0201 22.2829 39.1251C22.3045 39.1469 22.3026 39.1736 22.2832 39.1958C22.105 39.3999 21.9076 39.5897 21.711 39.7789C21.6184 39.8679 21.526 39.9567 21.4359 40.0468C21.2636 40.219 21.1153 40.4096 20.9954 40.6219C20.7669 41.0263 20.6807 41.4607 20.7565 41.9168C20.9454 43.0543 22.0841 43.7648 23.1825 43.4432C23.5656 43.3311 23.8922 43.1251 24.1743 42.8467C24.2778 42.7445 24.3797 42.6401 24.4817 42.5356C24.6707 42.3419 24.8599 42.1479 25.0604 41.9674C25.0834 41.9467 25.1096 41.948 25.131 41.9686C25.2069 42.0415 25.2822 42.1152 25.3566 42.1897C25.4266 42.2597 25.4615 42.2894 25.4615 42.3191C25.4615 42.348 25.4282 42.3769 25.3618 42.4434C25.268 42.5372 25.174 42.6309 25.0801 42.7246C24.9129 42.8913 24.7457 43.0579 24.5794 43.2255C24.3353 43.4714 24.1432 43.752 24.0202 44.0775C23.8886 44.4259 23.859 44.7834 23.9325 45.148C24.0142 45.5532 24.2094 45.8982 24.5168 46.1732C24.9951 46.6012 25.5553 46.7588 26.1875 46.6386C26.6254 46.5553 26.9928 46.3338 27.3115 46.0298C27.4821 45.8672 27.6471 45.6988 27.8121 45.5303C27.9421 45.3977 28.072 45.2651 28.2047 45.1353C28.2416 45.0991 28.2661 45.0982 28.2999 45.1312C28.4018 45.2305 28.5024 45.331 28.6018 45.4326C28.6348 45.4663 28.6323 45.489 28.5974 45.5277C28.4131 45.7319 28.2139 45.9247 28.0153 46.1168C27.9258 46.2035 27.8364 46.29 27.7485 46.3774C27.6323 46.4929 27.5268 46.6174 27.4355 46.7531C27.1627 47.1588 27.0187 47.6006 27.0644 48.0942C27.1141 48.6306 27.3495 49.0738 27.7684 49.4071C28.3162 49.8431 28.9339 49.9447 29.6005 49.7293C29.959 49.6134 30.2595 49.4027 30.5249 49.14C30.6356 49.0304 30.7455 48.92 30.8553 48.8096C31.0279 48.6362 31.2005 48.4628 31.3762 48.2927C31.4023 48.2674 31.4319 48.26 31.4594 48.2871C31.5644 48.3906 31.6684 48.4951 31.772 48.5999C31.7933 48.6215 31.7932 48.6481 31.7736 48.6706C31.5883 48.8831 31.3829 49.0806 31.1782 49.2774C31.0822 49.3697 30.9863 49.4618 30.8929 49.5553C30.7126 49.7354 30.5626 49.9381 30.447 50.1649C30.2709 50.51 30.1899 50.8739 30.227 51.2632C30.2968 51.9958 30.7921 52.6379 31.4871 52.8806C32.035 53.072 32.5658 53.0191 33.0775 52.7523C33.3229 52.6244 33.5349 52.452 33.7298 52.2575C33.9796 52.0082 34.2293 51.7588 34.4791 51.5094C34.5334 51.4551 34.5594 51.4284 34.5852 51.4286C34.6107 51.4288 34.636 51.4552 34.6882 51.5074C34.7819 51.6009 34.8756 51.6944 34.9692 51.7879C35.1327 51.9513 35.2963 52.1146 35.46 52.2777C35.6476 52.4646 35.8539 52.627 36.089 52.7511C36.5252 52.9814 36.9848 53.053 37.4674 52.944C37.8426 52.8592 38.165 52.6753 38.4254 52.3924C38.8646 51.9155 39.0319 51.3549 38.9143 50.7165C38.8326 50.2731 38.6111 49.9001 38.2996 49.5799C38.1841 49.4612 38.0645 49.3456 37.9448 49.2299C37.7609 49.0521 37.5769 48.8742 37.4071 48.6845C37.3725 48.6459 37.3711 48.6256 37.406 48.5894C37.4863 48.506 37.5683 48.424 37.6509 48.3427C37.7475 48.2475 37.749 48.2471 37.8484 48.346C38.0803 48.5766 38.3116 48.8078 38.5428 49.039L38.6314 49.1276C38.8113 49.3074 39.0102 49.4623 39.2341 49.5841C39.6366 49.803 40.0663 49.885 40.518 49.8091C41.3715 49.6656 42.1001 48.9422 42.1159 47.9224C42.1205 47.6307 42.0496 47.349 41.9227 47.083C41.799 46.8237 41.6356 46.5929 41.4329 46.3898C41.337 46.2938 41.2398 46.1989 41.1425 46.1039C40.9456 45.9115 40.7484 45.719 40.5623 45.5172C40.5359 45.4887 40.541 45.4592 40.5663 45.4334L40.5911 45.4083C40.6715 45.3265 40.7519 45.2448 40.8339 45.1647C40.9085 45.0917 40.9127 45.0926 40.9866 45.1624C41.1806 45.3458 41.3683 45.5365 41.5558 45.7271C41.6418 45.8146 41.7277 45.902 41.8143 45.9886C41.9564 46.1309 42.1129 46.2554 42.2842 46.3604C42.7181 46.6263 43.1874 46.7412 43.6916 46.6498C44.8206 46.445 45.5326 45.3192 45.1892 44.1941C45.0745 43.8185 44.8628 43.5006 44.5879 43.2234C44.4832 43.1179 44.3772 43.0135 44.2712 42.9091C44.088 42.7288 43.9048 42.5485 43.7284 42.3619C43.7029 42.3349 43.7005 42.305 43.727 42.2784C43.8309 42.1739 43.9356 42.07 44.0409 41.9669C44.0631 41.9451 44.0895 41.9495 44.1114 41.9691C44.3221 42.1581 44.5207 42.3623 44.7188 42.566C44.8112 42.661 44.9035 42.7559 44.9968 42.8491C45.1468 42.9988 45.3134 43.1273 45.4973 43.2325C45.8826 43.4531 46.293 43.5601 46.74 43.5066C47.2758 43.4425 47.714 43.1986 48.0375 42.7724C48.4856 42.182 48.5515 41.5316 48.2825 40.847C48.1614 40.5388 47.9644 40.2785 47.7316 40.045C47.64 39.9532 47.546 39.8628 47.4518 39.7722C47.2568 39.5846 47.0611 39.3964 46.8848 39.1936C46.8647 39.1705 46.8671 39.144 46.888 39.1229C46.9917 39.0182 47.0959 38.9139 47.201 38.8105C47.2218 38.7899 47.2482 38.7874 47.2715 38.8083C47.4883 39.0024 47.6926 39.2125 47.8963 39.4219C47.983 39.5111 48.0697 39.6002 48.1572 39.6879C48.3335 39.8647 48.5322 40.0115 48.7534 40.1263C49.1537 40.3339 49.5771 40.4161 50.0241 40.3332C51.1781 40.1193 51.9051 38.9326 51.4764 37.7663C51.3506 37.4239 51.1421 37.1353 50.8867 36.8786C50.7939 36.7854 50.6986 36.6937 50.6031 36.6018C50.4132 36.4191 50.2227 36.2358 50.0503 36.0388ZM37.4731 20.1284C37.6515 20.233 37.7795 20.3693 37.8617 20.5463C37.9721 20.784 37.968 21.0253 37.8764 21.2671C37.8122 21.4367 37.7135 21.5862 37.5867 21.7147C37.3784 21.9258 37.1682 22.135 36.9579 22.3443C36.8809 22.421 36.8038 22.4977 36.7268 22.5745C36.7119 22.5893 36.6963 22.6036 36.68 22.6168C36.6571 22.6354 36.6327 22.6378 36.6095 22.6171C36.5859 22.5961 36.5626 22.5748 36.5403 22.5526L36.3938 22.4064C36.0625 22.0759 35.7312 21.7453 35.4005 21.4143C35.3017 21.3155 35.3018 21.3134 35.3982 21.2167L35.4259 21.189C35.6881 20.9261 35.9503 20.6633 36.2144 20.4024C36.3503 20.2682 36.5038 20.1582 36.6841 20.0892C36.9486 19.9879 37.2085 19.9895 37.4731 20.1284ZM36.5857 24.9195L36.4134 25.0914C36.2124 25.2921 36.0151 25.4891 35.8177 25.686C35.8122 25.6916 35.8066 25.6971 35.8011 25.7027C35.7807 25.7233 35.7602 25.7439 35.7386 25.7632C35.6988 25.7988 35.6803 25.8 35.6436 25.7676C35.616 25.7433 35.5899 25.7172 35.5639 25.6911L35.5527 25.6799C35.138 25.2659 34.7233 24.8518 34.3086 24.4377L34.2178 24.3471C33.3628 23.4933 32.5077 22.6395 31.6525 21.7859C31.5325 21.6661 31.4249 21.5369 31.3486 21.3851C31.252 21.1931 31.2021 20.9926 31.2395 20.7752C31.3297 20.2504 31.8396 19.9168 32.3567 20.0467C32.5717 20.1008 32.7522 20.2157 32.9146 20.3622C32.937 20.3824 32.9582 20.404 32.9793 20.4255L32.9795 20.4257L32.9797 20.4259C32.9879 20.4343 32.9962 20.4427 33.0045 20.451C33.2887 20.7347 33.5728 21.0184 33.857 21.3022C34.8654 22.309 35.8739 23.3159 36.8819 24.3232C36.8991 24.3403 36.9145 24.3553 36.9282 24.3686C36.9812 24.4203 37.0078 24.4462 37.0079 24.4722C37.0081 24.4983 36.9815 24.5245 36.9283 24.5771C36.9152 24.5901 36.9004 24.6047 36.884 24.6213C36.8183 24.6878 36.7519 24.7539 36.683 24.8224L36.6826 24.8228C36.6509 24.8544 36.6186 24.8865 36.5857 24.9195ZM41.0958 23.9474C41.0629 23.7358 40.966 23.5608 40.8036 23.4071C40.6598 23.2842 40.5063 23.2092 40.3283 23.1852C40.0993 23.1544 39.8892 23.2098 39.6914 23.3211C39.5574 23.3966 39.4417 23.4953 39.333 23.6039C38.3059 24.6303 37.2783 25.6563 36.2507 26.6824L35.4332 27.4987L35.4235 27.5083C35.4155 27.5162 35.4075 27.5242 35.3997 27.5322C35.3029 27.6314 35.3029 27.6315 35.399 27.7301C35.4114 27.7428 35.4241 27.7554 35.4368 27.768C35.4428 27.7739 35.4488 27.7799 35.4548 27.7859C35.5554 27.8864 35.656 27.987 35.7565 28.0875L35.7568 28.0877C35.9986 28.3296 36.2404 28.5714 36.4832 28.8122C36.5051 28.8339 36.5238 28.8531 36.5399 28.8697C36.592 28.9232 36.6182 28.9501 36.6445 28.9502C36.6711 28.9503 36.6978 28.9228 36.7517 28.8675C36.7667 28.8521 36.7838 28.8345 36.8036 28.8147C38.0082 27.6132 39.2119 26.4109 40.4156 25.2085L40.6482 24.9762C40.7003 24.9242 40.7522 24.8716 40.8003 24.816C40.9008 24.6997 40.9828 24.5712 41.0371 24.4269C41.0954 24.2722 41.1216 24.1139 41.0958 23.9474ZM46.6207 36.7323L47.1366 37.2473C47.6939 37.8036 48.2477 38.3564 48.8011 38.9095C48.887 38.9953 48.9765 39.0764 49.0764 39.1457C49.1809 39.2183 49.2932 39.275 49.4151 39.3124C49.6589 39.3872 49.8938 39.3672 50.1182 39.2451C50.4912 39.0421 50.7201 38.5846 50.5196 38.0914C50.4452 37.9083 50.3317 37.7521 50.1921 37.6127C49.3004 36.7229 48.409 35.8328 47.5175 34.9428L47.3916 34.817C47.0136 34.4395 46.6355 34.0621 46.2575 33.6847C46.2277 33.6549 46.1973 33.6257 46.166 33.5977C46.1435 33.5775 46.1186 33.5777 46.0953 33.5973C46.0792 33.6108 46.0635 33.6249 46.0487 33.6398L45.8382 33.8498C45.517 34.1702 45.1958 34.4907 44.8752 34.8117C44.7892 34.8979 44.7904 34.9004 44.8737 34.9872C44.8952 35.0097 44.9173 35.0316 44.9394 35.0535L44.9504 35.0644L44.9628 35.0768C45.5128 35.626 46.0628 36.1752 46.6207 36.7323ZM27.4047 37.9171C27.0284 37.5414 26.6521 37.1657 26.2676 36.7822C26.2314 36.7478 26.2019 36.7233 26.1643 36.7573C26.1253 36.7926 26.0879 36.8297 26.0507 36.8669C24.7802 38.1353 23.5099 39.4038 22.2395 40.6723C22.226 40.6859 22.2123 40.6994 22.1987 40.7128L22.1981 40.7134C22.1633 40.7478 22.1283 40.7823 22.0948 40.818C21.9522 40.9695 21.8417 41.1407 21.7809 41.3411C21.7035 41.5965 21.7273 41.8425 21.8677 42.0698C22.0509 42.3663 22.3217 42.5178 22.6713 42.5133C22.8423 42.511 23.0018 42.454 23.1509 42.3697C23.2944 42.2886 23.4172 42.1823 23.5332 42.0664C24.5167 41.0838 25.5006 40.1015 26.4844 39.1191L27.4 38.2049C27.4038 38.201 27.4077 38.1972 27.4115 38.1934L27.4208 38.1843C27.44 38.1652 27.4593 38.1462 27.4777 38.1263C27.5347 38.0649 27.5351 38.0531 27.4824 37.9958C27.4635 37.9753 27.4438 37.9558 27.424 37.9362L27.4174 37.9297C27.4143 37.9267 27.4113 37.9237 27.4082 37.9206L27.4047 37.9171ZM43.9191 45.4795C43.8127 45.5612 43.7042 45.6126 43.5857 45.6449C43.3892 45.6984 43.199 45.673 43.0124 45.6022C42.8628 45.5454 42.7317 45.4575 42.6114 45.3536C42.5557 45.3055 42.5026 45.2541 42.4505 45.2021C41.1682 43.9222 39.8861 42.6421 38.6044 41.3616C38.5906 41.3479 38.578 41.3355 38.5666 41.3243L38.5664 41.3241C38.5115 41.2702 38.4843 41.2435 38.4845 41.217C38.4846 41.191 38.511 41.1652 38.563 41.1142C38.5751 41.1023 38.5886 41.0891 38.6034 41.0743C38.8595 40.8175 39.1162 40.5614 39.3729 40.3053C39.4704 40.208 39.5679 40.1108 39.6654 40.0135C39.6691 40.0098 39.6728 40.006 39.6765 40.0023L39.6852 39.9936C39.7045 39.974 39.7239 39.9545 39.7441 39.9359C39.8023 39.8824 39.8142 39.8827 39.8747 39.9388C39.8944 39.957 39.9133 39.9761 39.9322 39.9952L39.9327 39.9958C39.9396 40.0027 39.9465 40.0096 39.9534 40.0165L40.8654 40.9273C41.8434 41.9038 42.8214 42.8804 43.7996 43.8568C43.9042 43.9612 44.0031 44.0701 44.0836 44.1946C44.1673 44.3241 44.2288 44.4626 44.2538 44.6159C44.3028 44.9173 44.2215 45.1777 44.0089 45.397C43.9886 45.4179 43.9667 45.4373 43.9405 45.4605C43.9354 45.465 43.9301 45.4697 43.9247 45.4746L43.9191 45.4795ZM35.1303 47.835L34.4819 47.1875C34.3969 47.1027 34.3126 47.0184 34.2287 46.9346L34.2242 46.9301L34.224 46.9299C34.0072 46.7134 33.7935 46.4998 33.5792 46.2866C33.4822 46.1902 33.4802 46.1903 33.3811 46.2889L33.3437 46.3262C32.9942 46.6743 32.6447 47.0224 32.2967 47.372C32.2752 47.3936 32.2562 47.412 32.2397 47.4281C32.1853 47.4809 32.1578 47.5075 32.1577 47.5342C32.1576 47.5614 32.1856 47.5887 32.2421 47.6437C32.2568 47.658 32.2734 47.6741 32.2919 47.6926C33.5585 48.9585 34.8258 50.2236 36.0932 51.4886C36.1528 51.5481 36.2138 51.6064 36.2763 51.6628C36.3626 51.7407 36.4567 51.809 36.5603 51.8618C36.7775 51.9725 37.0038 52.0242 37.2479 51.9645C37.7115 51.8511 38.0092 51.3888 37.9309 50.9514C37.8997 50.7765 37.8327 50.6194 37.7332 50.4743C37.6584 50.3653 37.5685 50.2694 37.4752 50.1762C36.7134 49.4159 35.9518 48.6554 35.1867 47.8913L35.16 47.8647L35.159 47.8636L35.1315 47.8362L35.1303 47.835ZM28.3807 47.1765C28.397 47.1593 28.4125 47.1427 28.4277 47.1265C28.4669 47.0846 28.5033 47.0458 28.5409 47.0083C29.8189 45.7317 31.097 44.4553 32.3756 43.1793C32.3913 43.1636 32.4052 43.1494 32.4176 43.1367C32.4717 43.0816 32.4985 43.0543 32.5252 43.0544C32.5514 43.0545 32.5774 43.0811 32.6291 43.1338L32.6306 43.1354C32.6349 43.1398 32.6394 43.1444 32.6441 43.1491C32.6534 43.1586 32.6634 43.1687 32.6743 43.1795C32.999 43.5022 33.3227 43.8259 33.6464 44.1496L33.7589 44.2621C33.7651 44.2683 33.771 44.2742 33.7766 44.2797L33.7769 44.28C33.8231 44.3259 33.8472 44.3498 33.8477 44.3742C33.8483 44.4008 33.8211 44.4279 33.7643 44.4845L31.8096 46.4365C31.7264 46.5195 31.6433 46.6026 31.5601 46.6857L31.3743 46.8713L31.3732 46.8724C30.8815 47.3635 30.3899 47.8546 29.8973 48.3448C29.8154 48.4264 29.7301 48.5058 29.6392 48.5769C29.4882 48.695 29.3178 48.7717 29.1284 48.8145C28.6762 48.9167 28.0936 48.5763 28.0641 47.9588C28.0554 47.7765 28.1076 47.605 28.1937 47.4442C28.2436 47.351 28.3057 47.2661 28.3807 47.1765ZM21.4011 36.8114L21.4174 36.8278C21.6595 37.0695 21.9019 37.3117 22.1448 37.5542L22.3218 37.7309C22.5212 37.93 22.7169 38.1255 22.9128 38.3207C22.9426 38.3504 22.9731 38.3794 23.0046 38.4074C23.0276 38.4278 23.0528 38.4251 23.0752 38.4057C23.099 38.385 23.1219 38.3633 23.1443 38.341L23.2304 38.255C23.5781 37.9081 23.9257 37.5612 24.273 37.2139L24.2863 37.2007C24.3348 37.1524 24.359 37.1283 24.359 37.1041C24.359 37.0801 24.3352 37.056 24.2876 37.0081L24.2866 37.0071C24.2824 37.0029 24.278 36.9984 24.2734 36.9938L24.2679 36.9882L24.2601 36.9805L24.2516 36.972C24.2477 36.9681 24.2438 36.9642 24.2399 36.9603L23.5259 36.2474C22.4749 35.1981 21.424 34.1487 20.3733 33.0991C20.2912 33.017 20.2057 32.9391 20.1114 32.8714C19.9906 32.7847 19.8595 32.7189 19.7149 32.6811C19.3043 32.5739 18.8809 32.7578 18.6825 33.1315C18.5358 33.4077 18.5462 33.6873 18.673 33.9666C18.7501 34.1364 18.8644 34.2794 18.9962 34.4108C19.797 35.2095 20.5973 36.0087 21.4011 36.8114ZM30.6105 30.6875C30.6604 30.7369 30.6853 30.7617 30.6853 30.7864C30.6853 30.8112 30.6603 30.836 30.6103 30.8856C30.2317 31.2622 29.8537 31.6393 29.4768 32.0175C29.4637 32.0307 29.4508 32.0441 29.4372 32.0568C29.3638 32.1255 29.3593 32.1256 29.284 32.0548C29.2651 32.037 29.2468 32.0185 29.2285 32C27.9539 30.7125 26.6644 29.4395 25.3823 28.1595C25.2965 28.0738 25.2126 27.9865 25.1407 27.8887C25.0172 27.7205 24.9333 27.5368 24.9073 27.3269C24.8507 26.8707 25.197 26.4146 25.6548 26.3462C25.9002 26.3096 26.1258 26.3651 26.3364 26.4898C26.4732 26.5708 26.5921 26.6745 26.7042 26.7866C28.0059 28.0873 29.3053 29.3903 30.6105 30.6875ZM44.1693 31.418C43.8986 31.691 43.6298 31.9621 43.3619 32.2322L42.5383 33.0628C42.3778 33.2246 42.2173 33.3863 42.0568 33.548C41.9578 33.6478 41.8588 33.7476 41.7598 33.8473C41.7515 33.8558 41.7437 33.8636 41.7364 33.8708C41.6886 33.9185 41.6651 33.942 41.6653 33.9653C41.6655 33.9879 41.6882 34.0104 41.7329 34.0546C41.7398 34.0615 41.7474 34.069 41.7554 34.077L41.8374 34.159L41.8384 34.1601L41.8389 34.1606C42.1683 34.4901 42.4977 34.8197 42.8282 35.148C42.8441 35.1638 42.8581 35.178 42.8705 35.1907L42.8708 35.191C42.9203 35.2415 42.9455 35.2671 42.9707 35.2673C42.9966 35.2674 43.0226 35.2409 43.0754 35.1872L43.0844 35.178C43.0939 35.1684 43.1041 35.1581 43.1153 35.1469C44.3933 33.8717 45.6707 32.596 46.9478 31.3199C47.011 31.2568 47.0727 31.1917 47.1308 31.1239C47.252 30.9824 47.3437 30.8244 47.3954 30.644C47.5481 30.1107 47.194 29.6322 46.7601 29.5216C46.5078 29.4573 46.2691 29.4998 46.0425 29.6219C45.8881 29.7051 45.7557 29.817 45.6329 29.9409C45.204 30.374 44.7749 30.807 44.3403 31.2455L44.1693 31.418ZM39.144 30.6875L39.349 30.8922C39.595 31.1378 39.8371 31.3796 40.0792 31.6215C40.109 31.6513 40.1381 31.6817 40.1671 31.7121C40.1881 31.7341 40.1914 31.7587 40.171 31.7821C40.1468 31.8098 40.1211 31.8363 40.095 31.8623C38.9852 32.9707 37.8753 34.079 36.7653 35.1873L36.7517 35.2009C36.7002 35.2525 36.6755 35.2772 36.6514 35.2767C36.6291 35.2762 36.6073 35.2543 36.5654 35.2121L36.5572 35.2039L36.5532 35.1998L36.5464 35.193C36.2642 34.9116 35.9822 34.63 35.7003 34.3483C35.5987 34.2468 35.4971 34.1453 35.3955 34.0439L35.3949 34.0433C35.3457 33.9942 35.3211 33.9696 35.3211 33.945C35.3211 33.9205 35.3457 33.8959 35.3948 33.8468L35.3955 33.8462C35.8536 33.3887 36.3117 32.9312 36.7698 32.4737L37.2761 31.9682C37.7553 31.4895 38.2346 31.0108 38.7142 30.5325C38.726 30.5206 38.7368 30.5098 38.7466 30.4998C38.7991 30.4467 38.8251 30.4203 38.8512 30.4204C38.8768 30.4204 38.9024 30.4461 38.9532 30.4971L38.9682 30.5121C38.9752 30.5192 38.9827 30.5266 38.9907 30.5345C39.0237 30.5669 39.0563 30.5997 39.0914 30.6349L39.0917 30.6352C39.1085 30.652 39.1258 30.6693 39.144 30.6875ZM33.3818 39.9455C33.3355 39.9896 33.288 40.0348 33.2361 40.0845L32.9367 40.3833C32.704 40.6156 32.4741 40.8451 32.2443 41.0749L32.2357 41.0834C32.2302 41.0888 32.225 41.094 32.2201 41.0989L32.2197 41.0993L32.2195 41.0995L32.2191 41.0998C32.168 41.1505 32.1433 41.1749 32.1437 41.199C32.144 41.2214 32.1662 41.2435 32.209 41.2862L32.2145 41.2916L32.2228 41.2999L32.2252 41.3023C32.2295 41.3066 32.234 41.3112 32.2386 41.3159L32.2469 41.3243L32.2558 41.3332C32.2626 41.3401 32.2695 41.3469 32.2764 41.3538L32.8574 41.9339C33.3667 42.4424 33.876 42.9509 34.3852 43.4594C34.5871 43.661 34.789 43.8626 34.9909 44.0641L35.5928 44.6651C35.6914 44.7636 35.6918 44.7632 35.7894 44.6658L35.7909 44.6643C35.894 44.5614 35.9969 44.4583 36.1002 44.3556L36.1029 44.3529C36.376 44.0804 36.6472 43.8058 36.9219 43.5349C36.9261 43.5307 36.9302 43.5267 36.9341 43.5228C36.9861 43.4717 37.0121 43.4462 37.012 43.4206C37.012 43.3951 36.9861 43.3697 36.9342 43.3188C36.9233 43.3081 36.9113 43.2963 36.8981 43.2832C36.0003 42.386 35.102 41.4893 34.2038 40.5925L33.6 39.9897C33.5734 39.9632 33.5465 39.9371 33.5196 39.911L33.5096 39.9014C33.4818 39.8744 33.4543 39.8765 33.427 39.9024L33.3818 39.9455ZM38.9255 28.1177L38.9459 28.0974C39.2021 27.8415 39.4552 27.5886 39.7087 27.3362C39.8068 27.2385 39.8089 27.2384 39.9068 27.3359C40.237 27.665 40.5668 27.9944 40.8966 28.3238L41.2373 28.6641C41.3869 28.8135 41.5365 28.9628 41.6861 29.1122L41.7491 29.1751C42.2493 29.6745 42.7495 30.1738 43.2493 30.6736C43.2622 30.6865 43.274 30.698 43.2846 30.7084C43.3315 30.7544 43.3554 30.7777 43.3556 30.8012C43.3558 30.8251 43.3315 30.8493 43.2824 30.8981C43.2775 30.903 43.2722 30.9082 43.2667 30.9137C43.2628 30.9176 43.2586 30.9218 43.2544 30.926C42.8945 31.2884 42.5342 31.6505 42.1739 32.0125C42.1405 32.0461 42.1062 32.0788 42.0714 32.111C42.0492 32.1314 42.0234 32.1329 42.0005 32.1135C41.9724 32.0897 41.9461 32.0638 41.92 32.0377C40.8057 30.9253 39.6916 29.8127 38.5774 28.7001L38.569 28.6917C38.5495 28.6723 38.5298 28.6527 38.5116 28.632C38.4781 28.5937 38.4764 28.5709 38.5087 28.5363C38.5413 28.5015 38.5751 28.4677 38.6117 28.4313C38.6275 28.4155 38.6439 28.3992 38.6608 28.3821C38.7495 28.2935 38.8377 28.2054 38.9255 28.1177ZM42.1541 40.7927C42.3418 40.9801 42.5306 41.1686 42.7222 41.3599L42.7616 41.3993L42.7641 41.4018L42.765 41.4027C42.7922 41.4299 42.8171 41.4547 42.842 41.4795C42.8511 41.4884 42.8594 41.4967 42.8672 41.5045C42.9171 41.5544 42.9424 41.5797 42.9677 41.5798C42.9936 41.5799 43.0196 41.5537 43.0721 41.5008C43.0796 41.4933 43.0877 41.4851 43.0963 41.4765C44.1959 40.3788 45.2953 39.2809 46.3947 38.183C46.4245 38.1533 46.4542 38.1233 46.4818 38.0916C46.5009 38.0698 46.5035 38.0441 46.483 38.0207C46.4622 37.997 46.4407 37.9738 46.4184 37.9515C46.0384 37.5717 45.6583 37.1921 45.2779 36.8127C45.2556 36.7905 45.2322 36.7692 45.2079 36.7492C45.19 36.7344 45.1677 36.7328 45.1502 36.7481C45.1106 36.7827 45.072 36.8185 45.0348 36.8557C43.9464 37.9421 42.8581 39.0288 41.7699 40.1155L41.7615 40.1239L41.7503 40.135C41.7269 40.1582 41.7035 40.1814 41.6814 40.2057C41.6356 40.256 41.6363 40.2699 41.6864 40.3242C41.7079 40.3476 41.7306 40.3701 41.7533 40.3925C41.7582 40.3974 41.7632 40.4023 41.7681 40.4072C41.7705 40.4095 41.7728 40.4119 41.7751 40.4142C41.9013 40.5402 42.0274 40.6662 42.1541 40.7927ZM30.1799 37.6327L30.0128 37.7995C29.8363 37.9758 29.6632 38.1485 29.4901 38.3212C29.4603 38.3509 29.4298 38.3799 29.3987 38.4082C29.3766 38.4282 29.3512 38.4307 29.3282 38.4105C29.2965 38.3828 29.2658 38.354 29.236 38.3243C28.2637 37.3536 27.2914 36.3827 26.3191 35.4119L25.9279 35.0213L25.9243 35.0177L25.916 35.0095C25.9147 35.0081 25.9134 35.0068 25.912 35.0055C25.911 35.0045 25.91 35.0034 25.909 35.0024L25.9056 34.9989C25.8097 34.9 25.8086 34.8989 25.9067 34.8007C26.191 34.5162 26.4757 34.232 26.7603 33.9479C26.8594 33.849 26.9585 33.7501 27.0576 33.6511L27.0642 33.6446C27.0731 33.6356 27.0821 33.6265 27.0915 33.618C27.1496 33.5654 27.1614 33.5655 27.2221 33.6219C27.2418 33.6401 27.2607 33.6591 27.2795 33.6782L27.2797 33.6784L27.2799 33.6786C27.2868 33.6856 27.2938 33.6926 27.3008 33.6996C27.5415 33.94 27.7823 34.1804 28.0231 34.4208L28.0631 34.4607C28.8968 35.2931 29.7305 36.1255 30.5638 36.9583C30.5793 36.9738 30.5933 36.9875 30.6058 36.9997C30.6588 37.0515 30.6852 37.0773 30.6852 37.1031C30.6852 37.1286 30.6594 37.1541 30.6081 37.2049C30.596 37.2168 30.5825 37.2302 30.5676 37.2453C30.4816 37.3322 30.3949 37.4185 30.3057 37.5073L30.304 37.5091L30.3038 37.5092L30.266 37.5468C30.2539 37.5589 30.2418 37.5709 30.2296 37.5831C30.2131 37.5995 30.1966 37.616 30.1799 37.6327ZM30.1665 28.8222C30.1849 28.8403 30.2008 28.8565 30.2148 28.8707C30.2662 28.9229 30.2922 28.9493 30.3181 28.9494C30.3445 28.9495 30.3709 28.9226 30.4242 28.8683C30.4364 28.8559 30.45 28.842 30.4653 28.8267C31.29 28.0041 32.1142 27.1809 32.9385 26.3578C33.2024 26.0942 33.4664 25.8306 33.7303 25.567C33.7344 25.563 33.7384 25.559 33.7424 25.555C33.7533 25.5442 33.7643 25.5333 33.7749 25.5223C33.87 25.4241 33.8711 25.4231 33.7721 25.324C33.3999 24.9513 33.0272 24.5792 32.6541 24.2074C32.6514 24.2047 32.6487 24.202 32.6461 24.1994C32.6439 24.1971 32.6416 24.1949 32.6395 24.1927L32.6273 24.1804L32.627 24.1802C32.5783 24.131 32.5537 24.1062 32.5289 24.106C32.5036 24.1059 32.4781 24.1316 32.4266 24.1835L32.4263 24.1838C32.423 24.1872 32.4196 24.1906 32.416 24.1942C32.4143 24.1959 32.4126 24.1977 32.4108 24.1994L32.4005 24.2098C31.3009 25.3075 30.2015 26.4053 29.1022 27.5033C29.0724 27.533 29.0433 27.5635 29.0149 27.5946C28.9946 27.6168 28.993 27.6425 29.0128 27.6653C29.0404 27.697 29.0698 27.7272 29.0995 27.757C29.4547 28.1126 29.8088 28.4693 30.1665 28.8222ZM36.364 47.6455L35.4505 46.7333C35.4425 46.7254 35.4345 46.7175 35.4264 46.7095C35.4227 46.7059 35.4189 46.7022 35.4152 46.6985C35.4091 46.6925 35.403 46.6864 35.397 46.6803C35.3932 46.6765 35.3895 46.6727 35.3857 46.6689C35.3812 46.6643 35.3768 46.6597 35.3724 46.655C35.3036 46.5821 35.3038 46.5766 35.3745 46.5018C35.3799 46.4961 35.3853 46.4905 35.3907 46.485C35.4007 46.4749 35.4108 46.4649 35.421 46.4549C35.4246 46.4513 35.4282 46.4478 35.4318 46.4442C35.4351 46.441 35.4383 46.4378 35.4415 46.4346C35.7026 46.1739 35.9637 45.9132 36.2248 45.6524L36.2297 45.6475C37.0552 44.8232 37.8807 43.9988 38.7065 43.1748C38.7208 43.1605 38.7337 43.1474 38.7452 43.1357L38.7456 43.1353C38.7986 43.0814 38.825 43.0545 38.8513 43.0546C38.8775 43.0546 38.9037 43.0811 38.9558 43.134C38.9673 43.1457 38.98 43.1586 38.9942 43.1728C39.3489 43.5257 39.7026 43.8796 40.0565 44.2333C40.09 44.2667 40.1228 44.301 40.1548 44.3358C40.1753 44.358 40.1762 44.3838 40.1568 44.4066C40.1329 44.4346 40.1073 44.4612 40.0812 44.4872C38.9744 45.5926 37.8675 46.6978 36.7606 47.8031C36.7568 47.8069 36.7529 47.8107 36.7491 47.8146L36.7487 47.8149C36.7304 47.8333 36.712 47.8518 36.6925 47.869C36.6485 47.9076 36.6312 47.9081 36.5855 47.8645C36.535 47.8164 36.4857 47.767 36.4337 47.715L36.4334 47.7147L36.433 47.7143L36.4327 47.7141L36.4321 47.7134C36.41 47.6913 36.3874 47.6687 36.364 47.6455ZM30.2388 42.9505L29.7214 42.4339C28.9125 41.6261 28.1086 40.8234 27.3045 40.0208C27.2673 39.9836 27.2298 39.9467 27.1906 39.9116C27.1689 39.8922 27.1425 39.8905 27.1197 39.9112C27.0847 39.943 27.0504 39.9757 27.0169 40.0091C26.9395 40.0863 26.8621 40.1634 26.7847 40.2406C26.5081 40.5164 26.2314 40.7923 25.9557 41.069C25.9384 41.0864 25.9228 41.1016 25.9091 41.115C25.8579 41.165 25.8317 41.1905 25.8313 41.2164C25.831 41.2435 25.859 41.271 25.9165 41.3272L25.933 41.3435C25.9407 41.351 25.9487 41.3589 25.9572 41.3674C26.7816 42.1895 27.6064 43.0113 28.4312 43.833L28.4394 43.8412C28.7042 44.105 28.9689 44.3688 29.2337 44.6327L29.2506 44.6495C29.2561 44.6551 29.2617 44.6606 29.2673 44.666C29.3651 44.7606 29.3662 44.7617 29.4653 44.663C29.7971 44.3326 30.1283 44.0016 30.4595 43.6707L30.4606 43.6695L30.605 43.5252C30.6273 43.503 30.6489 43.4799 30.6695 43.4561C30.6892 43.4332 30.6891 43.4082 30.6694 43.3854C30.6487 43.3616 30.6271 43.3385 30.6049 43.3162C30.4841 43.1954 30.3632 43.0746 30.2388 42.9505ZM32.595 35.3615C32.4858 35.2524 32.3799 35.1467 32.2741 35.0409C32.268 35.0349 32.2619 35.0288 32.2558 35.0228C32.2357 35.0029 32.2156 34.983 32.1965 34.9621C32.1469 34.9077 32.1466 34.8936 32.1917 34.8431C32.2032 34.8302 32.2154 34.818 32.2277 34.8058L32.2357 34.7978C32.6157 34.4184 32.9956 34.0389 33.3757 33.6596C33.398 33.6373 33.4211 33.6158 33.4448 33.5949C33.4675 33.5749 33.4932 33.5741 33.5158 33.5936C33.5476 33.6211 33.5778 33.6505 33.6075 33.6802C34.5884 34.6594 35.5691 35.6387 36.5498 36.618L36.9045 36.9721L36.9095 36.9772L36.9171 36.9847C36.9279 36.9953 36.9386 37.006 36.9491 37.0169C37.0324 37.1039 37.0338 37.1054 36.9473 37.192C36.6502 37.4895 36.3526 37.7865 36.055 38.0835C35.9613 38.1769 35.8677 38.2704 35.774 38.3639C35.7628 38.375 35.7516 38.3862 35.7397 38.3965C35.6952 38.4349 35.6796 38.4352 35.6326 38.3922C35.6014 38.3638 35.5715 38.3338 35.5417 38.3038L35.5328 38.2949C35.5284 38.2905 35.5241 38.2861 35.5197 38.2818C34.7245 37.4879 33.9294 36.6939 33.1294 35.895L32.595 35.3615ZM32.5086 28.208C32.4804 28.2362 32.453 28.2635 32.426 28.2904C32.3672 28.349 32.311 28.4051 32.2549 28.4614L32.2444 28.4719L32.2341 28.4822C32.1844 28.5316 32.1591 28.5568 32.1589 28.5822C32.1586 28.6086 32.1854 28.6352 32.2399 28.6894C32.2447 28.6942 32.2497 28.6992 32.2549 28.7045C33.3575 29.8055 34.4602 30.9066 35.563 32.0075C35.5927 32.0371 35.6235 32.0659 35.6552 32.0935C35.6784 32.1138 35.7037 32.1105 35.7257 32.0906C35.7568 32.0623 35.7873 32.0332 35.817 32.0035C36.1822 31.6391 36.5473 31.2746 36.9123 30.91C36.9168 30.9055 36.9214 30.9009 36.926 30.8964C36.9438 30.8787 36.9617 30.861 36.9785 30.8423C37.0211 30.795 37.0218 30.7793 36.983 30.7354C36.966 30.7161 36.9476 30.6979 36.9293 30.6797L36.929 30.6794L36.9284 30.6788C36.9246 30.675 36.9208 30.6712 36.917 30.6675C35.8107 29.5627 34.7043 28.4579 33.5978 27.3533C33.5718 27.3273 33.5455 27.3013 33.5176 27.2775C33.4954 27.2586 33.4696 27.2559 33.4465 27.2766C33.4152 27.3046 33.3846 27.3336 33.3548 27.3633C33.1383 27.5792 32.922 27.7952 32.7019 28.015L32.5086 28.208ZM33.5841 32.0299C33.3195 32.294 33.0555 32.5577 32.7919 32.821C32.0188 33.593 31.2491 34.3618 30.4788 35.1299C30.4592 35.1495 30.4422 35.1669 30.4272 35.1822C30.3719 35.239 30.3446 35.267 30.3175 35.2668C30.291 35.2666 30.2648 35.2396 30.213 35.1864C30.1972 35.1702 30.1791 35.1516 30.1579 35.1305C29.8928 34.8677 29.6288 34.6037 29.3649 34.3396L29.3644 34.3392C29.2748 34.2495 29.1851 34.1599 29.0954 34.0702C29.0887 34.0635 29.0823 34.0572 29.0763 34.0512C29.0242 33.9995 28.9983 33.9738 28.9984 33.9481C28.9985 33.9228 29.024 33.8975 29.0747 33.8471L29.0817 33.8402C29.0858 33.8361 29.0901 33.8319 29.0945 33.8275C30.1975 32.7259 31.3007 31.6243 32.404 30.5229C32.4081 30.5188 32.412 30.5149 32.4158 30.511L32.4278 30.499L32.4283 30.4985C32.478 30.4484 32.5029 30.4233 32.5279 30.4232C32.553 30.4231 32.5782 30.4484 32.6287 30.499L32.6292 30.4995C32.6347 30.505 32.6405 30.5109 32.6466 30.517C32.9395 30.8092 33.2322 31.1016 33.5249 31.3939L33.7536 31.6222C33.7577 31.6263 33.7618 31.6304 33.7659 31.6344C33.7805 31.6489 33.7951 31.6634 33.8089 31.6786C33.8613 31.7361 33.862 31.7486 33.8038 31.8092C33.7558 31.8592 33.7066 31.908 33.6547 31.9595L33.6544 31.9598C33.6315 31.9825 33.6081 32.0058 33.5841 32.0299ZM22.7051 33.8924C22.662 33.9392 22.6615 33.9559 22.6999 33.9994C22.717 34.0188 22.7354 34.037 22.7538 34.0552L22.754 34.0555L22.7604 34.0618L22.766 34.0674C22.8486 34.1499 22.9313 34.2325 23.0139 34.3151L23.0179 34.3191C23.3028 34.6037 23.5877 34.8883 23.8729 35.1726C23.8803 35.1799 23.8872 35.1869 23.8937 35.1934C23.9413 35.2412 23.9657 35.2658 23.9905 35.2661C24.0167 35.2665 24.0433 35.2398 24.0981 35.1849C24.1038 35.1792 24.1098 35.1732 24.1161 35.1669C25.224 34.0608 26.3307 32.9536 27.4396 31.8484C27.4943 31.794 27.5211 31.7672 27.5209 31.7407C27.5206 31.7152 27.4951 31.6899 27.4449 31.6401C27.0633 31.2617 26.6798 30.8848 26.3039 30.5007L26.3037 30.5004C26.2531 30.4488 26.2277 30.4228 26.2021 30.4227C26.1762 30.4226 26.1502 30.4492 26.0978 30.5028C24.9822 31.6443 23.7864 32.7184 22.7051 33.8924ZM38.5779 36.9936C38.6395 36.9324 38.7026 36.8728 38.7657 36.8133L38.7979 36.7828L38.8176 36.7642C38.8447 36.7385 38.8732 36.7382 38.9009 36.7646C38.9062 36.7696 38.9115 36.7747 38.9169 36.7797L38.9176 36.7804C38.9311 36.7932 38.9448 36.806 38.9579 36.8192L39.1903 37.051C39.4931 37.3533 39.7959 37.6555 40.0983 37.9582C40.1975 38.0575 40.1976 38.0596 40.1016 38.1561C39.9445 38.3141 39.7867 38.4714 39.629 38.6287C39.5704 38.6871 39.5119 38.7456 39.4533 38.804C39.2282 39.0288 39.0031 39.2536 38.778 39.4784C38.1199 40.1358 37.4617 40.7931 36.8029 41.4498C36.783 41.4696 36.7658 41.4872 36.7508 41.5027C36.6975 41.5574 36.671 41.5847 36.6445 41.5846C36.6182 41.5846 36.592 41.5576 36.5397 41.5038L36.5395 41.5036C36.5232 41.4868 36.5044 41.4675 36.4824 41.4457C36.145 41.1112 35.8093 40.775 35.4736 40.4389L35.3976 40.3628C35.2984 40.2635 35.2989 40.262 35.3939 40.1654C36.4439 39.0971 37.5155 38.0494 38.5779 36.9936ZM41.4411 35.1848C41.3095 35.0534 41.1785 34.9226 41.0479 34.7921C40.6677 34.4125 40.2908 34.0361 39.9136 33.66C39.8169 33.5636 39.8149 33.5638 39.7163 33.6621C39.3398 34.0372 38.9638 34.4129 38.588 34.7887C38.5807 34.796 38.5738 34.8028 38.5673 34.8092C38.5177 34.8584 38.4927 34.8832 38.4926 34.9082C38.4925 34.9335 38.5181 34.9589 38.5699 35.0102L38.5714 35.0117C38.5775 35.0178 38.584 35.0242 38.5908 35.031C39.1392 35.5788 39.6877 36.1265 40.2362 36.6741L41.0997 37.5364C41.3693 37.8057 41.639 38.075 41.9088 38.3441L41.9122 38.3475C41.9647 38.3999 41.9903 38.4254 42.0155 38.4251C42.0395 38.4247 42.0633 38.401 42.1095 38.3548L42.1179 38.3465C42.4904 37.9747 42.8628 37.603 43.235 37.2309C43.2441 37.2218 43.2527 37.2133 43.2606 37.2055C43.3123 37.1543 43.338 37.1289 43.3379 37.1035C43.3379 37.0783 43.3124 37.0531 43.2618 37.003C43.2539 36.9952 43.2454 36.9868 43.2362 36.9777C42.799 36.5408 42.3617 36.1041 41.9212 35.6642L41.4411 35.1848ZM30.523 41.3871L30.5085 41.4015C30.4505 41.4591 30.3988 41.5105 30.346 41.5607C30.3238 41.5818 30.2977 41.5797 30.2751 41.5609C30.2509 41.5407 30.2282 41.5187 30.2059 41.4964C29.8296 41.1209 29.4535 40.7453 29.0773 40.3696L29.0703 40.3626C29.054 40.3464 29.0377 40.3301 29.0225 40.3128C28.984 40.2689 28.9845 40.2536 29.0279 40.2061C29.0503 40.1816 29.0739 40.1582 29.0975 40.1347L29.109 40.1233L29.1163 40.116L29.7893 39.444C30.6524 38.582 31.5156 37.7201 32.3791 36.8585C32.3939 36.8437 32.4071 36.8302 32.419 36.8181L32.4191 36.818C32.4721 36.764 32.4985 36.7372 32.5248 36.7372C32.5509 36.7372 32.5769 36.7637 32.6287 36.8162C32.6362 36.8238 32.6441 36.8318 32.6527 36.8405C32.6571 36.8449 32.6618 36.8496 32.6665 36.8543C32.9588 37.1451 33.2503 37.4365 33.5419 37.728L33.7281 37.9141C33.7615 37.9476 33.7943 37.9818 33.8262 38.0167C33.847 38.0395 33.8454 38.0652 33.8253 38.0871C33.7897 38.1258 33.7531 38.1636 33.7158 38.2007C33.4386 38.4758 33.1614 38.7508 32.8842 39.0259L32.8824 39.0276C32.2785 39.6268 31.6747 40.2259 31.0714 40.8257C30.9418 40.9546 30.8147 41.086 30.6848 41.2202C30.6315 41.2753 30.5777 41.331 30.523 41.3871ZM25.3191 43.9083C25.2111 44.0169 25.1149 44.1351 25.0345 44.2799C24.9486 44.4414 24.8983 44.6024 24.9006 44.7734C24.9089 45.3804 25.4783 45.7638 25.9688 45.656C26.1045 45.6261 26.231 45.5786 26.3489 45.507C26.4711 45.4328 26.5802 45.3421 26.6807 45.2407L26.8185 45.1017C27.0245 44.8938 27.2306 44.6859 27.4369 44.4783L27.4389 44.4763C27.492 44.4228 27.5179 44.3967 27.5176 44.371C27.5172 44.3466 27.493 44.3224 27.4458 44.2753L27.4395 44.269C27.0596 43.8896 26.6796 43.5101 26.2994 43.1309C26.2771 43.1087 26.2537 43.0874 26.2297 43.0671C26.2119 43.052 26.1905 43.0497 26.1719 43.0643C26.1472 43.0837 26.1235 43.1048 26.1013 43.127L26.0045 43.2234C25.7758 43.4514 25.547 43.6794 25.3191 43.9083ZM19.7662 36.8252C19.8229 36.7683 19.8502 36.7409 19.8769 36.7414C19.9018 36.7419 19.9262 36.7664 19.9732 36.8138C19.9802 36.8209 19.9878 36.8285 19.996 36.8366C20.3429 37.1825 20.6895 37.5288 21.0361 37.875L21.1025 37.9414C21.1285 37.9674 21.1538 37.9942 21.1786 38.0215C21.1989 38.0439 21.1996 38.0694 21.1809 38.0925C21.1611 38.1169 21.1391 38.1397 21.1168 38.162C21.0429 38.2358 20.9691 38.3098 20.8953 38.3837L20.8949 38.3841C20.6974 38.5821 20.4998 38.7801 20.3003 38.9761C20.1127 39.1603 19.8949 39.2928 19.6313 39.3417C19.1617 39.4287 18.685 39.1026 18.5937 38.6328C18.545 38.382 18.6027 38.1525 18.7259 37.9357C18.7965 37.8116 18.8868 37.7022 18.9884 37.6014C19.1642 37.427 19.3394 37.2519 19.5173 37.0739L19.5177 37.0736C19.593 36.9983 19.6689 36.9224 19.7455 36.846C19.7528 36.8386 19.7597 36.8317 19.7662 36.8252ZM40.8514 48.5498C40.9465 48.4559 41.0151 48.3443 41.061 48.2051C41.1502 47.919 41.0966 47.6633 40.9611 47.4187C40.902 47.3122 40.83 47.2144 40.7447 47.1281C40.4559 46.836 40.1653 46.5457 39.8742 46.2559C39.8159 46.1978 39.8025 46.1997 39.7438 46.253C39.7345 46.2614 39.7256 46.2704 39.7167 46.2793L39.7099 46.2861L39.5916 46.4042C39.2472 46.7481 38.9028 47.092 38.5585 47.4361C38.5362 47.4583 38.5145 47.4815 38.4951 47.5062C38.481 47.5241 38.481 47.5464 38.4962 47.564C38.5237 47.5958 38.5522 47.6268 38.5819 47.6565C38.6662 47.7409 38.7495 47.827 38.8329 47.9134L38.8331 47.9135C39.0392 48.1268 39.2463 48.341 39.4717 48.5314C39.6099 48.6481 39.7627 48.74 39.9382 48.7897C40.2896 48.8894 40.5935 48.8044 40.8514 48.5498ZM46.6763 40.4123C46.7204 40.4571 46.764 40.5009 46.8071 40.5441L46.8077 40.5447C46.9057 40.6431 47.0012 40.7389 47.0929 40.8381C47.2565 41.0152 47.3703 41.2192 47.4171 41.4597C47.4863 41.8157 47.3067 42.2126 46.9566 42.4027C46.7319 42.5247 46.4975 42.5462 46.2533 42.4708C46.1209 42.4299 45.9985 42.369 45.8887 42.2856C45.8133 42.2285 45.7399 42.1675 45.6726 42.1013C45.4717 41.9034 45.2724 41.7038 45.0731 41.5042C45.0155 41.4466 44.958 41.389 44.9004 41.3314C44.8744 41.3053 44.8486 41.2788 44.8251 41.2506C44.806 41.2276 44.808 41.2021 44.828 41.1796C44.8454 41.1599 44.8633 41.1405 44.8819 41.1219L45.071 40.933C45.3918 40.6124 45.7126 40.2919 46.0338 39.9718C46.1331 39.8729 46.135 39.8731 46.232 39.9691C46.334 40.0698 46.4352 40.1712 46.5392 40.2752L46.5399 40.2759C46.5848 40.3208 46.6302 40.3662 46.6763 40.4123ZM33.265 51.2936C33.3117 51.247 33.3589 51.1999 33.4069 51.1521L33.434 51.125C33.4635 51.0955 33.4927 51.0664 33.5216 51.0377L33.5219 51.0373C33.6073 50.9523 33.6901 50.8699 33.7722 50.7868C33.8677 50.6903 33.8679 50.6886 33.7685 50.5891C33.4292 50.2495 33.0893 49.9103 32.7495 49.5712L32.7483 49.57L32.6286 49.4506C32.6062 49.4283 32.583 49.4069 32.5592 49.3863C32.5356 49.3658 32.5107 49.3699 32.488 49.3878C32.4715 49.4007 32.4564 49.4156 32.4415 49.4304C32.3634 49.5085 32.285 49.5863 32.2067 49.6642L32.2047 49.6662L32.2041 49.6669C32.0033 49.8666 31.8025 50.0663 31.6041 50.2683C31.4513 50.4239 31.3313 50.6024 31.2685 50.8146C31.1895 51.0819 31.2196 51.3354 31.3714 51.5706C31.5893 51.9083 32.0262 52.1061 32.4958 51.9126C32.6687 51.8413 32.8194 51.7375 32.9516 51.6061C33.0554 51.503 33.1589 51.3996 33.265 51.2936ZM48.6374 33.258C48.6625 33.233 48.6866 33.2087 48.7102 33.185C48.7608 33.1341 48.8089 33.0857 48.858 33.0383C49.0034 32.8981 49.1639 32.7783 49.3565 32.7121C49.7293 32.5839 50.066 32.6448 50.3426 32.9337C50.5799 33.1815 50.6482 33.4789 50.5553 33.8097C50.5002 34.0058 50.3986 34.1788 50.2569 34.3236C50.0446 34.5405 49.8294 34.7545 49.6142 34.9686C49.5308 35.0515 49.4473 35.1345 49.3641 35.2177C49.3529 35.2288 49.3407 35.2389 49.3285 35.2488C49.3046 35.2682 49.2802 35.2663 49.2576 35.2471C49.2376 35.23 49.2185 35.2119 49.1999 35.1934C48.816 34.8103 48.4323 34.4272 48.0485 34.044L48.048 34.0435C47.9988 33.9944 47.9741 33.9698 47.9741 33.9452C47.9741 33.9205 47.9988 33.8958 48.0484 33.8463L48.6374 33.258ZM43.5497 28.3963L43.7224 28.2238L43.7356 28.2106L43.7458 28.2005C43.7541 28.1923 43.7622 28.1842 43.7701 28.1764L43.7709 28.1756L43.7711 28.1754C43.804 28.1428 43.8344 28.1127 43.8641 28.082C43.9629 27.9795 44.053 27.87 44.1236 27.7459C44.2247 27.5684 44.2834 27.3777 44.2672 27.1733C44.2245 26.6333 43.7319 26.2646 43.2385 26.3435C43.0904 26.3671 42.9538 26.4168 42.8265 26.4937C42.7317 26.5509 42.6423 26.616 42.5635 26.694C42.2721 26.9825 41.981 27.2713 41.691 27.5612C41.6313 27.6208 41.6331 27.6319 41.6869 27.6907C41.703 27.7083 41.72 27.7251 41.737 27.7419C41.7425 27.7473 41.7479 27.7527 41.7533 27.7581C42.1142 28.1185 42.4751 28.4789 42.836 28.8392C42.8414 28.8446 42.8468 28.85 42.8522 28.8554C42.8728 28.8761 42.8934 28.8968 42.9149 28.9164C42.962 28.9592 42.978 28.9602 43.0213 28.9215C43.048 28.8977 43.0733 28.8723 43.0986 28.847L43.1119 28.8337C43.2569 28.689 43.4018 28.5441 43.5497 28.3963ZM30.1608 25.0175C30.3148 24.8637 30.4697 24.7091 30.6259 24.5531C30.6978 24.4634 30.6981 24.4631 30.643 24.4034C30.6298 24.389 30.6159 24.3753 30.6019 24.3615C30.5971 24.3568 30.5923 24.352 30.5875 24.3472C30.5417 24.3015 30.4959 24.2556 30.4501 24.2098L30.4496 24.2093L30.449 24.2087L30.4485 24.2082C30.3348 24.0944 30.221 23.9805 30.1067 23.8673C30.0888 23.8496 30.0709 23.8318 30.053 23.8141C29.9513 23.7131 29.8496 23.6122 29.7447 23.5146C29.5882 23.369 29.4086 23.2612 29.2001 23.2065C28.6795 23.0699 28.1586 23.4122 28.0753 23.943C28.0403 24.1664 28.0944 24.3712 28.1976 24.5663C28.2669 24.6974 28.3585 24.8131 28.4632 24.9179C28.6899 25.1451 28.9171 25.3717 29.1444 25.5983L29.2569 25.7106C29.2793 25.7328 29.3023 25.7546 29.3263 25.775C29.3488 25.7941 29.3739 25.7965 29.3968 25.7756C29.4317 25.7436 29.4662 25.7111 29.4997 25.6776C29.714 25.4637 29.9283 25.2497 30.1442 25.0342L30.1608 25.0175ZM22.0823 31.1725C21.9421 31.026 21.8397 30.8554 21.7799 30.6604C21.6221 30.1464 21.9379 29.6587 22.3951 29.5268C22.5948 29.4692 22.7912 29.486 22.9845 29.5568C23.1659 29.6233 23.3217 29.7317 23.458 29.8651C23.7442 30.1449 24.0257 30.4296 24.3089 30.7125C24.3237 30.7273 24.3372 30.7437 24.3495 30.7607C24.3633 30.7799 24.3608 30.8006 24.3458 30.8181C24.3254 30.842 24.3041 30.8655 24.2818 30.8877C23.9019 31.2675 23.5217 31.6471 23.1415 32.0267L23.1328 32.0354C23.1171 32.0511 23.1013 32.0669 23.0846 32.0815C23.0447 32.1165 23.0274 32.1174 22.9895 32.0843C22.9664 32.064 22.9446 32.0422 22.9228 32.0204L22.9221 32.0198C22.918 32.0157 22.914 32.0116 22.9099 32.0076C22.6322 31.7312 22.3532 31.4557 22.0823 31.1725ZM40.595 32.9184C40.6942 33.0189 40.7958 33.117 40.9062 33.2214C40.9261 33.2252 40.939 33.2274 40.9459 33.2219C41.0694 33.1244 41.1774 33.0106 41.2853 32.8968C41.3072 32.8736 41.3034 32.8474 41.2833 32.827C41.1769 32.7188 41.07 32.6111 40.9616 32.505C40.9274 32.4716 40.9084 32.4735 40.8681 32.5127C40.7743 32.6039 40.6814 32.696 40.59 32.7896C40.5352 32.8458 40.5355 32.8582 40.595 32.9184ZM31.6596 42.473L31.6269 42.5055L31.6267 42.5057C31.5724 42.5599 31.5207 42.6114 31.468 42.6617C31.432 42.696 31.4101 42.696 31.3733 42.6602C31.2764 42.5658 31.1812 42.4697 31.0859 42.3736L31.0843 42.372L31.0727 42.3603C31.048 42.3353 31.0397 42.3048 31.0663 42.2771C31.1716 42.1677 31.278 42.0592 31.3847 41.9511C31.4018 41.9338 31.425 41.9361 31.4412 41.952C31.553 42.0625 31.6642 42.1736 31.7747 42.2854C31.7966 42.3075 31.7911 42.334 31.7728 42.356C31.7581 42.3735 31.7421 42.3898 31.723 42.4093C31.7158 42.4166 31.7082 42.4244 31.7001 42.4327C31.6864 42.4463 31.6729 42.4597 31.6596 42.473ZM38.0884 42.2694C37.9896 42.1685 37.8887 42.0698 37.7791 41.9638C37.7483 41.9481 37.7279 41.9518 37.7121 41.9673C37.6078 42.07 37.5038 42.1729 37.4006 42.2767C37.3749 42.3024 37.3728 42.3332 37.3993 42.3599C37.5024 42.4637 37.6061 42.567 37.7106 42.6694C37.7382 42.6965 37.7685 42.6879 37.7933 42.6634L37.801 42.6558C37.8988 42.559 37.9966 42.4623 38.0926 42.3638C38.1259 42.3297 38.1248 42.3065 38.0884 42.2694ZM34.2734 45.5589L34.2727 45.558C34.2048 45.4704 34.2035 45.4688 34.2611 45.4098C34.3487 45.32 34.4376 45.2314 34.5278 45.1441C34.5741 45.0993 34.5932 45.0977 34.6338 45.1372C34.7349 45.2357 34.8341 45.3362 34.9331 45.4367C34.959 45.4631 34.9582 45.4936 34.9322 45.5198L34.9288 45.5233L34.9282 45.5239L34.9277 45.5244C34.8299 45.6232 34.7322 45.7221 34.6327 45.8191C34.5961 45.8547 34.574 45.8549 34.5382 45.8205C34.4775 45.7622 34.4179 45.7027 34.3554 45.6404L34.3551 45.6401C34.3285 45.6136 34.3014 45.5865 34.2734 45.5589ZM31.1487 35.883C31.1355 35.8963 31.1221 35.9098 31.1085 35.9235L31.0822 35.95C31.0577 35.9802 31.0419 36.0059 31.0643 36.029C31.1705 36.1385 31.2784 36.2464 31.3867 36.3539C31.4082 36.3752 31.4358 36.3742 31.4572 36.3533C31.5625 36.2501 31.6671 36.1462 31.771 36.0416C31.7981 36.0143 31.7929 35.9836 31.7675 35.9578L31.7498 35.9399C31.6595 35.8484 31.5692 35.7569 31.4771 35.6673C31.4289 35.6204 31.4125 35.6216 31.3587 35.6738C31.2891 35.7414 31.2207 35.8103 31.1487 35.883ZM41.1218 38.9786C41.1291 38.9859 41.1361 38.9929 41.143 38.9998L41.1621 39.0187C41.1902 39.0465 41.2157 39.0719 41.2402 39.0981C41.2902 39.1517 41.2924 39.1685 41.2463 39.2158C41.1514 39.3132 41.0549 39.409 40.9573 39.5036C40.9221 39.5378 40.8996 39.5373 40.8629 39.5015C40.7618 39.403 40.6626 39.3026 40.5633 39.2022C40.5372 39.1758 40.5373 39.1452 40.5632 39.119C40.6623 39.0185 40.7616 38.9181 40.8626 38.8195C40.8997 38.7833 40.921 38.7834 40.957 38.8169C40.9942 38.8516 41.0303 38.8875 41.0691 38.9262L41.0696 38.9268L41.0705 38.9276C41.087 38.9441 41.104 38.961 41.1218 38.9786ZM34.9254 39.2095C34.9607 39.1727 34.9618 39.1487 34.9287 39.1149C34.8301 39.0139 34.7302 38.9141 34.6291 38.8155C34.5938 38.7811 34.5666 38.779 34.5331 38.8113C34.428 38.9131 34.3252 39.0172 34.2226 39.1216C34.2009 39.1436 34.2063 39.1703 34.2268 39.1909C34.3337 39.2984 34.441 39.4055 34.5491 39.5118C34.5702 39.5325 34.5962 39.5323 34.6193 39.5127C34.7287 39.4203 34.8265 39.3126 34.9254 39.2095ZM28.5233 39.2876L28.499 39.3117C28.43 39.3802 28.365 39.4447 28.2994 39.5084C28.2728 39.5343 28.2422 39.5336 28.2162 39.5078C28.1122 39.4047 28.0088 39.3012 27.9064 39.1966C27.8865 39.1762 27.8834 39.1482 27.9051 39.1264C28.0117 39.0188 28.119 38.9118 28.2271 38.8057C28.2496 38.7837 28.2771 38.7914 28.2972 38.811C28.3981 38.9097 28.4987 39.0087 28.5975 39.1095C28.6376 39.1505 28.6352 39.1614 28.5937 39.2158C28.5876 39.2239 28.5803 39.2311 28.5707 39.2405C28.5656 39.2455 28.5597 39.2512 28.5532 39.258C28.5431 39.2679 28.5332 39.2778 28.5233 39.2876ZM44.0735 36.3677C44.101 36.3681 44.1289 36.34 44.1866 36.2821C44.1933 36.2754 44.2004 36.2683 44.208 36.2607C44.2267 36.2418 44.245 36.2234 44.2629 36.2053L44.2633 36.2049C44.3199 36.1479 44.3729 36.0945 44.4249 36.0401C44.4441 36.0201 44.4512 35.9923 44.429 35.9698C44.3226 35.8619 44.2155 35.7548 44.1076 35.6485C44.0857 35.6269 44.0581 35.6308 44.0375 35.651C43.933 35.7535 43.8293 35.8568 43.7263 35.9607C43.7003 35.9868 43.7009 36.0173 43.7267 36.0438C43.7997 36.1186 43.8732 36.193 43.9474 36.2667C43.9525 36.2719 43.9575 36.2768 43.9622 36.2816C43.9657 36.2851 43.9691 36.2884 43.9723 36.2917C44.0219 36.3416 44.0475 36.3673 44.0735 36.3677ZM25.2035 36.2858C25.149 36.3406 25.1219 36.3679 25.0948 36.3679C25.0679 36.3678 25.041 36.3406 24.9874 36.2864L24.9873 36.2862L24.987 36.286C24.9715 36.2703 24.9536 36.2522 24.9329 36.2319C24.8692 36.1696 24.8069 36.1057 24.7458 36.0408C24.7262 36.02 24.7245 35.9922 24.7462 35.9702C24.8492 35.8656 24.9528 35.7615 25.0569 35.658C25.0831 35.6319 25.1121 35.6314 25.14 35.6573L25.1485 35.6652C25.1611 35.6768 25.1736 35.6884 25.1858 35.7005L25.2383 35.7526L25.2384 35.7528C25.2917 35.8055 25.3449 35.8583 25.3973 35.9119C25.4845 36.0011 25.4843 36.002 25.4025 36.0868C25.3722 36.1183 25.3412 36.149 25.3075 36.1824C25.2926 36.1972 25.2772 36.2125 25.261 36.2286C25.2389 36.2502 25.2199 36.2693 25.2035 36.2858ZM34.2728 32.9235L34.2735 32.9244C34.3013 32.952 34.3282 32.979 34.3546 33.0054L34.3549 33.0057C34.4142 33.065 34.4709 33.1217 34.5286 33.1772C34.5747 33.2216 34.5934 33.2228 34.6352 33.1822C34.7335 33.0869 34.8303 32.9899 34.9259 32.8919C34.9617 32.8551 34.9622 32.8316 34.9281 32.7968C34.8291 32.6957 34.7284 32.5963 34.6276 32.4969L34.6271 32.4964L34.6261 32.4954C34.5992 32.4689 34.5691 32.4698 34.5424 32.4961L34.504 32.534C34.4192 32.6174 34.3344 32.7009 34.2513 32.786C34.2038 32.8346 34.2056 32.837 34.2728 32.9235ZM28.2021 32.5089C28.2486 32.4649 28.2666 32.4633 28.3081 32.5036C28.4058 32.5982 28.5019 32.6944 28.5969 32.7916C28.6344 32.8301 28.6366 32.8534 28.6046 32.8861C28.5021 32.9904 28.3977 33.093 28.293 33.1953C28.2716 33.2163 28.2443 33.2159 28.223 33.1951C28.1184 33.0927 28.0146 32.9895 27.9112 32.886C27.8854 32.8601 27.884 32.8303 27.9093 32.8028C28.003 32.7014 28.1018 32.6038 28.2021 32.5089ZM37.9026 29.9219C37.9166 29.908 37.9311 29.8937 37.9461 29.8789C37.9523 29.8726 37.9584 29.8664 37.9644 29.8604C37.9725 29.8522 37.9804 29.8442 37.9882 29.8363L37.9897 29.8348L37.9902 29.8343C38.028 29.7961 38.0627 29.761 38.0968 29.7252C38.1228 29.698 38.1207 29.6677 38.0951 29.642C37.9919 29.5383 37.888 29.4351 37.7834 29.3328C37.7622 29.3121 37.7349 29.3111 37.7133 29.3322C37.6086 29.4346 37.5047 29.5376 37.4014 29.6412C37.376 29.6667 37.3717 29.6974 37.3985 29.7245C37.5015 29.8284 37.6052 29.9318 37.7096 30.0343C37.7369 30.0612 37.767 30.0542 37.7925 30.0297C37.8279 29.9958 37.8627 29.9613 37.9006 29.9239L37.9008 29.9237L37.9026 29.9219ZM31.3582 29.3635L31.3602 29.3622C31.4339 29.3132 31.4368 29.3113 31.4727 29.3463C31.5705 29.4414 31.6671 29.5377 31.7624 29.6353C31.7986 29.6724 31.7996 29.6955 31.7659 29.7301C31.667 29.8315 31.5662 29.931 31.4655 30.0306C31.4399 30.0558 31.4093 30.0606 31.3822 30.0339C31.2811 29.9348 31.1803 29.8353 31.0813 29.734C31.0464 29.6984 31.0474 29.6772 31.084 29.6394C31.1493 29.572 31.2157 29.5057 31.2855 29.4362L31.3264 29.3954C31.3369 29.3849 31.3475 29.3743 31.3582 29.3635ZM34.7784 26.7249C34.7852 26.7182 34.7921 26.7114 34.7991 26.7046C34.8116 26.6919 34.8237 26.6797 34.8353 26.6679C34.8687 26.634 34.8988 26.6034 34.9285 26.5724C34.9544 26.5453 34.9552 26.5155 34.9288 26.489C34.9022 26.4621 34.8759 26.4348 34.8495 26.4074C34.7663 26.3211 34.6819 26.2335 34.5822 26.1528C34.457 26.2616 34.3454 26.379 34.2341 26.4968C34.2124 26.5198 34.2174 26.5475 34.2373 26.5676C34.3408 26.6723 34.4454 26.776 34.5507 26.879C34.5726 26.9004 34.5997 26.8976 34.6212 26.8774C34.6636 26.8375 34.7052 26.7966 34.7501 26.7526L34.7502 26.7525C34.7594 26.7434 34.7689 26.7342 34.7784 26.7249ZM37.6149 36.2609L37.5796 36.2253C37.5191 36.1643 37.4634 36.1081 37.4081 36.0514C37.3818 36.0245 37.3818 35.9952 37.4082 35.9687C37.5116 35.8648 37.6155 35.7613 37.7197 35.6581C37.7416 35.6365 37.7686 35.6357 37.7896 35.6564C37.8944 35.759 37.9981 35.8626 38.1012 35.9669C38.1282 35.9942 38.122 36.0247 38.097 36.0499C37.9975 36.1504 37.8979 36.2509 37.7965 36.3494C37.7617 36.3832 37.7421 36.3808 37.702 36.3456C37.6835 36.3294 37.6661 36.3119 37.6462 36.292C37.6365 36.2823 37.6262 36.272 37.6149 36.2609Z" fill="#00AC46"/>
<path d="M68.5301 50.0973V38.8142H81.8901V35.3963H68.5301V26.2546H82.6735V22.7955H64.7778V50.0973H68.5301Z" fill="#00AC46"/>
<path d="M88.618 29.9325V50.0973H92.1229V29.9325H88.618ZM87.8346 24.3734C87.8346 25.8558 88.9479 26.8853 90.3911 26.8853C91.7931 26.8853 92.9064 25.8558 92.9064 24.3734C92.9064 22.9321 91.7931 21.9027 90.3911 21.9027C88.9479 21.9027 87.8346 22.9321 87.8346 24.3734Z" fill="#00AC46"/>
<path d="M99.5467 50.0973H109.278C115.133 50.0973 119.009 47.5854 119.009 42.438C119.009 38.7319 116.989 36.6317 113.938 35.8081C116.123 34.8198 117.649 32.8844 117.649 30.0019C117.649 25.3486 114.226 22.7955 108.824 22.7955H99.5467V50.0973ZM103.299 46.8853V37.4965H109.608C113.113 37.4965 115.133 39.1848 115.133 42.1909C115.133 45.2382 113.113 46.8853 109.608 46.8853H103.299ZM103.299 34.6139V26.0075H108.701C111.999 26.0075 113.773 27.6546 113.773 30.2901C113.773 32.9668 111.999 34.6139 108.701 34.6139H103.299Z" fill="#00AC46"/>
<path d="M140.158 50.0973H144.776L136.241 38.9789C140.323 38.3201 143.127 35.5199 143.127 31.1549C143.127 26.0898 139.375 22.7955 133.313 22.7955H124.159V50.0973H127.911V26.131H133.189C136.777 26.131 139.21 28.2312 139.21 31.5255C139.21 34.7375 136.983 37.0847 132.777 37.0847H130.303L140.158 50.0973Z" fill="#00AC46"/>
<path d="M149.404 50.0973H167.505V46.6794H153.156V37.8259H166.763V34.6139H153.156V26.2134H167.505V22.7955H149.404V50.0973Z" fill="#00AC46"/>
</svg>
