<svg xmlns="http://www.w3.org/2000/svg" fill="none" viewBox="15.12 9.29 49.66 24.08">
<g id="logo">
<path id="Vector" d="M22.604 20.6609H20.172L17.214 16.9729V20.6609H15.116V9.29492H17.214V16.1289L20.004 12.5409H22.506L19.244 16.5549L22.604 20.6609Z" fill="white"/>
<path id="Vector_2" d="M29.97 19.6487C29.134 20.4767 28.114 20.8887 26.914 20.8887C25.714 20.8887 24.694 20.4787 23.872 19.6487C23.05 18.8207 22.632 17.8087 22.632 16.6067C22.632 15.4047 23.042 14.3867 23.872 13.5647C24.7 12.7427 25.712 12.3247 26.914 12.3247C28.116 12.3247 29.134 12.7347 29.97 13.5647C30.806 14.3927 31.216 15.4047 31.216 16.6067C31.216 17.8087 30.798 18.8267 29.97 19.6487ZM25.348 18.2127C25.766 18.6387 26.284 18.8447 26.914 18.8447C27.544 18.8447 28.07 18.6327 28.488 18.2127C28.906 17.7947 29.12 17.2547 29.12 16.6087C29.12 15.9627 28.908 15.4227 28.488 15.0047C28.07 14.5867 27.538 14.3727 26.914 14.3727C26.29 14.3727 25.766 14.5847 25.348 15.0047C24.93 15.4307 24.724 15.9627 24.724 16.6087C24.724 17.2547 24.93 17.7947 25.348 18.2127Z" fill="white"/>
<path id="Vector_3" d="M37.428 12.3128C38.522 12.3128 39.458 12.7228 40.226 13.5528C40.994 14.3808 41.39 15.3928 41.39 16.5948C41.39 17.7968 41.002 18.8148 40.226 19.6368C39.45 20.4588 38.516 20.8768 37.428 20.8768C36.34 20.8768 35.414 20.4808 34.798 19.6908V20.6488H32.7V9.29883H34.798V13.5028C35.414 12.7128 36.288 12.3168 37.428 12.3168V12.3128ZM35.428 18.2508C35.854 18.6768 36.386 18.8888 37.032 18.8888C37.678 18.8888 38.218 18.6768 38.652 18.2508C39.078 17.8248 39.29 17.2768 39.29 16.6008C39.29 15.9248 39.078 15.3768 38.652 14.9508C38.226 14.5248 37.686 14.3128 37.032 14.3128C36.378 14.3128 35.846 14.5248 35.428 14.9508C35.002 15.3768 34.796 15.9308 34.796 16.6008C34.796 17.2708 35.008 17.8248 35.428 18.2508Z" fill="white"/>
<path id="Vector_4" d="M49.782 19.6487C48.946 20.4767 47.926 20.8887 46.726 20.8887C45.526 20.8887 44.506 20.4787 43.684 19.6487C42.856 18.8207 42.444 17.8087 42.444 16.6067C42.444 15.4047 42.854 14.3867 43.684 13.5647C44.512 12.7367 45.524 12.3247 46.726 12.3247C47.928 12.3247 48.946 12.7347 49.782 13.5647C50.618 14.3927 51.028 15.4047 51.028 16.6067C51.028 17.8087 50.61 18.8267 49.782 19.6487ZM45.16 18.2127C45.578 18.6387 46.096 18.8447 46.726 18.8447C47.356 18.8447 47.882 18.6327 48.3 18.2127C48.718 17.7947 48.932 17.2547 48.932 16.6087C48.932 15.9627 48.72 15.4227 48.3 15.0047C47.882 14.5867 47.35 14.3727 46.726 14.3727C46.102 14.3727 45.578 14.5847 45.16 15.0047C44.742 15.4307 44.536 15.9627 44.536 16.6087C44.536 17.2547 44.742 17.7947 45.16 18.2127Z" fill="white"/>
<path id="Vector_5" d="M52.512 20.6609V9.29492H54.61V20.6609H52.512Z" fill="white"/>
<path id="Vector_6" d="M62.678 9.29502H64.776V20.661H62.678V19.703C62.062 20.493 61.188 20.889 60.048 20.889C58.908 20.889 58.018 20.479 57.25 19.649C56.474 18.821 56.086 17.809 56.086 16.607C56.086 15.405 56.474 14.387 57.25 13.565C58.026 12.737 58.96 12.325 60.048 12.325C61.136 12.325 62.062 12.721 62.678 13.511V9.29102V9.29502ZM58.824 18.251C59.25 18.677 59.79 18.889 60.436 18.889C61.082 18.889 61.622 18.677 62.04 18.251C62.466 17.825 62.67 17.277 62.67 16.601C62.67 15.925 62.458 15.377 62.04 14.951C61.614 14.525 61.082 14.313 60.436 14.313C59.79 14.313 59.25 14.525 58.824 14.951C58.398 15.377 58.186 15.931 58.186 16.601C58.186 17.271 58.398 17.825 58.824 18.251Z" fill="white"/>
<path id="Vector_7" d="M33.816 31.4066H33.384C34.142 32.5906 35.464 33.3726 36.974 33.3726C38.294 33.3726 39.478 32.7726 40.252 31.8326C41.034 32.7746 42.218 33.3726 43.538 33.3726C45.048 33.3726 46.376 32.5906 47.128 31.4066H46.696C45.982 32.3866 44.836 33.0146 43.532 33.0146C42.158 33.0146 40.944 32.3006 40.246 31.2226C39.548 32.3006 38.342 33.0146 36.968 33.0146C35.67 33.0146 34.516 32.3766 33.804 31.4066M43.518 29.9106V29.0306H44.922V28.5066H43.518V27.7326H45.088V27.2086H42.818V30.4346H45.164V29.9106H43.518ZM41.416 30.4346L42.32 27.2086H41.698L41.114 29.4466L40.606 27.2086H39.954L39.4 29.4546L38.884 27.2086H38.11L39.006 30.4346H39.69L40.198 28.3706L40.722 30.4346H41.42H41.416ZM37.91 30.4346L37.076 29.2046C37.296 29.1206 37.766 28.8166 37.766 28.2706C37.766 27.5806 37.234 27.2086 36.666 27.2086H35.17V30.4346H35.868V27.7026H36.46C36.772 27.7026 37.052 27.9066 37.052 28.2866C37.052 28.6666 36.718 28.8786 36.338 28.8786C36.27 28.8786 36.202 28.8786 36.148 28.8706L37.028 30.4266H37.9L37.908 30.4346H37.91ZM29.918 30.4346L31.102 27.2086H30.45L29.622 29.5766L28.818 27.2086H28.022L29.228 30.4346H29.918ZM33.88 28.8186C33.88 29.4786 33.462 30.0106 32.924 30.0106C32.386 30.0106 31.968 29.4786 31.968 28.8186C31.968 28.1586 32.386 27.6266 32.924 27.6266C33.462 27.6266 33.88 28.1586 33.88 28.8186ZM32.924 27.1106C31.99 27.1106 31.24 27.8766 31.24 28.8186C31.24 29.7606 31.998 30.5266 32.924 30.5266C33.85 30.5266 34.616 29.7606 34.616 28.8186C34.616 27.8766 33.858 27.1106 32.924 27.1106ZM46.676 26.2226H47.108C46.35 25.0466 45.028 24.2646 43.526 24.2646C42.206 24.2646 41.022 24.8646 40.24 25.8126C39.458 24.8706 38.282 24.2646 36.954 24.2646C35.452 24.2646 34.13 25.0466 33.372 26.2226H33.804C34.518 25.2506 35.664 24.6206 36.954 24.6206C38.328 24.6206 39.542 25.3346 40.24 26.4126C40.938 25.3346 42.144 24.6206 43.526 24.6206C44.824 24.6206 45.97 25.2506 46.676 26.2226ZM48.512 30.4346L47.678 29.2046C47.898 29.1206 48.368 28.8166 48.368 28.2706C48.368 27.5806 47.836 27.2086 47.268 27.2086H45.772V30.4346H46.462V27.7026H47.054C47.366 27.7026 47.646 27.9066 47.646 28.2866C47.646 28.6666 47.312 28.8786 46.932 28.8786C46.864 28.8786 46.796 28.8786 46.742 28.8706L47.622 30.4266H48.494L48.51 30.4346H48.512ZM48.982 30.4346H49.672V27.2086H48.982V30.4346ZM51.874 30.4346L50.522 28.6426L51.722 27.2086H50.888L49.764 28.6806L50.948 30.4346H51.874Z" fill="white"/>
</g>
</svg>