<svg width="49" height="49" viewBox="0 0 49 49" fill="none" xmlns="http://www.w3.org/2000/svg">
<g id="calendar_illustration">
<path id="vector" d="M14.7641 24.0827H23.1176M14.7641 29.0019H22.9799M27.0684 29.0019H35.4219M14.7641 33.9511L22.9541 33.977M27.0684 24.0827H35.4219M15.6851 11.0081H8.11919V17.4765M15.6851 11.0081V6.65271M15.6851 11.0081H34.4751M15.6851 11.0081V13.2546M8.11919 17.4765H42.0712M8.11919 17.4765L8.07616 27.9862M34.4751 11.0081H42.0712V17.4765M34.4751 11.0081V6.65271M34.4751 11.0081V13.2546M42.0712 17.4765V33.3314C42.0712 37.846 38.4087 41.5084 33.8941 41.5084H8.11919L8.08907 37.9148M7.15947 30.6115L7.52959 33L9.44904 34.4073M12.3497 32.2383C12.7629 34.9023 10.9338 37.3941 8.26982 37.8073C5.60583 38.2204 3.11398 36.3913 2.70083 33.7273C2.28767 31.0633 4.11675 28.5715 6.78074 28.1583C9.44474 27.7452 11.9366 29.5743 12.3497 32.2383Z" stroke="#23282A" stroke-width="1.5"/>
</g>
</svg>
