<svg width="65" height="65" viewBox="0 0 65 65" fill="none" xmlns="http://www.w3.org/2000/svg">
<g id="illustration">
<path id="vector" d="M19.5192 31.7977H30.6572M19.5192 38.3566H30.4736M35.925 38.3566H47.063M19.5192 44.9556L30.4392 44.99M35.925 31.7977H47.063M20.7472 14.3648H10.6593V22.9894M20.7472 14.3648V8.55768M20.7472 14.3648H45.8005M20.7472 14.3648V17.3602M10.6593 22.9894H55.9286M10.6593 22.9894L10.6019 37.0023M45.8005 14.3648H55.9286V22.9894M45.8005 14.3648V8.55768M45.8005 14.3648V17.3602M55.9286 22.9894V44.1293C55.9286 50.1487 51.0453 55.032 45.0259 55.032H10.6593L10.6192 50.2405M9.3797 40.5027L9.87319 43.6874L12.4325 45.5638M16.3001 42.6717C16.8509 46.2237 14.4122 49.5462 10.8602 50.0971C7.30818 50.6479 3.98572 48.2092 3.43484 44.6572C2.88397 41.1052 5.32273 37.7827 8.87473 37.2319C12.4267 36.681 15.7492 39.1197 16.3001 42.6717Z" stroke="#23282A" stroke-width="1.42857"/>
</g>
</svg>
