<svg width="49" height="49" viewBox="0 0 49 49" fill="none" xmlns="http://www.w3.org/2000/svg">
<g id="created-recipe_illustration">
<path id="vector" d="M13.5599 6.79755L12.9232 7.19407L13.1213 7.51197L13.4943 7.54469L13.5599 6.79755ZM13.1032 6.06445L13.7398 5.66793L12.5726 3.79391L12.3568 5.99116L13.1032 6.06445ZM13.0223 6.88902L13.4043 7.53445L13.7315 7.34076L13.7687 6.96231L13.0223 6.88902ZM12.2883 7.3234L11.9063 6.67798L10.1047 7.74427L12.1736 8.06457L12.2883 7.3234ZM13.118 7.45186L13.7546 7.05534L13.5728 6.76333L13.2328 6.71069L13.118 7.45186ZM13.5746 8.18496L12.938 8.58148L14.1053 10.4555L14.3211 8.25826L13.5746 8.18496ZM13.6556 7.3604L13.2683 6.71814L12.946 6.91251L12.9092 7.2871L13.6556 7.3604ZM14.4583 6.87635L14.8456 7.5186L16.8162 6.33025L14.5238 6.12921L14.4583 6.87635ZM9.59451 11.5871L9.44988 10.8512L9.59451 11.5871ZM31.8261 7.21797L31.9708 7.9539L31.8261 7.21797ZM38.3468 40.398L38.4914 41.1339L38.3468 40.398ZM16.1144 44.7673L15.9698 44.0314L16.1144 44.7673ZM34.1336 8.76742L33.3976 8.91205L34.1336 8.76742ZM39.8962 38.0904L39.1603 38.2351L39.8962 38.0904ZM13.8072 43.2188L13.0713 43.3638L13.8072 43.2188ZM8.04506 13.8946L7.30914 14.0392L8.04506 13.8946ZM8.58696 16.1224L8.1798 16.7522L8.49433 16.9555L8.84583 16.8263L8.58696 16.1224ZM5.33179 14.0182L5.73894 13.3883L3.88478 12.1898L4.62523 14.2697L5.33179 14.0182ZM6.57881 17.5211L7.19929 17.9425L7.41291 17.6279L7.28538 17.2696L6.57881 17.5211ZM4.42871 20.6876L3.80823 20.2663L2.63219 21.9983L4.6405 21.4071L4.42871 20.6876ZM8.0433 19.6236L8.45046 18.9938L8.16154 18.807L7.83151 18.9041L8.0433 19.6236ZM11.2985 21.7278L10.8913 22.3577L12.7455 23.5562L12.005 21.4763L11.2985 21.7278ZM10.0514 18.2248L9.42751 17.8086L9.21865 18.1218L9.34488 18.4764L10.0514 18.2248ZM12.3858 14.7253L13.0097 15.1415L14.2867 13.2271L12.1269 14.0214L12.3858 14.7253ZM20.3093 22.5534L21.0422 22.3939L20.9103 21.7881L20.2905 21.8037L20.3093 22.5534ZM18.0791 20.8012L17.3463 20.9608L18.0791 20.8012ZM19.7836 18.1498L19.9434 18.8826L19.7836 18.1498ZM20.3584 18.1002L20.3255 18.8495L20.8163 18.871L21.0322 18.4296L20.3584 18.1002ZM21.8881 16.8992L22.048 17.632L21.8881 16.8992ZM23.8225 17.3913L23.3321 17.9587L23.7446 18.3152L24.211 18.0328L23.8225 17.3913ZM24.5033 17.1203L24.6631 17.8531L24.5033 17.1203ZM27.1555 18.8214L26.4227 18.981L27.1555 18.8214ZM25.856 21.3436L25.5609 20.6541L24.9914 20.8978L25.1232 21.5031L25.856 21.3436ZM26.7394 25.4007L26.8993 26.1334L27.6318 25.9737L27.4722 25.2411L26.7394 25.4007ZM21.1927 26.6105L20.4599 26.7701L20.6195 27.5032L21.3526 27.3433L21.1927 26.6105ZM20.5663 23.7348L19.8335 23.8947L20.1532 25.3602L20.886 25.2004L20.5663 23.7348ZM26.4326 23.9905L27.1654 23.8307L26.8457 22.3651L26.113 22.525L26.4326 23.9905ZM34.3579 29.6479L33.6579 29.3786L33.3194 30.2587L34.2531 30.3905L34.3579 29.6479ZM34.6843 28.5343L35.4224 28.6674L34.6843 28.5343ZM35.2864 25.7491L35.8832 26.2032L35.2864 25.7491ZM38.0333 25.2318L38.4456 24.6053L38.0333 25.2318ZM38.1979 28.4338L37.6135 27.9636L38.1979 28.4338ZM44.448 14.1838L44.0153 14.7964L44.448 14.1838ZM14.1965 6.40103L13.7398 5.66793L12.4666 6.46097L12.9232 7.19407L14.1965 6.40103ZM12.3568 5.99116L12.2759 6.81573L13.7687 6.96231L13.8496 6.13775L12.3568 5.99116ZM12.6403 6.24359L11.9063 6.67798L12.6703 7.96883L13.4043 7.53445L12.6403 6.24359ZM12.1736 8.06457L13.0033 8.19303L13.2328 6.71069L12.4031 6.58224L12.1736 8.06457ZM12.4814 7.84838L12.938 8.58148L14.2113 7.78844L13.7546 7.05534L12.4814 7.84838ZM14.3211 8.25826L14.402 7.43369L12.9092 7.2871L12.8282 8.11167L14.3211 8.25826ZM14.0429 8.00265L14.8456 7.5186L14.071 6.23409L13.2683 6.71814L14.0429 8.00265ZM14.5238 6.12921L13.6254 6.05042L13.4943 7.54469L14.3928 7.62348L14.5238 6.12921ZM9.73914 12.3231L31.9708 7.9539L31.6815 6.48205L9.44988 10.8512L9.73914 12.3231ZM38.2022 39.6621L15.9698 44.0314L16.259 45.5033L38.4914 41.1339L38.2022 39.6621ZM33.3976 8.91205L36.5104 24.7505L37.9822 24.4612L34.8695 8.62279L33.3976 8.91205ZM37.3353 28.953L39.1603 38.2351L40.6321 37.9457L38.8071 28.6636L37.3353 28.953ZM14.543 43.0738L10.0893 20.4705L8.61762 20.7604L13.0713 43.3638L14.543 43.0738ZM9.16762 15.7173L8.78098 13.7499L7.30914 14.0392L7.69578 16.0065L9.16762 15.7173ZM15.9698 44.0314C15.3114 44.1608 14.6727 43.7321 14.543 43.0738L13.0713 43.3638C13.3611 44.8346 14.7881 45.7923 16.259 45.5033L15.9698 44.0314ZM38.4914 41.1339C39.963 40.8447 40.9215 39.4173 40.6321 37.9457L39.1603 38.2351C39.2898 38.8937 38.8608 39.5326 38.2022 39.6621L38.4914 41.1339ZM31.9708 7.9539C32.6294 7.82446 33.2682 8.25344 33.3976 8.91205L34.8695 8.62279C34.5803 7.1513 33.153 6.19286 31.6815 6.48205L31.9708 7.9539ZM9.44988 10.8512C7.97839 11.1404 7.01995 12.5677 7.30914 14.0392L8.78098 13.7499C8.65155 13.0913 9.08053 12.4525 9.73914 12.3231L9.44988 10.8512ZM8.99411 15.4925L5.73894 13.3883L4.92464 14.648L8.1798 16.7522L8.99411 15.4925ZM4.62523 14.2697L5.87225 17.7727L7.28538 17.2696L6.03835 13.7666L4.62523 14.2697ZM5.95834 17.0998L3.80823 20.2663L5.04919 21.1089L7.19929 17.9425L5.95834 17.0998ZM4.6405 21.4071L8.25509 20.3431L7.83151 18.9041L4.21692 19.9682L4.6405 21.4071ZM7.63615 20.2535L10.8913 22.3577L11.7056 21.0979L8.45046 18.9938L7.63615 20.2535ZM12.005 21.4763L10.758 17.9733L9.34488 18.4764L10.5919 21.9793L12.005 21.4763ZM10.6754 18.641L13.0097 15.1415L11.7618 14.3091L9.42751 17.8086L10.6754 18.641ZM12.1269 14.0214L8.32809 15.4185L8.84583 16.8263L12.6446 15.4292L12.1269 14.0214ZM15.1441 37.1476L29.5715 34.3122L29.2822 32.8403L14.8549 35.6757L15.1441 37.1476ZM15.7335 40.1821L25.0938 38.4409L24.8194 36.9662L15.4591 38.7074L15.7335 40.1821ZM34.9017 34.1247C35.0223 34.7382 34.6221 35.3352 34.0053 35.4564L34.2945 36.9282C35.7223 36.6476 36.6543 35.2637 36.3736 33.8355L34.9017 34.1247ZM34.0053 35.4564C33.3884 35.5776 32.7921 35.1765 32.6715 34.563L31.1997 34.8523C31.4804 36.2806 32.8668 37.2088 34.2945 36.9282L34.0053 35.4564ZM32.6715 34.563C32.5509 33.9495 32.9511 33.3526 33.568 33.2313L33.2787 31.7595C31.8509 32.0401 30.919 33.424 31.1997 34.8523L32.6715 34.563ZM33.568 33.2313C34.1848 33.1101 34.7812 33.5112 34.9017 34.1247L36.3736 33.8355C36.0929 32.4072 34.7065 31.4789 33.2787 31.7595L33.568 33.2313ZM20.2905 21.8037C19.5956 21.8211 18.9648 21.3438 18.8119 20.6417L17.3463 20.9608C17.6553 22.3801 18.9284 23.3383 20.3282 23.3032L20.2905 21.8037ZM18.8119 20.6417C18.6385 19.8451 19.1442 19.0569 19.9434 18.8826L19.6237 17.417C18.0168 17.7676 16.9963 19.3536 17.3463 20.9608L18.8119 20.6417ZM19.9434 18.8826C20.0729 18.8543 20.2009 18.844 20.3255 18.8495L20.3913 17.3509C20.1385 17.3398 19.8808 17.361 19.6237 17.417L19.9434 18.8826ZM21.0322 18.4296C21.2249 18.0354 21.5879 17.7323 22.048 17.632L21.7283 16.1664C20.8016 16.3686 20.0701 16.9822 19.6846 17.7708L21.0322 18.4296ZM22.048 17.632C22.5213 17.5287 22.9905 17.6635 23.3321 17.9587L24.3129 16.8239C23.6291 16.2328 22.6821 15.9584 21.7283 16.1664L22.048 17.632ZM24.211 18.0328C24.3462 17.951 24.4977 17.8892 24.6631 17.8531L24.3434 16.3875C24.0145 16.4593 23.7087 16.5834 23.434 16.7497L24.211 18.0328ZM24.6631 17.8531C25.4621 17.6788 26.2493 18.1846 26.4227 18.981L27.8883 18.6619C27.5383 17.0544 25.9506 16.037 24.3434 16.3875L24.6631 17.8531ZM26.4227 18.981C26.5756 19.6832 26.2004 20.3804 25.5609 20.6541L26.1511 22.0331C27.4383 21.4822 28.1973 20.081 27.8883 18.6619L26.4227 18.981ZM25.1232 21.5031L26.0066 25.5602L27.4722 25.2411L26.5888 21.184L25.1232 21.5031ZM21.9256 26.451L21.0422 22.3939L19.5765 22.713L20.4599 26.7701L21.9256 26.451ZM26.5796 24.6679L21.0329 25.8778L21.3526 27.3433L26.8993 26.1334L26.5796 24.6679ZM20.886 25.2004L26.4326 23.9905L26.113 22.525L20.5663 23.7348L20.886 25.2004ZM31.5028 21.5368C31.5028 26.2605 27.6735 30.0898 22.9498 30.0898V31.5898C28.502 31.5898 33.0028 27.0889 33.0028 21.5368H31.5028ZM22.9498 30.0898C18.2261 30.0898 14.3968 26.2605 14.3968 21.5368H12.8968C12.8968 27.0889 17.3977 31.5898 22.9498 31.5898V30.0898ZM14.3968 21.5368C14.3968 16.8131 18.2261 12.9838 22.9498 12.9838V11.4838C17.3977 11.4838 12.8968 15.9847 12.8968 21.5368H14.3968ZM22.9498 12.9838C27.6735 12.9838 31.5028 16.8131 31.5028 21.5368H33.0028C33.0028 15.9847 28.502 11.4838 22.9498 11.4838V12.9838ZM34.3579 29.6479C35.0579 29.9171 35.0579 29.9171 35.0579 29.917C35.0579 29.917 35.058 29.9169 35.058 29.9169C35.058 29.9168 35.058 29.9167 35.0581 29.9166C35.0582 29.9164 35.0583 29.9162 35.0584 29.9159C35.0586 29.9153 35.0589 29.9146 35.0592 29.9137C35.0598 29.912 35.0607 29.9097 35.0618 29.9068C35.064 29.901 35.067 29.893 35.0708 29.8829C35.0784 29.8626 35.089 29.8339 35.1018 29.7983C35.1275 29.7271 35.1625 29.6272 35.2005 29.5104C35.2745 29.283 35.3684 28.9668 35.4224 28.6674L33.9462 28.4011C33.9103 28.6006 33.8409 28.8412 33.7742 29.0459C33.7419 29.1451 33.7121 29.2301 33.6906 29.2898C33.6799 29.3196 33.6713 29.3428 33.6656 29.3581C33.6628 29.3658 33.6606 29.3714 33.6593 29.3749C33.6586 29.3766 33.6582 29.3778 33.6579 29.3785C33.6578 29.3788 33.6578 29.379 33.6577 29.379C33.6577 29.379 33.6577 29.379 33.6578 29.3789C33.6578 29.3789 33.6578 29.3789 33.6578 29.3788C33.6578 29.3788 33.6578 29.3787 33.6578 29.3787C33.6579 29.3787 33.6579 29.3786 34.3579 29.6479ZM35.4224 28.6674C35.4759 28.371 35.4876 28.0942 35.4923 27.8558C35.4972 27.6004 35.4946 27.4188 35.5092 27.2198C35.5345 26.8732 35.6084 26.5644 35.8832 26.2032L34.6896 25.2949C34.1956 25.9439 34.0539 26.5538 34.0132 27.1103C33.9947 27.3628 33.9964 27.6288 33.9925 27.8267C33.9884 28.0415 33.9782 28.2236 33.9462 28.4011L35.4224 28.6674ZM35.8832 26.2032C36.3432 25.5988 37.0421 25.4773 37.621 25.8583L38.4456 24.6053C37.1542 23.7554 35.5872 24.1153 34.6895 25.2949L35.8832 26.2032ZM37.621 25.8583C37.8889 26.0346 38.0413 26.3339 38.0474 26.7366C38.0536 27.1501 37.8974 27.6107 37.6135 27.9636L38.7822 28.9039C39.2784 28.2872 39.5589 27.4883 39.5472 26.714C39.5354 25.9288 39.2155 25.1119 38.4456 24.6053L37.621 25.8583ZM37.6135 27.9636C37.1547 28.5339 36.4229 28.7932 35.7034 28.8887C35.3543 28.9351 35.0367 28.9387 34.8064 28.9304C34.692 28.9263 34.6011 28.9193 34.541 28.9137C34.511 28.9109 34.4889 28.9084 34.4755 28.9068C34.4688 28.906 34.4643 28.9054 34.4621 28.9051C34.461 28.905 34.4605 28.9049 34.4606 28.905C34.4607 28.905 34.4609 28.905 34.4612 28.905C34.4614 28.9051 34.4616 28.9051 34.4618 28.9051C34.462 28.9051 34.4622 28.9052 34.4622 28.9052C34.4625 28.9052 34.4627 28.9052 34.3579 29.6479C34.2531 30.3905 34.2533 30.3906 34.2536 30.3906C34.2537 30.3906 34.254 30.3906 34.2542 30.3907C34.2546 30.3907 34.255 30.3908 34.2555 30.3909C34.2565 30.391 34.2576 30.3911 34.2589 30.3913C34.2614 30.3917 34.2646 30.3921 34.2685 30.3926C34.2761 30.3936 34.2862 30.3949 34.2986 30.3963C34.3235 30.3993 34.3578 30.4031 34.4006 30.4071C34.4861 30.4151 34.606 30.4242 34.7525 30.4295C35.0439 30.4399 35.4485 30.4357 35.9008 30.3757C36.7841 30.2584 37.9723 29.9106 38.7822 28.9039L37.6135 27.9636ZM38.5359 25.7813C39.0737 26.3041 39.0738 26.3039 39.0739 26.3038C39.074 26.3037 39.0742 26.3035 39.0744 26.3033C39.0748 26.3029 39.0753 26.3024 39.0759 26.3017C39.0772 26.3004 39.0791 26.2985 39.0815 26.296C39.0863 26.2911 39.0932 26.2839 39.1021 26.2746C39.1201 26.256 39.1463 26.2286 39.1801 26.1932C39.2477 26.1222 39.3458 26.0186 39.469 25.8864C39.7154 25.6219 40.0629 25.2425 40.4696 24.7805C41.2814 23.8582 42.3361 22.5984 43.2937 21.2613C44.2425 19.9363 45.1336 18.4842 45.5753 17.1845C45.7961 16.5349 45.9254 15.8647 45.8514 15.2388C45.7739 14.5836 45.4725 13.9893 44.8807 13.5713L44.0153 14.7964C44.2181 14.9397 44.3279 15.1288 44.3617 15.4149C44.399 15.7302 44.3396 16.159 44.1551 16.7019C43.7863 17.7872 43.0007 19.0942 42.0742 20.3879C41.1564 21.6694 40.1371 22.888 39.3437 23.7894C38.9478 24.2392 38.6099 24.608 38.3716 24.8638C38.2525 24.9916 38.1583 25.0911 38.0943 25.1583C38.0623 25.1919 38.0378 25.2173 38.0216 25.2342C38.0135 25.2426 38.0074 25.2489 38.0035 25.253C38.0015 25.255 38 25.2565 37.9991 25.2575C37.9987 25.2579 37.9984 25.2582 37.9982 25.2584C37.9981 25.2585 37.9981 25.2585 37.9981 25.2586C37.9981 25.2586 37.9981 25.2585 38.5359 25.7813ZM44.8807 13.5713C44.2863 13.1514 43.6283 13.098 43.0073 13.3204C42.4329 13.526 41.9183 13.9542 41.4701 14.4444C40.5682 15.431 39.714 16.9185 38.9867 18.4058C38.252 19.9083 37.6172 21.473 37.1673 22.6573C36.942 23.2506 36.7621 23.751 36.6384 24.1037C36.5765 24.2801 36.5286 24.4197 36.496 24.5156C36.4797 24.5636 36.4672 24.6007 36.4588 24.626C36.4545 24.6387 36.4513 24.6484 36.4491 24.6551C36.448 24.6584 36.4471 24.661 36.4465 24.6628C36.4462 24.6637 36.446 24.6644 36.4458 24.6649C36.4457 24.6652 36.4456 24.6654 36.4456 24.6656C36.4455 24.6657 36.4455 24.6659 37.1578 24.9008C37.87 25.1357 37.87 25.1357 37.87 25.1357C37.87 25.1356 37.8701 25.1356 37.8701 25.1354C37.8702 25.1352 37.8703 25.1347 37.8706 25.1341C37.871 25.1327 37.8717 25.1307 37.8726 25.1278C37.8745 25.1222 37.8774 25.1135 37.8813 25.1018C37.8891 25.0786 37.9008 25.0437 37.9163 24.9979C37.9474 24.9064 37.9937 24.7716 38.0538 24.6003C38.174 24.2577 38.3495 23.7695 38.5696 23.1899C39.0107 22.0286 39.6272 20.5105 40.3342 19.0648C41.0486 17.6039 41.8266 16.2776 42.5772 15.4565C42.9553 15.0429 43.272 14.8188 43.5129 14.7326C43.707 14.6631 43.8481 14.6783 44.0153 14.7964L44.8807 13.5713Z" fill="#23282A"/>
</g>
</svg>
