<svg width="48" height="49" viewBox="0 0 48 49" fill="none" xmlns="http://www.w3.org/2000/svg">
<g id="dinner-ready_illustration">
<path id="vector" d="M14.665 15.4518C16.0051 13.9035 17.6294 12.656 19.4309 11.7631M21.5346 7.2024C21.4018 7.016 21.3237 6.78794 21.3237 6.54164V5.17615C21.3237 4.54654 21.8341 4.03613 22.4637 4.03613C23.0933 4.03613 23.6037 4.54654 23.6037 5.17615V6.54164C23.6037 6.7609 23.5418 6.96571 23.4346 7.13953M21.5346 7.2024C21.7413 7.49248 22.0804 7.68166 22.4637 7.68166C22.8741 7.68166 23.2338 7.46485 23.4346 7.13953M21.5346 7.2024C18.0187 7.53808 14.7107 9.08213 12.192 11.5944C9.32812 14.4509 7.71921 18.3252 7.71921 22.3649L38.2612 22.3649C38.2612 18.3252 36.6523 14.4509 33.7885 11.5944C31.0295 8.8425 27.3235 7.25233 23.4346 7.13953M24.9575 30.8984C26.7011 29.7164 27.662 26.5284 28.3122 26.1172C29.1717 25.5736 29.9655 25.5798 30.6382 26.1771C31.3109 26.7744 30.7477 27.6837 30.4097 27.9311C30.0717 28.1785 27.6645 33.7845 27.6051 34.3075C27.5633 34.6757 29.0516 35.7695 30.0705 36.4529M24.9575 30.8984C24.3965 31.2787 23.7545 31.4744 23.0156 31.341C21.157 31.0054 19.2992 29.4892 18.0162 28.2041M24.9575 30.8984C21.6927 29.5029 21.3009 28.0968 20.5321 27.2144C19.9418 26.537 19.4619 25.5681 18.1571 26.0977C17.2967 26.447 17.2298 27.3187 18.0162 28.2041M24.9575 30.8984C24.9743 30.9055 24.9911 30.9127 25.008 30.9199M18.0162 28.2041C17.2042 27.3908 16.6224 26.6701 16.4163 26.3999C15.8846 25.7028 14.8398 25.5412 14.0995 26.1771C13.3591 26.8131 15.1392 28.6757 15.4807 29.1175C15.8222 29.5594 18.4508 33.9652 18.906 34.4674C21.2314 37.0328 24.181 39.0734 26.9294 41.128M18.0162 28.2041C18.0368 28.2272 18.0579 28.2504 18.0796 28.2735M30.0115 45.4424L25.9657 42.5623L26.9294 41.128M43.3688 42.2776L31.2674 34.6716L30.0705 36.4529M30.0705 36.4529L26.9294 41.128M39.9685 25.6856L6.35779 25.6856C6.17659 25.6856 6.01028 25.5853 5.92566 25.4251L4.68808 23.0817C4.51622 22.7562 4.75217 22.3648 5.12021 22.3648L40.9399 22.3648C41.2883 22.3648 41.5247 22.7188 41.3914 23.0406L40.4199 25.384C40.3443 25.5666 40.1661 25.6856 39.9685 25.6856Z" stroke="#23282A" stroke-width="1.5"/>
</g>
</svg>
