<svg width="65" height="65" viewBox="0 0 65 65" fill="none" xmlns="http://www.w3.org/2000/svg">
<g id="illustration" clip-path="url(#clip0_4640_74)">
<path id="vector" d="M20.8186 5.96766L20.1505 6.22034L20.2767 6.55396L20.6192 6.65354L20.8186 5.96766ZM20.3766 4.79899L21.0447 4.54631L20.3008 2.57959L19.6928 4.59244L20.3766 4.79899ZM20.03 5.9464L20.2675 6.62005L20.609 6.49964L20.7138 6.15295L20.03 5.9464ZM18.8664 6.35661L18.6289 5.68296L16.7485 6.34586L18.6221 7.02781L18.8664 6.35661ZM20.0077 6.77205L20.6758 6.51936L20.5599 6.21291L20.252 6.10084L20.0077 6.77205ZM20.4497 7.94071L19.7816 8.1934L20.5255 10.1601L21.1335 8.14726L20.4497 7.94071ZM20.7963 6.79331L20.5533 6.12164L20.2162 6.2436L20.1126 6.58676L20.7963 6.79331ZM22.0715 6.33193L22.3145 7.0036L24.3753 6.25792L22.2709 5.64605L22.0715 6.33193ZM13.8454 11.6504L13.8465 10.9361L13.8454 11.6504ZM46.6225 11.697L46.6214 12.4113L46.6225 11.697ZM46.5527 60.6156L46.5517 61.3299L46.5527 60.6156ZM13.7746 60.5691L13.7756 59.8548L13.7746 60.5691ZM49.4616 14.5442L48.7473 14.5432L49.4616 14.5442ZM49.3999 57.7763L48.6857 57.7753L49.3999 57.7763ZM10.9354 57.7232L10.2211 57.7226L10.9354 57.7232ZM10.9982 14.4896L10.2839 14.4885L10.9982 14.4896ZM11.1412 17.8033L10.6444 18.3164L10.9006 18.5646L11.2529 18.5088L11.1412 17.8033ZM7.11304 13.9025L7.60994 13.3894L6.09942 11.9267L6.40641 14.0068L7.11304 13.9025ZM7.89841 19.2241L8.40015 19.7325L8.65792 19.4781L8.60504 19.1198L7.89841 19.2241ZM3.9574 23.1135L3.45566 22.6051L2.03656 24.0057L4.02217 23.8249L3.9574 23.1135ZM9.38591 22.6192L9.88281 22.1061L9.64743 21.8782L9.32114 21.9079L9.38591 22.6192ZM13.4141 26.52L12.9172 27.0331L14.4277 28.4959L14.1207 26.4157L13.4141 26.52ZM12.6287 21.1985L12.1228 20.6942L11.8698 20.9481L11.9221 21.3028L12.6287 21.1985ZM16.9248 16.8882L17.4307 17.3924L18.9778 15.8401L16.8132 16.1827L16.9248 16.8882ZM25.9696 30.2237L26.6838 30.2102L26.6726 29.6198L26.0907 29.5197L25.9696 30.2237ZM23.297 27.1104L22.5829 27.124L23.297 27.1104ZM26.4609 23.8267L26.4747 24.5408L26.4609 23.8267ZM27.2905 23.9178L27.1212 24.6117L27.5758 24.7226L27.8591 24.3502L27.2905 23.9178ZM29.7989 22.6433L29.8127 23.3574L29.7989 22.6433ZM32.4057 23.8851L31.8426 24.3245L32.162 24.7339L32.65 24.5564L32.4057 23.8851ZM33.448 23.6919L33.4618 24.406L33.448 23.6919ZM36.7338 26.8513L36.0196 26.8648L36.7338 26.8513ZM34.181 30.0653L34.0328 29.3665L33.4556 29.4889L33.4668 30.0788L34.181 30.0653ZM34.2946 36.071L34.3084 36.7852L35.0223 36.7714L35.0088 36.0575L34.2946 36.071ZM26.0833 36.2294L25.3691 36.2429L25.3826 36.9574L26.097 36.9436L26.0833 36.2294ZM26.0094 32.3431L25.2953 32.3569L25.3228 33.7852L26.037 33.7714L26.0094 32.3431ZM34.2484 33.613L34.9625 33.5992L34.935 32.1709L34.2208 32.1847L34.2484 33.613ZM43.9127 44.2391L43.3085 43.858L42.8294 44.6177L43.6774 44.9135L43.9127 44.2391ZM44.6888 42.7505L45.3538 43.0114L44.6888 42.7505ZM46.3259 38.9671L46.7994 39.5018L46.3259 38.9671ZM50.3694 39.0049L50.8705 38.4959L50.8705 38.4959L50.3694 39.0049ZM49.7032 43.5951L49.2443 43.0478L49.7032 43.5951ZM62.577 25.129L62.0594 25.6213L62.577 25.129ZM21.4867 5.71497L21.0447 4.54631L19.7085 5.05168L20.1505 6.22034L21.4867 5.71497ZM19.6928 4.59244L19.3462 5.73985L20.7138 6.15295L21.0604 5.00554L19.6928 4.59244ZM19.7925 5.27275L18.6289 5.68296L19.1039 7.03026L20.2675 6.62005L19.7925 5.27275ZM18.6221 7.02781L19.7634 7.44325L20.252 6.10084L19.1107 5.6854L18.6221 7.02781ZM19.3396 7.02473L19.7816 8.1934L21.1178 7.68803L20.6758 6.51936L19.3396 7.02473ZM21.1335 8.14726L21.4801 6.99985L20.1126 6.58676L19.766 7.73416L21.1335 8.14726ZM21.0394 7.46498L22.3145 7.0036L21.8284 5.66026L20.5533 6.12164L21.0394 7.46498ZM22.2709 5.64605L21.018 5.28177L20.6192 6.65354L21.872 7.01781L22.2709 5.64605ZM13.8444 12.3647L46.6214 12.4113L46.6235 10.9827L13.8465 10.9361L13.8444 12.3647ZM46.5537 59.9014L13.7756 59.8548L13.7735 61.2834L46.5517 61.3299L46.5537 59.9014ZM48.7473 14.5432L48.7141 37.8944L50.1427 37.8964L50.1759 14.5452L48.7473 14.5432ZM48.7039 44.09L48.6857 57.7753L50.1142 57.7772L50.1325 44.092L48.7039 44.09ZM11.6497 57.7239L11.6808 24.3956L10.2522 24.3943L10.2211 57.7226L11.6497 57.7239ZM11.7084 17.3911L11.7125 14.4906L10.2839 14.4885L10.2798 17.3891L11.7084 17.3911ZM13.7756 59.8548C12.6002 59.8531 11.6486 58.8993 11.6497 57.7239L10.2211 57.7226C10.2193 59.6866 11.8095 61.2806 13.7735 61.2834L13.7756 59.8548ZM46.5517 61.3299C48.5166 61.3327 50.1116 59.7421 50.1142 57.7772L48.6857 57.7753C48.6841 58.9511 47.7296 59.903 46.5537 59.9014L46.5517 61.3299ZM46.6214 12.4113C47.7972 12.4129 48.749 13.3674 48.7473 14.5432L50.1759 14.5452C50.1787 12.5805 48.5882 10.9855 46.6235 10.9827L46.6214 12.4113ZM13.8465 10.9361C11.8817 10.9333 10.2867 12.5238 10.2839 14.4885L11.7125 14.4906C11.7142 13.3148 12.6687 12.363 13.8444 12.3647L13.8465 10.9361ZM11.6381 17.2902L7.60994 13.3894L6.61615 14.4157L10.6444 18.3164L11.6381 17.2902ZM6.40641 14.0068L7.19178 19.3284L8.60504 19.1198L7.81967 13.7983L6.40641 14.0068ZM7.39667 18.7157L3.45566 22.6051L4.45914 23.6219L8.40015 19.7325L7.39667 18.7157ZM4.02217 23.8249L9.45068 23.3306L9.32114 21.9079L3.89263 22.4022L4.02217 23.8249ZM8.88902 23.1324L12.9172 27.0331L13.911 26.0069L9.88281 22.1061L8.88902 23.1324ZM14.1207 26.4157L13.3354 21.0942L11.9221 21.3028L12.7075 26.6243L14.1207 26.4157ZM13.1347 21.7027L17.4307 17.3924L16.4189 16.3839L12.1228 20.6942L13.1347 21.7027ZM16.8132 16.1827L11.0296 17.0978L11.2529 18.5088L17.0364 17.5937L16.8132 16.1827ZM14.5392 49.1124L35.8101 49.1426L35.8121 47.714L14.5413 47.6838L14.5392 49.1124ZM14.5267 53.5843L28.2993 53.7435L28.3158 52.3151L14.5432 52.1558L14.5267 53.5843ZM43.7972 50.7456C43.7956 51.8553 42.8932 52.7553 41.7796 52.7537L41.7775 54.1822C43.6783 54.1849 45.2231 52.6481 45.2258 50.7476L43.7972 50.7456ZM41.7796 52.7537C40.6659 52.7521 39.7661 51.8495 39.7677 50.7399L38.3391 50.7378C38.3364 52.6384 39.8768 54.1795 41.7775 54.1822L41.7796 52.7537ZM39.7677 50.7399C39.7693 49.6302 40.6716 48.7302 41.7853 48.7318L41.7873 47.3032C39.8866 47.3005 38.3418 48.8373 38.3391 50.7378L39.7677 50.7399ZM41.7853 48.7318C42.899 48.7333 43.7988 49.6359 43.7972 50.7456L45.2258 50.7476C45.2285 48.8471 43.6881 47.3059 41.7873 47.3032L41.7853 48.7318ZM26.0907 29.5197C24.9279 29.3197 24.0343 28.3176 24.0112 27.0969L22.5829 27.124C22.6192 29.0436 24.0239 30.6137 25.8485 30.9276L26.0907 29.5197ZM24.0112 27.0969C23.985 25.7127 25.0873 24.5676 26.4747 24.5408L26.4471 23.1125C24.2724 23.1545 22.5417 24.9497 22.5829 27.124L24.0112 27.0969ZM26.4747 24.5408C26.6986 24.5365 26.9152 24.5614 27.1212 24.6117L27.4599 23.2239C27.135 23.1446 26.7954 23.1058 26.4471 23.1125L26.4747 24.5408ZM27.8591 24.3502C28.309 23.7586 29.0136 23.3728 29.8127 23.3574L29.7851 21.9291C28.5313 21.9533 27.425 22.561 26.722 23.4854L27.8591 24.3502ZM29.8127 23.3574C30.635 23.3415 31.3721 23.7215 31.8426 24.3245L32.9689 23.4457C32.2333 22.503 31.0757 21.9042 29.7851 21.9291L29.8127 23.3574ZM32.65 24.5564C32.9028 24.4644 33.1755 24.4116 33.4618 24.406L33.4342 22.9777C32.9886 22.9863 32.5602 23.0688 32.1615 23.2139L32.65 24.5564ZM33.4618 24.406C34.8489 24.3793 35.9934 25.4808 36.0196 26.8648L37.4479 26.8377C37.4068 24.6633 35.6091 22.9358 33.4342 22.9777L33.4618 24.406ZM36.0196 26.8648C36.0427 28.0856 35.1875 29.1217 34.0328 29.3665L34.3291 30.764C36.1402 30.3801 37.4843 28.7572 37.4479 26.8377L36.0196 26.8648ZM33.4668 30.0788L33.5805 36.0846L35.0088 36.0575L34.8951 30.0518L33.4668 30.0788ZM26.7974 36.2159L26.6838 30.2102L25.2554 30.2372L25.3691 36.2429L26.7974 36.2159ZM34.2808 35.3569L26.0695 35.5153L26.097 36.9436L34.3084 36.7852L34.2808 35.3569ZM26.037 33.7714L34.2484 33.613L34.2208 32.1847L26.0094 32.3431L26.037 33.7714ZM42.5038 31.9982C41.1367 38.9026 34.4314 43.3914 27.5271 42.0243L27.2496 43.4257C34.9279 44.946 42.3849 39.954 43.9052 32.2757L42.5038 31.9982ZM27.5271 42.0243C20.6228 40.6572 16.134 33.9519 17.501 27.0476L16.0997 26.7701C14.5793 34.4484 19.5713 41.9053 27.2496 43.4257L27.5271 42.0243ZM17.501 27.0476C18.8681 20.1432 25.5735 15.6544 32.4778 17.0215L32.7553 15.6201C25.077 14.0998 17.62 19.0918 16.0997 26.7701L17.501 27.0476ZM32.4778 17.0215C39.3821 18.3886 43.8709 25.0939 42.5038 31.9982L43.9052 32.2757C45.4255 24.5974 40.4335 17.1405 32.7553 15.6201L32.4778 17.0215ZM43.9127 44.2391C44.5168 44.6201 44.5169 44.6201 44.5169 44.62C44.5169 44.62 44.5169 44.6199 44.517 44.6199C44.517 44.6198 44.5171 44.6197 44.5171 44.6196C44.5173 44.6194 44.5174 44.6191 44.5176 44.6188C44.518 44.6182 44.5185 44.6174 44.5192 44.6164C44.5204 44.6144 44.5222 44.6116 44.5244 44.608C44.5288 44.601 44.535 44.591 44.5429 44.5782C44.5586 44.5527 44.581 44.5162 44.6085 44.4705C44.6633 44.3793 44.739 44.2507 44.8236 44.0996C44.9897 43.8029 45.2022 43.3977 45.3538 43.0114L44.0239 42.4896C43.9077 42.7858 43.7321 43.1249 43.577 43.4018C43.501 43.5376 43.433 43.6532 43.3841 43.7344C43.3597 43.775 43.3403 43.8068 43.3272 43.828C43.3206 43.8386 43.3157 43.8466 43.3125 43.8517C43.3109 43.8542 43.3098 43.856 43.3091 43.8571C43.3088 43.8576 43.3085 43.858 43.3084 43.8581C43.3084 43.8582 43.3084 43.8583 43.3084 43.8582C43.3084 43.8582 43.3084 43.8582 43.3084 43.8582C43.3084 43.8582 43.3084 43.8581 43.3084 43.8581C43.3085 43.8581 43.3085 43.858 43.9127 44.2391ZM45.3538 43.0114C45.502 42.6335 45.5916 42.2669 45.6639 41.9356C45.7396 41.5885 45.7912 41.3096 45.8713 41.0185C46.0185 40.4836 46.241 39.9964 46.7994 39.5018L45.8523 38.4324C45.0359 39.1554 44.6943 39.9113 44.494 40.6394C44.4003 40.9798 44.3322 41.3374 44.2681 41.631C44.2006 41.9404 44.1301 42.2188 44.0239 42.4896L45.3538 43.0114ZM46.7994 39.5018C47.7558 38.6548 49.0036 38.6627 49.8683 39.5139L50.8705 38.4959C49.4269 37.0748 47.3239 37.129 45.8523 38.4324L46.7994 39.5018ZM49.8683 39.5139C50.3048 39.9436 50.4528 40.5446 50.3313 41.2108C50.2079 41.8872 49.8105 42.573 49.2443 43.0478L50.1622 44.1425C50.9755 43.4604 51.5516 42.4815 51.7367 41.4672C51.9236 40.4426 51.7149 39.327 50.8705 38.4959L49.8683 39.5139ZM49.2443 43.0478C48.3268 43.8171 47.1006 43.979 46.0119 43.9098C45.4778 43.8758 45.005 43.7877 44.6658 43.7078C44.4968 43.668 44.3629 43.6306 44.2732 43.604C44.2284 43.5906 44.1947 43.58 44.1734 43.5731C44.1628 43.5696 44.1553 43.5671 44.151 43.5657C44.1488 43.5649 44.1475 43.5645 44.147 43.5643C44.1467 43.5642 44.1467 43.5642 44.1468 43.5643C44.1469 43.5643 44.147 43.5643 44.1472 43.5644C44.1473 43.5644 44.1475 43.5645 44.1476 43.5645C44.1478 43.5646 44.148 43.5647 43.9127 44.2391C43.6774 44.9135 43.6776 44.9136 43.6779 44.9137C43.678 44.9137 43.6782 44.9138 43.6784 44.9139C43.6788 44.914 43.6793 44.9142 43.6798 44.9143C43.6808 44.9147 43.6821 44.9151 43.6835 44.9156C43.6865 44.9166 43.6902 44.9179 43.6949 44.9195C43.7041 44.9226 43.7168 44.9268 43.7327 44.932C43.7644 44.9423 43.8092 44.9564 43.8657 44.9732C43.9788 45.0068 44.1394 45.0515 44.3381 45.0983C44.734 45.1916 45.2882 45.2952 45.9213 45.3355C47.1669 45.4147 48.836 45.2545 50.1622 44.1425L49.2443 43.0478ZM50.9282 39.9259C51.334 40.5138 51.3341 40.5137 51.3343 40.5136C51.3345 40.5135 51.3347 40.5133 51.335 40.5131C51.3356 40.5127 51.3364 40.5121 51.3375 40.5114C51.3396 40.5099 51.3426 40.5078 51.3466 40.5051C51.3545 40.4996 51.3661 40.4915 51.3812 40.481C51.4114 40.4599 51.4558 40.4289 51.5132 40.3884C51.628 40.3075 51.7951 40.1888 52.006 40.0366C52.4276 39.7323 53.0245 39.2937 53.7283 38.7547C55.1339 37.6782 56.9741 36.195 58.6965 34.5781C60.4084 32.9709 62.0484 31.1908 63.0125 29.5189C63.4944 28.6832 63.8377 27.8236 63.9026 26.9916C63.9696 26.1317 63.7358 25.311 63.0946 24.6368L62.0594 25.6213C62.3881 25.9669 62.5178 26.3735 62.4783 26.8806C62.4366 27.4156 62.2032 28.0626 61.7749 28.8053C60.9186 30.2903 59.404 31.9544 57.7187 33.5366C56.0439 35.1089 54.2444 36.5601 52.8597 37.6205C52.1683 38.15 51.5823 38.5806 51.1699 38.8783C50.9637 39.0271 50.8009 39.1427 50.6902 39.2207C50.6348 39.2598 50.5925 39.2894 50.5642 39.3091C50.55 39.319 50.5394 39.3264 50.5324 39.3312C50.5289 39.3337 50.5263 39.3354 50.5247 39.3366C50.5238 39.3371 50.5232 39.3376 50.5229 39.3378C50.5227 39.3379 50.5226 39.338 50.5225 39.3381C50.5225 39.3381 50.5225 39.3381 50.9282 39.9259ZM63.0946 24.6368C62.4581 23.9675 61.6629 23.741 60.8299 23.8655C60.0436 23.983 59.2508 24.406 58.4976 24.9606C56.9851 26.0744 55.3812 27.9099 53.9355 29.8104C52.4801 31.7237 51.1462 33.7553 50.1783 35.3045C49.6937 36.0801 49.2995 36.7369 49.0261 37.2004C48.8894 37.4322 48.7828 37.6157 48.7102 37.7417C48.6739 37.8047 48.6461 37.8533 48.6272 37.8864C48.6178 37.903 48.6106 37.9156 48.6057 37.9243C48.6032 37.9286 48.6014 37.9319 48.6001 37.9342C48.5994 37.9353 48.5989 37.9362 48.5986 37.9368C48.5984 37.9371 48.5982 37.9374 48.5982 37.9376C48.598 37.9378 48.598 37.9379 49.2199 38.2891C49.8419 38.6403 49.8419 38.6403 49.8419 38.6403C49.842 38.6402 49.8421 38.6401 49.8422 38.6399C49.8424 38.6394 49.8428 38.6388 49.8433 38.6379C49.8444 38.636 49.846 38.6331 49.8482 38.6293C49.8526 38.6215 49.8593 38.6097 49.8682 38.5941C49.886 38.5628 49.9128 38.5161 49.948 38.455C50.0184 38.3329 50.1225 38.1535 50.2566 37.9262C50.5248 37.4714 50.9127 36.8252 51.3898 36.0615C52.3453 34.5322 53.6535 32.5407 55.0725 30.6753C56.5013 28.797 58.0042 27.0981 59.3447 26.1109C60.0182 25.615 60.5884 25.346 61.041 25.2783C61.4469 25.2177 61.7663 25.313 62.0594 25.6213L63.0946 24.6368Z" fill="#23282A"/>
</g>
<defs>
<clipPath id="clip0_4640_74">
<rect width="64" height="64" fill="white" transform="translate(0.5 0.937683)"/>
</clipPath>
</defs>
</svg>
