<svg width="64" height="65" viewBox="0 0 64 65" fill="none" xmlns="http://www.w3.org/2000/svg">
<g id="illustration" clip-path="url(#clip0_4640_56)">
<path id="vector" d="M29.4207 13.9797C31.4159 13.9797 32.4457 13.7866 38.2383 15.0738C41.199 15.7175 45.5113 17.8414 45.5113 17.8414L59.2849 24.2777C60.7009 24.9213 60.9583 26.8522 59.7998 27.6889C59.2206 28.0751 58.6413 28.3969 57.9333 28.5256C54.5221 29.3623 42.9368 24.5995 38.174 22.3468M45.5757 17.9058C45.5757 17.9058 56.9679 18.4207 58.8987 18.3563C60.8296 18.292 61.7307 17.8414 62.1169 17.0691C62.31 16.6829 62.3743 16.168 62.3743 15.6531C62.31 14.4302 61.2158 13.5291 59.9929 13.2717C59.9285 13.2717 59.8642 13.2717 59.7998 13.2073C58.3838 12.8855 39.5256 8.57321 29.4207 8.57321M29.4207 19.5149C31.2872 19.5149 32.8319 19.5149 34.6984 20.2872C40.3623 22.6686 41.7783 27.3671 41.907 29.7485C42.2932 33.0954 41.6496 34.9619 40.7485 37.472C38.3027 43.9083 31.8664 48.478 29.8712 43.8439C28.0047 39.5316 33.733 38.18 34.3766 34.0608C34.8915 30.7783 33.8617 27.6245 30.7079 26.5947C26.0738 25.05 23.8211 28.9118 22.2764 32.9666C20.4743 37.6651 28.6483 40.8189 25.3658 45.6461C21.6972 50.9882 16.7412 39.7891 9.21081 37.472C7.92356 37.0858 7.08685 37.2146 3.73999 37.1502V17.0047C12.0428 12.4993 24.336 5.99871 27.8116 4.13219C28.4552 3.81038 29.0989 3.61729 29.8068 3.61729C33.9904 3.55293 49.0513 3.35984 50.8534 3.61729C52.6556 3.93911 53.8785 4.45401 53.7497 5.74126C53.6854 6.1918 53.4923 6.57797 53.1061 6.83542C51.4327 8.05831 46.7986 9.15248 40.1692 9.47429M22.2121 56.0728L22.6626 57.0383L23.8211 57.2957L22.6626 57.6819L22.4051 58.6473L21.9546 57.6819L20.9248 57.3601L21.9546 56.9739L22.2121 56.0728Z" stroke="#23282A" stroke-width="1.43"/>
<circle id="vector_2" cx="27.5471" cy="48.7876" r="1.0519" stroke="#23282A" stroke-width="1.02857"/>
<circle id="vector_3" cx="27.7488" cy="61.3898" r="1.25359" stroke="#23282A" stroke-width="1.02857"/>
<circle id="vector_4" cx="26.4952" cy="54.0105" r="0.801235" stroke="#23282A" stroke-width="1.02857"/>
<circle id="vector_5" cx="32.7728" cy="50.8686" r="1.02914" stroke="#23282A" stroke-width="1.02857"/>
<circle id="vector_6" cx="31.7437" cy="56.4213" r="1.60969" stroke="#23282A" stroke-width="1.02857"/>
</g>
<defs>
<clipPath id="clip0_4640_56">
<rect width="64" height="64" fill="white" transform="translate(0 0.937683)"/>
</clipPath>
</defs>
</svg>
