<svg width="64" height="65" viewBox="0 0 64 65" fill="none" xmlns="http://www.w3.org/2000/svg">
<g id="illustration" clip-path="url(#clip0_4640_67)">
<path id="vector" d="M20.7464 21.2297C22.6491 18.9861 24.9553 17.1784 27.513 15.8846M30.4999 9.27578C30.3113 9.00568 30.2004 8.67522 30.2004 8.31831V6.33963C30.2004 5.42729 30.9251 4.68768 31.819 4.68768C32.7129 4.68768 33.4376 5.42729 33.4376 6.33963V8.31831C33.4376 8.63603 33.3497 8.9328 33.1974 9.18469M30.4999 9.27578C30.7933 9.69613 31.2748 9.97026 31.819 9.97026C32.4016 9.97026 32.9124 9.65609 33.1974 9.18469M30.4999 9.27578C25.508 9.76221 20.8113 11.9996 17.2353 15.64C13.1692 19.7793 10.8848 25.3934 10.8848 31.2472L54.2483 31.2472C54.2483 25.3934 51.964 19.7793 47.8979 15.64C43.9807 11.6524 38.719 9.34813 33.1974 9.18469M35.3597 43.6126C37.8353 41.8999 39.1995 37.2803 40.1227 36.6844C41.343 35.8968 42.4701 35.9057 43.4252 36.7712C44.3802 37.6368 43.5805 38.9544 43.1007 39.3129C42.6208 39.6714 39.2031 47.7948 39.1187 48.5526C39.0593 49.0861 41.1725 50.6712 42.6192 51.6614M35.3597 43.6126C34.5632 44.1637 33.6516 44.4473 32.6026 44.254C29.9637 43.7677 27.3261 41.5706 25.5045 39.7085M35.3597 43.6126C30.7244 41.5906 30.1681 39.553 29.0765 38.2744C28.2384 37.2927 27.557 35.8887 25.7046 36.6562C24.4829 37.1623 24.3879 38.4255 25.5045 39.7085M35.3597 43.6126C35.3835 43.623 35.4074 43.6334 35.4314 43.6438M25.5045 39.7085C24.3516 38.5299 23.5256 37.4856 23.233 37.0941C22.478 36.0839 20.9946 35.8497 19.9435 36.7712C18.8923 37.6928 21.4196 40.3918 21.9045 41.0321C22.3894 41.6723 26.1215 48.0566 26.7678 48.7843C30.0693 52.5017 34.2572 55.4587 38.1594 58.436M25.5045 39.7085C25.5336 39.742 25.5636 39.7755 25.5944 39.809M42.5354 64.6877L36.7912 60.5144L38.1594 58.436M61.5 60.1018L44.3184 49.0802L42.6192 51.6614M42.6192 51.6614L38.1594 58.436M56.6723 36.0589H8.95188C8.69463 36.0589 8.45849 35.9137 8.33836 35.6815L6.58125 32.2857C6.33723 31.8142 6.67224 31.2469 7.19478 31.2469L58.0515 31.2469C58.546 31.2469 58.8818 31.7599 58.6924 32.2262L57.3132 35.622C57.2058 35.8865 56.9528 36.0589 56.6723 36.0589Z" stroke="#23282A" stroke-width="1.43"/>
</g>
<defs>
<clipPath id="clip0_4640_67">
<rect width="64" height="64" fill="white" transform="matrix(1 0 0 -1 0 64.9377)"/>
</clipPath>
</defs>
</svg>
