<svg width="48" height="49" viewBox="0 0 48 49" fill="none" xmlns="http://www.w3.org/2000/svg">
<g id="spice-up-1_illustration" clip-path="url(#clip0_3443_464)">
<path id="vector" d="M22.0652 10.7192C23.5616 10.7192 24.334 10.5744 28.6785 11.5398C30.899 12.0226 34.1332 13.6155 34.1332 13.6155L44.4634 18.4427C45.5254 18.9255 45.7185 20.3736 44.8496 21.0011C44.4151 21.2908 43.9807 21.5321 43.4497 21.6287C40.8913 22.2562 32.2023 18.6841 28.6302 16.9946M34.1815 13.6638C34.1815 13.6638 42.7256 14.05 44.1737 14.0017C45.6219 13.9534 46.2977 13.6155 46.5873 13.0363C46.7322 12.7466 46.7804 12.3605 46.7804 11.9743C46.7322 11.0571 45.9115 10.3813 44.9944 10.1882C44.9461 10.1882 44.8978 10.1882 44.8496 10.14C43.7876 9.8986 29.6439 6.66438 22.0652 6.66438M22.0652 14.8706C23.4651 14.8706 24.6236 14.8706 26.0235 15.4499C30.2714 17.2359 31.3334 20.7598 31.43 22.5459C31.7196 25.056 31.2369 26.4559 30.5611 28.3385C28.7267 33.1657 23.8995 36.593 22.4031 33.1174C21.0032 29.8832 25.2994 28.8695 25.7821 25.7801C26.1683 23.3182 25.396 20.9529 23.0306 20.1805C19.5551 19.022 17.8655 21.9183 16.707 24.9594C15.3554 28.4833 21.4859 30.8486 19.0241 34.469C16.2726 38.4756 12.5556 30.0763 6.9078 28.3385C5.94236 28.0489 5.31483 28.1454 2.80469 28.0971V12.988C9.03177 9.60897 18.2517 4.7335 20.8584 3.33361C21.3411 3.09225 21.8238 2.94744 22.3548 2.94744C25.4925 2.89917 36.7881 2.75435 38.1398 2.94744C39.4914 3.1888 40.4085 3.57497 40.312 4.54041C40.2637 4.87831 40.1189 5.16795 39.8293 5.36103C38.5742 6.2782 35.0986 7.09882 30.1266 7.34018M16.6587 42.2891L16.9966 43.0132L17.8655 43.2062L16.9966 43.4959L16.8036 44.22L16.4657 43.4959L15.6933 43.2545L16.4657 42.9649L16.6587 42.2891Z" stroke="#23282A" stroke-width="1.5"/>
<circle id="vector_2" cx="20.66" cy="36.8251" r="0.788927" stroke="#23282A" stroke-width="1.8"/>
<circle id="vector_3" cx="20.8113" cy="46.2769" r="0.940191" stroke="#23282A" stroke-width="1.8"/>
<ellipse id="vector_4" cx="19.8714" cy="40.7423" rx="0.600926" ry="0.600925" stroke="#23282A" stroke-width="1.8"/>
<ellipse id="vector_5" cx="24.5795" cy="38.3859" rx="0.771852" ry="0.771851" stroke="#23282A" stroke-width="1.8"/>
<ellipse id="vector_6" cx="23.8079" cy="42.5505" rx="1.20727" ry="1.20727" stroke="#23282A" stroke-width="1.8"/>
</g>
<defs>
<clipPath id="clip0_3443_464">
<rect width="48" height="48" fill="white" transform="translate(0 0.937744)"/>
</clipPath>
</defs>
</svg>
