<svg width="48" height="48" viewBox="0 0 48 48" fill="none" xmlns="http://www.w3.org/2000/svg">
<path fill-rule="evenodd" clip-rule="evenodd" d="M31.2 31.3333V16.6667C31.2 12.6166 27.9764 9.33333 24 9.33333C20.0236 9.33333 16.8 12.6166 16.8 16.6667V31.3333C16.8 35.3834 20.0236 38.6667 24 38.6667C27.9764 38.6667 31.2 35.3834 31.2 31.3333ZM24 7.5C19.0294 7.5 15 11.6041 15 16.6667V31.3333C15 36.3959 19.0294 40.5 24 40.5C28.9706 40.5 33 36.3959 33 31.3333V16.6667C33 11.6041 28.9706 7.5 24 7.5Z" fill="white"/>
<rect x="22" y="16" width="4" height="4" rx="2" fill="white"/>
</svg>
