<svg width="28" height="27" viewBox="0 0 28 27" fill="none" xmlns="http://www.w3.org/2000/svg">
<path d="M16.9747 26.4701C16.2247 26.4701 15.4597 26.3051 14.7697 25.9901L7.5997 22.7051C6.4147 22.1651 5.7397 20.9351 5.9047 19.6451C6.0397 18.6701 6.6397 17.8451 7.5097 17.3951C8.2447 17.0201 9.0997 16.9901 9.8647 17.2751L5.5297 9.32509C5.1847 8.71009 5.1097 7.99009 5.3197 7.31509C5.5147 6.64009 5.9797 6.08509 6.5947 5.74009C7.8697 5.05009 9.4897 5.53009 10.1797 6.80509L10.9897 8.27509C11.1847 8.06509 11.4097 7.88509 11.6647 7.75009C12.4297 7.34509 13.3147 7.34509 14.0347 7.67509C14.2747 7.27009 14.6197 6.92509 15.0547 6.68509C16.1647 6.08509 17.4997 6.31009 18.3097 7.16509C18.5047 6.95509 18.7447 6.76009 18.9997 6.62509C20.2747 5.93509 21.8947 6.41509 22.5847 7.69009L26.9947 15.7751C27.6697 17.0051 27.8197 18.4301 27.4147 19.7801C27.0097 21.1301 26.1097 22.2401 24.8647 22.9151L19.4797 25.8251C18.6997 26.2451 17.8297 26.4551 16.9597 26.4551L16.9747 26.4701ZM8.8297 18.8951C8.6497 18.8951 8.4697 18.9401 8.3047 19.0151C7.9597 19.1801 7.7347 19.5101 7.6747 19.8851C7.6147 20.3801 7.8697 20.8601 8.3347 21.0701L15.5047 24.3551C16.5097 24.8051 17.6647 24.7751 18.6397 24.2501L24.0247 21.3401C24.8497 20.9051 25.4497 20.1701 25.7047 19.2701C25.9597 18.3851 25.8697 17.4551 25.4197 16.6451L21.0097 8.56009C20.7847 8.15509 20.2747 7.99009 19.8547 8.21509C19.4797 8.42509 19.3147 8.87509 19.4797 9.26509L20.4847 11.1251L18.9097 11.9951L17.0947 8.53009C16.8997 8.17009 16.3597 8.05009 15.9097 8.29008C15.5497 8.48509 15.3847 8.90509 15.5047 9.28009L15.9847 10.1951L17.3797 12.7451L15.8047 13.6151L14.4097 11.0501L13.6597 9.67009C13.4347 9.26509 12.9247 9.11509 12.5047 9.32509C11.9947 9.59509 12.0397 10.1351 12.0997 10.2701L14.9947 15.4751L13.4197 16.3451L8.6047 7.66009C8.3797 7.24009 7.8547 7.09009 7.4497 7.31509C7.2547 7.42009 7.1047 7.60009 7.0447 7.81009C6.9847 8.02009 6.9997 8.24509 7.1047 8.44009L11.6647 16.7951C11.9947 17.4101 11.9197 18.1301 11.4697 18.6551C11.0197 19.1801 10.2997 19.3601 9.6547 19.1201L9.3997 19.0001C9.2197 18.8951 9.0397 18.8501 8.8447 18.8501L8.8297 18.8951ZM2.6347 12.7601L2.0797 12.0401C1.6147 11.4401 1.2547 10.7801 1.0147 10.0751C0.744702 9.31009 0.594702 8.51509 0.579702 7.70509C0.549702 5.38009 1.6447 3.17509 3.4897 1.76509C5.3347 0.370086 7.7797 -0.0799144 10.0147 0.565086C10.7947 0.790086 11.5297 1.15009 12.2047 1.61509C12.8197 2.05009 13.3597 2.57509 13.8247 3.17509L14.3647 3.89509L12.9397 4.99009L12.3997 4.27009C12.0547 3.82009 11.6497 3.41509 11.1847 3.10009C10.6897 2.74009 10.1347 2.48509 9.5347 2.30509C7.8397 1.81009 5.9947 2.15509 4.5997 3.20509C3.1747 4.27009 2.3797 5.90509 2.3947 7.67509C2.3947 8.29009 2.5147 8.89009 2.7097 9.46009C2.9047 10.0001 3.1747 10.4951 3.5197 10.9451L4.0597 11.6651L2.6347 12.7601Z" fill="white"/>
</svg>
