<svg width="125" height="52" viewBox="0 0 125 52" fill="none" xmlns="http://www.w3.org/2000/svg">
<g id="vector">
<path d="M7.22021 11.6637H3.58727V16.9697C3.58727 17.4119 3.69482 17.7345 3.92188 17.9377C4.14894 18.1408 4.4716 18.2603 4.88987 18.2842C5.30814 18.3081 5.84591 18.3081 6.46733 18.2723V21.2599C4.20869 21.5109 2.60733 21.3077 1.68715 20.6265C0.755009 19.9454 0.300891 18.7264 0.300891 16.9816V11.6756H0.28894V5.92746L3.58727 4.93557V8.50876H7.23216V11.6756L7.22021 11.6637Z" fill="#00AC46"/>
<path d="M15.8842 8.13827C17.2825 8.13827 18.4297 8.60434 19.3379 9.54843C20.2462 10.4925 20.7003 11.7832 20.7003 13.4323V21.2718H17.402V13.8386C17.402 12.9902 17.1749 12.3329 16.7088 11.8907C16.2428 11.4486 15.6333 11.2095 14.8685 11.2095C14.02 11.2095 13.3388 11.4725 12.8249 11.9983C12.3111 12.5241 12.0601 13.3128 12.0601 14.3764V21.2718H8.76177V3.39394H12.0601V9.93084C12.8608 8.7358 14.1275 8.13827 15.8603 8.13827H15.8842Z" fill="#00AC46"/>
<path d="M26.3051 16.2407C26.7472 17.842 27.9423 18.6427 29.9022 18.6427C31.157 18.6427 32.113 18.2125 32.7583 17.364L35.4113 18.8937C34.1565 20.7102 32.2922 21.6303 29.8424 21.6303C27.7272 21.6303 26.0421 20.997 24.7634 19.7183C23.4847 18.4396 22.8514 16.8382 22.8514 14.8903C22.8514 12.9424 23.4847 11.3649 24.7395 10.0742C25.9943 8.78359 27.6196 8.15022 29.5914 8.15022C31.4677 8.15022 33.0093 8.79554 34.2282 10.0862C35.4472 11.3768 36.0566 12.9782 36.0566 14.8903C36.0566 15.3205 36.0088 15.7627 35.9252 16.2407H26.3051ZM26.2573 13.6833H32.7703C32.5791 12.8109 32.1966 12.1656 31.6111 11.7473C31.0255 11.3171 30.3563 11.1139 29.6034 11.1139C28.7191 11.1139 27.9901 11.341 27.4045 11.7951C26.8309 12.2492 26.4485 12.8826 26.2573 13.6952V13.6833Z" fill="#00AC46"/>
<path d="M41.6376 10.6957C41.9483 9.88302 42.4502 9.26159 43.1553 8.85528C43.8603 8.44896 44.6491 8.2458 45.5215 8.2458V11.9265C44.5176 11.807 43.6213 12.0102 42.8326 12.536C42.0439 13.0618 41.6495 13.9342 41.6495 15.1651V21.2599H38.3512V8.49677H41.6495V10.6957H41.6376Z" fill="#00AC46"/>
<path d="M80.0583 19.6705C78.7438 20.9731 77.1424 21.6184 75.2542 21.6184C73.3661 21.6184 71.7647 20.9731 70.4741 19.6705C69.1715 18.3679 68.5261 16.7785 68.5261 14.8903C68.5261 13.0021 69.1715 11.4007 70.4741 10.1101C71.7767 8.80749 73.3661 8.16216 75.2542 8.16216C77.1424 8.16216 78.7438 8.80749 80.0583 10.1101C81.3729 11.4127 82.0182 13.0021 82.0182 14.8903C82.0182 16.7785 81.3609 18.3798 80.0583 19.6705ZM72.7924 17.4118C73.4497 18.0811 74.2624 18.4037 75.2542 18.4037C76.2461 18.4037 77.0707 18.0691 77.728 17.4118C78.3853 16.7546 78.7199 15.9061 78.7199 14.8903C78.7199 13.8745 78.3853 13.026 77.728 12.3687C77.0707 11.7115 76.2342 11.3768 75.2542 11.3768C74.2743 11.3768 73.4497 11.7115 72.7924 12.3687C72.1352 13.038 71.8125 13.8745 71.8125 14.8903C71.8125 15.9061 72.1352 16.7546 72.7924 17.4118Z" fill="#00AC46"/>
<path d="M109.206 11.6159C108.596 11.6159 106.815 11.5322 106.122 9.60821V21.2599H109.385V11.6039C109.385 11.6039 109.265 11.6159 109.206 11.6159Z" fill="#00AC46"/>
<path d="M109.098 9.56038C107.807 9.56038 106.863 8.68799 106.218 6.89542L105.943 6.14254L105.704 6.21424C105.477 6.28595 103.696 6.83567 102.836 7.43319C102.788 7.25394 102.74 7.07468 102.716 6.89542C102.489 5.32991 103.326 4.26632 105.346 3.53734L106.098 3.26248L106.027 3.02347C105.955 2.79641 105.405 1.01579 104.82 0.155356C104.999 0.107554 105.178 0.0597524 105.357 0.0358514C105.525 0.0119505 105.68 0 105.835 0C107.126 0 108.07 0.872384 108.716 2.66495L108.99 3.42978L109.229 3.35808C109.456 3.28638 111.237 2.73666 112.098 2.13913C112.145 2.31839 112.193 2.49765 112.217 2.67691C112.444 4.24242 111.608 5.30601 109.588 6.03499L108.895 6.28595V6.4652C108.895 6.54886 109.492 8.49679 110.126 9.41697C109.946 9.46477 109.767 9.51257 109.588 9.53648C109.421 9.56038 109.265 9.57233 109.11 9.57233L109.098 9.56038Z" fill="#00AC46"/>
<path d="M124.156 21.2599H120.355L117.583 17.3879L114.81 21.2599H111.01L115.683 14.7469L111.213 8.49679H115.013L117.583 12.0939L120.164 8.49679H123.94L119.471 14.7349L124.144 21.2599H124.156Z" fill="#00AC46"/>
<path d="M61.547 8.13827C63.005 8.13827 64.1761 8.61629 65.0605 9.57232C65.9448 10.5284 66.375 11.8071 66.375 13.3965V21.2599H63.0767V13.6235C63.0767 12.8587 62.8855 12.2612 62.515 11.831C62.1445 11.4007 61.6187 11.1976 60.9375 11.1976C60.1847 11.1976 59.611 11.4485 59.1928 11.9385C58.7745 12.4285 58.5714 13.1455 58.5714 14.0776V21.2479H55.273V13.6116C55.273 12.8468 55.0818 12.2492 54.7114 11.819C54.3409 11.3888 53.8151 11.1856 53.1339 11.1856C52.4049 11.1856 51.8193 11.4366 51.3891 11.9266C50.9589 12.4165 50.7438 13.1336 50.7438 14.0657V21.236H47.4455V8.49678H50.7438V9.84718C51.5086 8.71189 52.6917 8.13827 54.2931 8.13827C55.8944 8.13827 57.0178 8.74774 57.7587 9.97864C58.6072 8.74774 59.874 8.13827 61.559 8.13827H61.547Z" fill="#00AC46"/>
<path d="M98.462 8.13827C99.92 8.13827 101.091 8.61629 101.975 9.57232C102.86 10.5284 103.29 11.8071 103.29 13.3965V21.2599H99.9917V13.6235C99.9917 12.8587 99.8005 12.2612 99.43 11.831C99.0596 11.4007 98.5337 11.1976 97.8526 11.1976C97.0997 11.1976 96.5261 11.4485 96.1078 11.9385C95.6895 12.4285 95.4864 13.1455 95.4864 14.0776V21.2479H92.188V13.6116C92.188 12.8468 91.9968 12.2492 91.6264 11.819C91.2559 11.3888 90.7301 11.1856 90.0489 11.1856C89.3199 11.1856 88.7344 11.4366 88.3042 11.9266C87.8739 12.4165 87.6588 13.1336 87.6588 14.0657V21.236H84.3605V8.49678H87.6588V9.84718C88.4237 8.71189 89.6068 8.13827 91.2081 8.13827C92.8095 8.13827 93.9328 8.74774 94.6738 9.97864C95.5222 8.74774 96.789 8.13827 98.474 8.13827H98.462Z" fill="#00AC46"/>
<path d="M47.5635 47.3236H46.5288C48.3441 50.1403 51.5028 52 55.1152 52C58.2739 52 61.1058 50.5736 62.9574 48.3347C64.8272 50.5736 67.6591 52 70.8178 52C74.4303 52 77.6071 50.1403 79.4042 47.3236H78.3695C76.6631 49.6528 73.922 51.1514 70.7996 51.1514C67.5139 51.1514 64.6094 49.4542 62.9393 46.8903C61.2692 49.4542 58.3828 51.1514 55.0971 51.1514C51.9929 51.1514 49.2336 49.6347 47.5272 47.3236M70.7633 43.7667V41.6722H74.1217V40.4264H70.7633V38.5847H74.521V37.3389H69.0932V45.0125H74.7026V43.7667H70.7633ZM65.7349 45.0125L67.8951 37.3389H66.4065L65.0087 42.6653L63.7925 37.3389H62.2313L60.9061 42.6833L59.6717 37.3389H57.8201L59.9621 45.0125H61.5959L62.8122 40.1014L64.0648 45.0125H65.7349ZM57.3481 45.0125L55.3512 42.0875C55.8777 41.8889 57.0032 41.1667 57.0032 39.8667C57.0032 38.2236 55.7325 37.3389 54.371 37.3389H50.7948V45.0125H52.4649V38.5125H53.8808C54.6251 38.5125 55.2968 39 55.2968 39.9028C55.2968 40.8056 54.498 41.3111 53.5904 41.3111C53.427 41.3111 53.2636 41.3111 53.1365 41.2931L55.2423 44.9944H57.3299L57.3481 45.0125ZM38.2328 45.0125L41.0647 37.3389H39.5035L37.5248 42.9722L35.6005 37.3389H33.6945L36.5808 45.0125H38.2328ZM47.7087 41.1667C47.7087 42.7375 46.7103 44.0014 45.4214 44.0014C44.1325 44.0014 43.1341 42.7375 43.1341 41.1667C43.1341 39.5958 44.1325 38.3319 45.4214 38.3319C46.7103 38.3319 47.7087 39.5958 47.7087 41.1667ZM45.4214 37.1042C43.1886 37.1042 41.3914 38.9278 41.3914 41.1667C41.3914 43.4056 43.2067 45.2292 45.4214 45.2292C47.6361 45.2292 49.4696 43.4056 49.4696 41.1667C49.4696 38.9278 47.6543 37.1042 45.4214 37.1042ZM78.315 34.9917H79.3498C77.5345 32.1931 74.3758 30.3333 70.7815 30.3333C67.6228 30.3333 64.7909 31.7597 62.9211 34.0167C61.0513 31.7778 58.2376 30.3333 55.0608 30.3333C51.4664 30.3333 48.3078 32.1931 46.4925 34.9917H47.5272C49.2336 32.6806 51.9747 31.1819 55.0608 31.1819C58.3465 31.1819 61.251 32.8792 62.9211 35.4431C64.5912 32.8792 67.4776 31.1819 70.7815 31.1819C73.8857 31.1819 76.6268 32.6806 78.315 34.9917ZM82.7081 45.0125L80.7113 42.0875C81.2377 41.8889 82.3632 41.1667 82.3632 39.8667C82.3632 38.2236 81.0925 37.3389 79.731 37.3389H76.1548V45.0125H77.8068V38.5125H79.2227C79.967 38.5125 80.6387 39 80.6387 39.9028C80.6387 40.8056 79.8399 41.3111 78.9323 41.3111C78.7689 41.3111 78.6055 41.3111 78.4784 41.2931L80.5842 44.9944H82.6718L82.7081 45.0125ZM83.8336 45.0125H85.4856V37.3389H83.8336V45.0125ZM90.75 45.0125L87.5187 40.7514L90.3869 37.3389H88.3901L85.7034 40.8417L88.5353 45.0125H90.75Z" fill="#00AC46"/>
</g>
</svg>
