<svg width="130" height="52" viewBox="0 0 130 52" fill="none" xmlns="http://www.w3.org/2000/svg">
<g clip-path="url(#clip0_2344_2578)">
<path d="M9.72034 11.6637H6.08739V16.9697C6.08739 17.4119 6.19495 17.7345 6.422 17.9377C6.64906 18.1408 6.97173 18.2603 7.38999 18.2842C7.80826 18.3081 8.34603 18.3081 8.96746 18.2723V21.2599C6.70882 21.5109 5.10745 21.3077 4.18727 20.6265C3.25513 19.9454 2.80101 18.7264 2.80101 16.9816V11.6756H2.78906V5.92746L6.08739 4.93557V8.50876H9.73228V11.6756L9.72034 11.6637Z" fill="#57CD84"/>
<path d="M18.3844 8.13827C19.7826 8.13827 20.9298 8.60434 21.8381 9.54843C22.7463 10.4925 23.2004 11.7832 23.2004 13.4323V21.2718H19.9021V13.8386C19.9021 12.9902 19.675 12.3329 19.209 11.8907C18.7429 11.4486 18.1334 11.2095 17.3686 11.2095C16.5201 11.2095 15.8389 11.4725 15.3251 11.9983C14.8112 12.5241 14.5602 13.3128 14.5602 14.3764V21.2718H11.2619V3.39394H14.5602V9.93084C15.3609 8.7358 16.6277 8.13827 18.3605 8.13827H18.3844Z" fill="#57CD84"/>
<path d="M28.8052 16.2407C29.2473 17.842 30.4424 18.6427 32.4023 18.6427C33.6571 18.6427 34.6131 18.2125 35.2584 17.364L37.9114 18.8937C36.6566 20.7102 34.7924 21.6303 32.3425 21.6303C30.2273 21.6303 28.5423 20.997 27.2636 19.7183C25.9849 18.4396 25.3515 16.8382 25.3515 14.8903C25.3515 12.9424 25.9849 11.3649 27.2397 10.0742C28.4945 8.78359 30.1197 8.15022 32.0916 8.15022C33.9678 8.15022 35.5094 8.79554 36.7283 10.0862C37.9473 11.3768 38.5568 12.9782 38.5568 14.8903C38.5568 15.3205 38.509 15.7627 38.4253 16.2407H28.8052ZM28.7574 13.6833H35.2704C35.0792 12.8109 34.6968 12.1656 34.1112 11.7473C33.5256 11.3171 32.8564 11.1139 32.1035 11.1139C31.2192 11.1139 30.4902 11.341 29.9046 11.7951C29.331 12.2492 28.9486 12.8826 28.7574 13.6952V13.6833Z" fill="#57CD84"/>
<path d="M44.1377 10.6957C44.4484 9.88302 44.9503 9.26159 45.6554 8.85528C46.3605 8.44896 47.1492 8.2458 48.0216 8.2458V11.9265C47.0177 11.807 46.1215 12.0102 45.3327 12.536C44.544 13.0618 44.1496 13.9342 44.1496 15.1651V21.2599H40.8513V8.49677H44.1496V10.6957H44.1377Z" fill="#57CD84"/>
<path d="M82.5585 19.6705C81.2439 20.9731 79.6425 21.6184 77.7544 21.6184C75.8662 21.6184 74.2648 20.9731 72.9742 19.6705C71.6716 18.3679 71.0263 16.7785 71.0263 14.8903C71.0263 13.0021 71.6716 11.4007 72.9742 10.1101C74.2768 8.80749 75.8662 8.16216 77.7544 8.16216C79.6425 8.16216 81.2439 8.80749 82.5585 10.1101C83.873 11.4127 84.5183 13.0021 84.5183 14.8903C84.5183 16.7785 83.8611 18.3798 82.5585 19.6705ZM75.2926 17.4118C75.9498 18.0811 76.7625 18.4037 77.7544 18.4037C78.7463 18.4037 79.5708 18.0691 80.2281 17.4118C80.8854 16.7546 81.22 15.9061 81.22 14.8903C81.22 13.8745 80.8854 13.026 80.2281 12.3687C79.5708 11.7115 78.7343 11.3768 77.7544 11.3768C76.7744 11.3768 75.9498 11.7115 75.2926 12.3687C74.6353 13.038 74.3126 13.8745 74.3126 14.8903C74.3126 15.9061 74.6353 16.7546 75.2926 17.4118Z" fill="#57CD84"/>
<path d="M111.706 11.6159C111.096 11.6159 109.316 11.5322 108.622 9.60821V21.2599H111.885V11.6039C111.885 11.6039 111.765 11.6159 111.706 11.6159Z" fill="#57CD84"/>
<path d="M111.598 9.56038C110.307 9.56038 109.363 8.68799 108.718 6.89542L108.443 6.14254L108.204 6.21424C107.977 6.28595 106.196 6.83567 105.336 7.43319C105.288 7.25394 105.24 7.07468 105.217 6.89542C104.989 5.32991 105.826 4.26632 107.846 3.53734L108.599 3.26248L108.527 3.02347C108.455 2.79641 107.905 1.01579 107.32 0.155356C107.499 0.107554 107.678 0.0597524 107.858 0.0358514C108.025 0.0119505 108.18 0 108.336 0C109.626 0 110.57 0.872384 111.216 2.66495L111.491 3.42978L111.73 3.35808C111.957 3.28638 113.737 2.73666 114.598 2.13913C114.645 2.31839 114.693 2.49765 114.717 2.67691C114.944 4.24242 114.108 5.30601 112.088 6.03499L111.395 6.28595V6.4652C111.395 6.54886 111.992 8.49679 112.626 9.41697C112.447 9.46477 112.267 9.51257 112.088 9.53648C111.921 9.56038 111.765 9.57233 111.61 9.57233L111.598 9.56038Z" fill="#57CD84"/>
<path d="M126.656 21.2599H122.855L120.083 17.3879L117.31 21.2599H113.51L118.183 14.7469L113.713 8.49679H117.514L120.083 12.0939L122.664 8.49679H126.441L121.971 14.7349L126.644 21.2599H126.656Z" fill="#57CD84"/>
<path d="M64.0471 8.13827C65.5051 8.13827 66.6762 8.61629 67.5606 9.57232C68.4449 10.5284 68.8751 11.8071 68.8751 13.3965V21.2599H65.5768V13.6235C65.5768 12.8587 65.3856 12.2612 65.0151 11.831C64.6447 11.4007 64.1188 11.1976 63.4377 11.1976C62.6848 11.1976 62.1112 11.4485 61.6929 11.9385C61.2746 12.4285 61.0715 13.1455 61.0715 14.0776V21.2479H57.7731V13.6116C57.7731 12.8468 57.5819 12.2492 57.2115 11.819C56.841 11.3888 56.3152 11.1856 55.634 11.1856C54.905 11.1856 54.3195 11.4366 53.8892 11.9266C53.459 12.4165 53.2439 13.1336 53.2439 14.0657V21.236H49.9456V8.49678H53.2439V9.84718C54.0087 8.71189 55.1918 8.13827 56.7932 8.13827C58.3946 8.13827 59.5179 8.74774 60.2588 9.97864C61.1073 8.74774 62.3741 8.13827 64.0591 8.13827H64.0471Z" fill="#57CD84"/>
<path d="M100.962 8.13827C102.42 8.13827 103.591 8.61629 104.476 9.57232C105.36 10.5284 105.79 11.8071 105.79 13.3965V21.2599H102.492V13.6235C102.492 12.8587 102.301 12.2612 101.93 11.831C101.56 11.4007 101.034 11.1976 100.353 11.1976C99.5998 11.1976 99.0262 11.4485 98.6079 11.9385C98.1897 12.4285 97.9865 13.1455 97.9865 14.0776V21.2479H94.6882V13.6116C94.6882 12.8468 94.497 12.2492 94.1265 11.819C93.756 11.3888 93.2302 11.1856 92.549 11.1856C91.8201 11.1856 91.2345 11.4366 90.8043 11.9266C90.3741 12.4165 90.159 13.1336 90.159 14.0657V21.236H86.8606V8.49678H90.159V9.84718C90.9238 8.71189 92.1069 8.13827 93.7082 8.13827C95.3096 8.13827 96.4329 8.74774 97.1739 9.97864C98.0224 8.74774 99.2891 8.13827 100.974 8.13827H100.962Z" fill="#57CD84"/>
<path d="M50.0636 47.3236H49.0289C50.8442 50.1403 54.0029 52 57.6154 52C60.774 52 63.6059 50.5736 65.4576 48.3347C67.3273 50.5736 70.1592 52 73.3179 52C76.9304 52 80.1072 50.1403 81.9044 47.3236H80.8696C79.1632 49.6528 76.4221 51.1514 73.2997 51.1514C70.014 51.1514 67.1095 49.4542 65.4394 46.8903C63.7693 49.4542 60.8829 51.1514 57.5972 51.1514C54.493 51.1514 51.7337 49.6347 50.0273 47.3236M73.2634 43.7667V41.6722H76.6218V40.4264H73.2634V38.5847H77.0211V37.3389H71.5933V45.0125H77.2027V43.7667H73.2634ZM68.235 45.0125L70.3952 37.3389H68.9067L67.5089 42.6653L66.2926 37.3389H64.7314L63.4062 42.6833L62.1718 37.3389H60.3202L62.4623 45.0125H64.0961L65.3123 40.1014L66.5649 45.0125H68.235ZM59.8482 45.0125L57.8514 42.0875C58.3778 41.8889 59.5033 41.1667 59.5033 39.8667C59.5033 38.2236 58.2326 37.3389 56.8711 37.3389H53.2949V45.0125H54.965V38.5125H56.3809C57.1252 38.5125 57.7969 39 57.7969 39.9028C57.7969 40.8056 56.9982 41.3111 56.0905 41.3111C55.9271 41.3111 55.7637 41.3111 55.6367 41.2931L57.7424 44.9944H59.8301L59.8482 45.0125ZM40.7329 45.0125L43.5648 37.3389H42.0036L40.0249 42.9722L38.1007 37.3389H36.1946L39.0809 45.0125H40.7329ZM50.2088 41.1667C50.2088 42.7375 49.2104 44.0014 47.9215 44.0014C46.6327 44.0014 45.6342 42.7375 45.6342 41.1667C45.6342 39.5958 46.6327 38.3319 47.9215 38.3319C49.2104 38.3319 50.2088 39.5958 50.2088 41.1667ZM47.9215 37.1042C45.6887 37.1042 43.8915 38.9278 43.8915 41.1667C43.8915 43.4056 45.7069 45.2292 47.9215 45.2292C50.1362 45.2292 51.9697 43.4056 51.9697 41.1667C51.9697 38.9278 50.1544 37.1042 47.9215 37.1042ZM80.8152 34.9917H81.8499C80.0346 32.1931 76.8759 30.3333 73.2816 30.3333C70.1229 30.3333 67.291 31.7597 65.4212 34.0167C63.5515 31.7778 60.7377 30.3333 57.5609 30.3333C53.9666 30.3333 50.8079 32.1931 48.9926 34.9917H50.0273C51.7337 32.6806 54.4749 31.1819 57.5609 31.1819C60.8466 31.1819 63.7512 32.8792 65.4212 35.4431C67.0913 32.8792 69.9777 31.1819 73.2816 31.1819C76.3858 31.1819 79.1269 32.6806 80.8152 34.9917ZM85.2083 45.0125L83.2114 42.0875C83.7378 41.8889 84.8633 41.1667 84.8633 39.8667C84.8633 38.2236 83.5926 37.3389 82.2311 37.3389H78.6549V45.0125H80.3069V38.5125H81.7228C82.4671 38.5125 83.1388 39 83.1388 39.9028C83.1388 40.8056 82.34 41.3111 81.4324 41.3111C81.269 41.3111 81.1056 41.3111 80.9785 41.2931L83.0843 44.9944H85.1719L85.2083 45.0125ZM86.3337 45.0125H87.9857V37.3389H86.3337V45.0125ZM93.2501 45.0125L90.0189 40.7514L92.8871 37.3389H90.8902L88.2035 40.8417L91.0354 45.0125H93.2501Z" fill="#57CD84"/>
</g>
<defs>
<clipPath id="clip0_2344_2578">
<rect width="128.556" height="52" fill="white" transform="translate(0.722168)"/>
</clipPath>
</defs>
</svg>
